STARTFONT 2.1
COMMENT
COMMENT Converted from OpenType font "Q:\font stuff\winfont\DejaVuSans.ttf" by "otf2bdf 3.0".
COMMENT
FONT -FreeType-DejaVu Sans-Medium-R-Normal--20-200-72-72-P-114-ISO10646-1
SIZE 20 72 72
FONTBOUNDINGBOX 54 28 -20 -7
STARTPROPERTIES 19
FOUNDRY "FreeType"
FAMILY_NAME "DejaVu Sans"
WEIGHT_NAME "Medium"
SLANT "R"
SETWIDTH_NAME "Normal"
ADD_STYLE_NAME ""
PIXEL_SIZE 20
POINT_SIZE 200
RESOLUTION_X 72
RESOLUTION_Y 72
SPACING "P"
AVERAGE_WIDTH 114
CHARSET_REGISTRY "ISO10646"
CHARSET_ENCODING "1"
FONT_ASCENT 18
FONT_DESCENT 4
COPYRIGHT "Copyright (c) 2003 by Bitstream, Inc. All Rights Reserved.  Copyright (c) 2006 by Tavmjong Bah. All Rights Reserved.  DejaVu changes are in public domain  "
_OTF_FONTFILE "Q:\font stuff\winfont\DejaVuSans.ttf"
_OTF_PSNAME "DejaVuSans"
ENDPROPERTIES
CHARS 5180
STARTCHAR 0020
ENCODING 32
SWIDTH 300 0
DWIDTH 6 0
BBX 0 0 0 0
BITMAP
ENDCHAR
STARTCHAR 0021
ENCODING 33
SWIDTH 400 0
DWIDTH 8 0
BBX 2 15 3 0
BITMAP
C0
C0
C0
C0
C0
C0
C0
C0
C0
C0
C0
00
00
C0
C0
ENDCHAR
STARTCHAR 0022
ENCODING 34
SWIDTH 500 0
DWIDTH 10 0
BBX 6 5 2 10
BITMAP
CC
CC
CC
CC
CC
ENDCHAR
STARTCHAR 0023
ENCODING 35
SWIDTH 850 0
DWIDTH 17 0
BBX 14 15 2 0
BITMAP
0230
0630
0620
0460
7FFC
7FFC
0C40
0CC0
08C0
FFF8
FFF8
1880
1180
1180
3100
ENDCHAR
STARTCHAR 0024
ENCODING 36
SWIDTH 650 0
DWIDTH 13 0
BBX 9 18 2 -3
BITMAP
0800
0800
3E00
7F00
E900
C800
C800
7C00
3F00
0B80
0980
0980
8B80
FF00
7E00
0800
0800
0800
ENDCHAR
STARTCHAR 0025
ENCODING 37
SWIDTH 950 0
DWIDTH 19 0
BBX 17 15 0 0
BITMAP
380800
6C0800
C61000
C63000
C62000
C64000
6C4000
388E00
011B00
013180
023180
063180
043180
081B00
080E00
ENDCHAR
STARTCHAR 0026
ENCODING 38
SWIDTH 750 0
DWIDTH 15 0
BBX 14 15 1 0
BITMAP
0F00
1F80
3880
3000
3000
3800
3C00
7E18
E738
C3B0
C1F0
C0E0
71F0
7FB8
1E1C
ENDCHAR
STARTCHAR 0027
ENCODING 39
SWIDTH 300 0
DWIDTH 6 0
BBX 2 5 2 10
BITMAP
C0
C0
C0
C0
C0
ENDCHAR
STARTCHAR 0028
ENCODING 40
SWIDTH 400 0
DWIDTH 8 0
BBX 4 18 2 -3
BITMAP
30
20
60
60
40
C0
C0
C0
C0
C0
C0
C0
C0
60
60
60
20
30
ENDCHAR
STARTCHAR 0029
ENCODING 41
SWIDTH 400 0
DWIDTH 8 0
BBX 4 18 2 -3
BITMAP
C0
40
60
60
20
30
30
30
30
30
30
30
30
60
60
60
40
C0
ENDCHAR
STARTCHAR 002A
ENCODING 42
SWIDTH 500 0
DWIDTH 10 0
BBX 9 10 0 5
BITMAP
0800
0800
8880
6B00
1C00
1C00
6B00
8880
0800
0800
ENDCHAR
STARTCHAR 002B
ENCODING 43
SWIDTH 850 0
DWIDTH 17 0
BBX 12 12 2 0
BITMAP
0600
0600
0600
0600
0600
FFF0
FFF0
0600
0600
0600
0600
0600
ENDCHAR
STARTCHAR 002C
ENCODING 44
SWIDTH 300 0
DWIDTH 6 0
BBX 3 5 1 -3
BITMAP
60
60
60
C0
80
ENDCHAR
STARTCHAR 002D
ENCODING 45
SWIDTH 350 0
DWIDTH 7 0
BBX 5 2 1 5
BITMAP
F8
F8
ENDCHAR
STARTCHAR 002E
ENCODING 46
SWIDTH 300 0
DWIDTH 6 0
BBX 2 2 2 0
BITMAP
C0
C0
ENDCHAR
STARTCHAR 002F
ENCODING 47
SWIDTH 350 0
DWIDTH 7 0
BBX 7 16 0 -1
BITMAP
06
0E
0C
0C
0C
18
18
18
30
30
30
60
60
60
E0
C0
ENDCHAR
STARTCHAR 0030
ENCODING 48
SWIDTH 650 0
DWIDTH 13 0
BBX 10 15 1 0
BITMAP
1E00
3F00
6180
6180
C0C0
C0C0
C0C0
C0C0
C0C0
C0C0
C0C0
6180
6180
3F00
1E00
ENDCHAR
STARTCHAR 0031
ENCODING 49
SWIDTH 650 0
DWIDTH 13 0
BBX 9 15 2 0
BITMAP
3C00
FC00
CC00
0C00
0C00
0C00
0C00
0C00
0C00
0C00
0C00
0C00
0C00
7F80
7F80
ENDCHAR
STARTCHAR 0032
ENCODING 50
SWIDTH 650 0
DWIDTH 13 0
BBX 9 15 1 0
BITMAP
7E00
FF00
8380
0180
0180
0180
0380
0700
0600
0C00
3800
7000
E000
FF80
FF80
ENDCHAR
STARTCHAR 0033
ENCODING 51
SWIDTH 650 0
DWIDTH 13 0
BBX 10 15 1 0
BITMAP
7E00
FF00
8380
0180
0180
0380
1E00
1F00
0180
00C0
00C0
00C0
81C0
FF80
7E00
ENDCHAR
STARTCHAR 0034
ENCODING 52
SWIDTH 650 0
DWIDTH 13 0
BBX 11 15 1 0
BITMAP
0380
0780
0580
0D80
1980
1980
3180
2180
6180
C180
FFE0
FFE0
0180
0180
0180
ENDCHAR
STARTCHAR 0035
ENCODING 53
SWIDTH 650 0
DWIDTH 13 0
BBX 9 15 1 0
BITMAP
7F00
7F00
6000
6000
6000
7E00
7F00
4380
0180
0180
0180
0180
8300
FF00
7C00
ENDCHAR
STARTCHAR 0036
ENCODING 54
SWIDTH 650 0
DWIDTH 13 0
BBX 10 15 1 0
BITMAP
0F00
3F80
7080
6000
E000
C000
CF00
FF80
E1C0
C0C0
C0C0
C0C0
61C0
7F80
1F00
ENDCHAR
STARTCHAR 0037
ENCODING 55
SWIDTH 650 0
DWIDTH 13 0
BBX 10 15 1 0
BITMAP
FFC0
FFC0
0180
0180
0180
0300
0300
0300
0600
0600
0600
0C00
0C00
0C00
1800
ENDCHAR
STARTCHAR 0038
ENCODING 56
SWIDTH 650 0
DWIDTH 13 0
BBX 10 15 1 0
BITMAP
3F00
7F80
E1C0
C0C0
C0C0
6180
3F00
7F80
6180
C0C0
C0C0
C0C0
E1C0
7F80
3F00
ENDCHAR
STARTCHAR 0039
ENCODING 57
SWIDTH 650 0
DWIDTH 13 0
BBX 10 15 1 0
BITMAP
3E00
7F80
E180
C0C0
C0C0
C0C0
E1C0
7FC0
3CC0
00C0
01C0
0180
4380
7F00
3C00
ENDCHAR
STARTCHAR 003A
ENCODING 58
SWIDTH 350 0
DWIDTH 7 0
BBX 2 10 2 0
BITMAP
C0
C0
00
00
00
00
00
00
C0
C0
ENDCHAR
STARTCHAR 003B
ENCODING 59
SWIDTH 350 0
DWIDTH 7 0
BBX 3 13 1 -3
BITMAP
60
60
00
00
00
00
00
00
60
60
60
C0
80
ENDCHAR
STARTCHAR 003C
ENCODING 60
SWIDTH 850 0
DWIDTH 17 0
BBX 13 11 2 1
BITMAP
0008
0078
03F0
1F80
FC00
F000
FC00
1F80
03F0
0078
0008
ENDCHAR
STARTCHAR 003D
ENCODING 61
SWIDTH 850 0
DWIDTH 17 0
BBX 13 6 2 3
BITMAP
FFF8
FFF8
0000
0000
FFF8
FFF8
ENDCHAR
STARTCHAR 003E
ENCODING 62
SWIDTH 850 0
DWIDTH 17 0
BBX 13 11 2 1
BITMAP
8000
F000
7E00
0FC0
01F8
0078
01F8
0FC0
7E00
F000
8000
ENDCHAR
STARTCHAR 003F
ENCODING 63
SWIDTH 550 0
DWIDTH 11 0
BBX 8 15 1 0
BITMAP
7C
FE
87
03
03
07
0E
1C
38
30
30
30
00
30
30
ENDCHAR
STARTCHAR 0040
ENCODING 64
SWIDTH 1000 0
DWIDTH 20 0
BBX 18 18 1 -3
BITMAP
03F800
0FFE00
1C0F00
380380
700180
61D8C0
C3F8C0
C738C0
C618C0
C619C0
C73B80
C3FF00
61DC00
700000
380400
1C1C00
0FF800
03E000
ENDCHAR
STARTCHAR 0041
ENCODING 65
SWIDTH 700 0
DWIDTH 14 0
BBX 13 15 0 0
BITMAP
0700
0700
0700
0D80
0D80
1DC0
18C0
18C0
3060
3060
3FE0
7FF0
6030
6030
C018
ENDCHAR
STARTCHAR 0042
ENCODING 66
SWIDTH 700 0
DWIDTH 14 0
BBX 10 15 2 0
BITMAP
FE00
FF00
C380
C180
C180
C380
FF00
FF00
C180
C0C0
C0C0
C0C0
C1C0
FF80
FF00
ENDCHAR
STARTCHAR 0043
ENCODING 67
SWIDTH 700 0
DWIDTH 14 0
BBX 12 15 1 0
BITMAP
0FE0
1FF0
3810
6000
E000
C000
C000
C000
C000
C000
E000
6000
3810
3FF0
0FE0
ENDCHAR
STARTCHAR 0044
ENCODING 68
SWIDTH 750 0
DWIDTH 15 0
BBX 12 15 2 0
BITMAP
FF00
FFC0
C1E0
C060
C070
C030
C030
C030
C030
C030
C070
C060
C1E0
FFC0
FF00
ENDCHAR
STARTCHAR 0045
ENCODING 69
SWIDTH 650 0
DWIDTH 13 0
BBX 9 15 2 0
BITMAP
FF80
FF80
C000
C000
C000
C000
FF80
FF80
C000
C000
C000
C000
C000
FF80
FF80
ENDCHAR
STARTCHAR 0046
ENCODING 70
SWIDTH 600 0
DWIDTH 12 0
BBX 8 15 2 0
BITMAP
FF
FF
C0
C0
C0
C0
FE
FE
C0
C0
C0
C0
C0
C0
C0
ENDCHAR
STARTCHAR 0047
ENCODING 71
SWIDTH 800 0
DWIDTH 16 0
BBX 13 15 1 0
BITMAP
0FE0
3FF0
7810
6000
E000
C000
C000
C0F8
C0F8
C018
E018
6018
3818
1FF0
0FC0
ENDCHAR
STARTCHAR 0048
ENCODING 72
SWIDTH 750 0
DWIDTH 15 0
BBX 11 15 2 0
BITMAP
C060
C060
C060
C060
C060
C060
FFE0
FFE0
C060
C060
C060
C060
C060
C060
C060
ENDCHAR
STARTCHAR 0049
ENCODING 73
SWIDTH 300 0
DWIDTH 6 0
BBX 2 15 2 0
BITMAP
C0
C0
C0
C0
C0
C0
C0
C0
C0
C0
C0
C0
C0
C0
C0
ENDCHAR
STARTCHAR 004A
ENCODING 74
SWIDTH 300 0
DWIDTH 6 0
BBX 5 19 -1 -4
BITMAP
18
18
18
18
18
18
18
18
18
18
18
18
18
18
18
18
38
F0
E0
ENDCHAR
STARTCHAR 004B
ENCODING 75
SWIDTH 650 0
DWIDTH 13 0
BBX 11 15 2 0
BITMAP
C1C0
C380
C700
CE00
DC00
F800
F000
F000
F800
DC00
CE00
C700
C380
C1C0
C0E0
ENDCHAR
STARTCHAR 004C
ENCODING 76
SWIDTH 550 0
DWIDTH 11 0
BBX 9 15 2 0
BITMAP
C000
C000
C000
C000
C000
C000
C000
C000
C000
C000
C000
C000
C000
FF80
FF80
ENDCHAR
STARTCHAR 004D
ENCODING 77
SWIDTH 850 0
DWIDTH 17 0
BBX 13 15 2 0
BITMAP
F078
F078
F078
D8D8
D8D8
D8D8
CD98
CD98
CD98
C718
C718
C718
C018
C018
C018
ENDCHAR
STARTCHAR 004E
ENCODING 78
SWIDTH 750 0
DWIDTH 15 0
BBX 11 15 2 0
BITMAP
E060
F060
F060
F860
D860
DC60
CC60
CE60
C660
C760
C360
C3E0
C1E0
C0E0
C0E0
ENDCHAR
STARTCHAR 004F
ENCODING 79
SWIDTH 800 0
DWIDTH 16 0
BBX 14 15 1 0
BITMAP
0FC0
3FF0
3870
6018
E01C
C00C
C00C
C00C
C00C
C00C
E01C
6018
3870
3FF0
0FC0
ENDCHAR
STARTCHAR 0050
ENCODING 80
SWIDTH 600 0
DWIDTH 12 0
BBX 9 15 2 0
BITMAP
FE00
FF00
C380
C180
C180
C180
C380
FF00
FE00
C000
C000
C000
C000
C000
C000
ENDCHAR
STARTCHAR 0051
ENCODING 81
SWIDTH 800 0
DWIDTH 16 0
BBX 14 18 1 -3
BITMAP
0FC0
3FF0
3878
6018
E01C
C00C
C00C
C00C
C00C
C00C
E01C
6018
3870
3FE0
0FC0
00E0
0070
0030
ENDCHAR
STARTCHAR 0052
ENCODING 82
SWIDTH 700 0
DWIDTH 14 0
BBX 11 15 2 0
BITMAP
FE00
FF00
C380
C180
C180
C380
FF00
FE00
C700
C380
C180
C180
C0C0
C0C0
C060
ENDCHAR
STARTCHAR 0053
ENCODING 83
SWIDTH 650 0
DWIDTH 13 0
BBX 10 15 1 0
BITMAP
3F00
7F80
E080
C000
C000
E000
7C00
3F00
0380
00C0
00C0
00C0
81C0
FF80
7F00
ENDCHAR
STARTCHAR 0054
ENCODING 84
SWIDTH 600 0
DWIDTH 12 0
BBX 12 15 0 0
BITMAP
FFF0
FFF0
0600
0600
0600
0600
0600
0600
0600
0600
0600
0600
0600
0600
0600
ENDCHAR
STARTCHAR 0055
ENCODING 85
SWIDTH 750 0
DWIDTH 15 0
BBX 11 15 2 0
BITMAP
C060
C060
C060
C060
C060
C060
C060
C060
C060
C060
C060
E0E0
60C0
7FC0
1F00
ENDCHAR
STARTCHAR 0056
ENCODING 86
SWIDTH 700 0
DWIDTH 14 0
BBX 13 15 0 0
BITMAP
C018
6030
6030
6030
3060
3060
3060
18C0
18C0
1DC0
0D80
0D80
0700
0700
0700
ENDCHAR
STARTCHAR 0057
ENCODING 87
SWIDTH 1000 0
DWIDTH 20 0
BBX 18 15 1 0
BITMAP
C1E0C0
C1E0C0
61E180
61E180
633180
633180
333300
333300
361B00
361B00
3E1E00
1E1E00
1E1E00
1C0E00
1C0E00
ENDCHAR
STARTCHAR 0058
ENCODING 88
SWIDTH 700 0
DWIDTH 14 0
BBX 12 15 1 0
BITMAP
7070
3060
38C0
19C0
0D80
0F00
0700
0700
0F00
0F80
1980
38C0
30E0
6060
E070
ENDCHAR
STARTCHAR 0059
ENCODING 89
SWIDTH 600 0
DWIDTH 12 0
BBX 12 15 0 0
BITMAP
E070
6060
30C0
39C0
1980
1F80
0F00
0600
0600
0600
0600
0600
0600
0600
0600
ENDCHAR
STARTCHAR 005A
ENCODING 90
SWIDTH 700 0
DWIDTH 14 0
BBX 12 15 1 0
BITMAP
FFF0
FFF0
0060
00C0
01C0
0380
0700
0600
0C00
1C00
3800
3000
6000
FFF0
FFF0
ENDCHAR
STARTCHAR 005B
ENCODING 91
SWIDTH 400 0
DWIDTH 8 0
BBX 4 18 2 -3
BITMAP
F0
F0
C0
C0
C0
C0
C0
C0
C0
C0
C0
C0
C0
C0
C0
C0
F0
F0
ENDCHAR
STARTCHAR 005C
ENCODING 92
SWIDTH 350 0
DWIDTH 7 0
BBX 7 16 0 -1
BITMAP
C0
E0
60
60
60
30
30
30
18
18
18
0C
0C
0C
0E
06
ENDCHAR
STARTCHAR 005D
ENCODING 93
SWIDTH 400 0
DWIDTH 8 0
BBX 4 18 2 -3
BITMAP
F0
F0
30
30
30
30
30
30
30
30
30
30
30
30
30
30
F0
F0
ENDCHAR
STARTCHAR 005E
ENCODING 94
SWIDTH 850 0
DWIDTH 17 0
BBX 11 5 3 10
BITMAP
0E00
1B00
3180
60C0
C060
ENDCHAR
STARTCHAR 005F
ENCODING 95
SWIDTH 500 0
DWIDTH 10 0
BBX 10 2 0 -5
BITMAP
FFC0
FFC0
ENDCHAR
STARTCHAR 0060
ENCODING 96
SWIDTH 500 0
DWIDTH 10 0
BBX 5 4 1 12
BITMAP
C0
60
30
18
ENDCHAR
STARTCHAR 0061
ENCODING 97
SWIDTH 600 0
DWIDTH 12 0
BBX 9 11 1 0
BITMAP
3E00
7F00
4380
0180
3F80
7F80
C180
C180
C380
FF80
7D80
ENDCHAR
STARTCHAR 0062
ENCODING 98
SWIDTH 650 0
DWIDTH 13 0
BBX 10 15 2 0
BITMAP
C000
C000
C000
C000
DF00
FF80
E180
C0C0
C0C0
C0C0
C0C0
C0C0
E180
FF80
DF00
ENDCHAR
STARTCHAR 0063
ENCODING 99
SWIDTH 550 0
DWIDTH 11 0
BBX 9 11 1 0
BITMAP
1F00
7F80
7080
E000
C000
C000
C000
E000
7080
3F80
1F00
ENDCHAR
STARTCHAR 0064
ENCODING 100
SWIDTH 650 0
DWIDTH 13 0
BBX 10 15 1 0
BITMAP
00C0
00C0
00C0
00C0
3EC0
7FC0
61C0
C0C0
C0C0
C0C0
C0C0
C0C0
61C0
7FC0
3EC0
ENDCHAR
STARTCHAR 0065
ENCODING 101
SWIDTH 600 0
DWIDTH 12 0
BBX 10 11 1 0
BITMAP
1F00
7F80
61C0
C0C0
FFC0
FFC0
C000
C000
7040
3FC0
1F80
ENDCHAR
STARTCHAR 0066
ENCODING 102
SWIDTH 350 0
DWIDTH 7 0
BBX 7 15 0 0
BITMAP
1E
3E
30
30
FE
FE
30
30
30
30
30
30
30
30
30
ENDCHAR
STARTCHAR 0067
ENCODING 103
SWIDTH 650 0
DWIDTH 13 0
BBX 10 15 1 -4
BITMAP
3EC0
7FC0
61C0
C0C0
C0C0
C0C0
C0C0
C0C0
61C0
7FC0
3EC0
00C0
4180
7F80
3E00
ENDCHAR
STARTCHAR 0068
ENCODING 104
SWIDTH 650 0
DWIDTH 13 0
BBX 9 15 2 0
BITMAP
C000
C000
C000
C000
DE00
FF00
E380
C180
C180
C180
C180
C180
C180
C180
C180
ENDCHAR
STARTCHAR 0069
ENCODING 105
SWIDTH 300 0
DWIDTH 6 0
BBX 2 15 2 0
BITMAP
C0
C0
00
00
C0
C0
C0
C0
C0
C0
C0
C0
C0
C0
C0
ENDCHAR
STARTCHAR 006A
ENCODING 106
SWIDTH 300 0
DWIDTH 6 0
BBX 4 19 0 -4
BITMAP
30
30
00
00
30
30
30
30
30
30
30
30
30
30
30
30
30
E0
E0
ENDCHAR
STARTCHAR 006B
ENCODING 107
SWIDTH 600 0
DWIDTH 12 0
BBX 9 15 2 0
BITMAP
C000
C000
C000
C000
C380
C700
CE00
DC00
F800
F000
F800
DC00
CE00
C700
C380
ENDCHAR
STARTCHAR 006C
ENCODING 108
SWIDTH 300 0
DWIDTH 6 0
BBX 2 15 2 0
BITMAP
C0
C0
C0
C0
C0
C0
C0
C0
C0
C0
C0
C0
C0
C0
C0
ENDCHAR
STARTCHAR 006D
ENCODING 109
SWIDTH 1000 0
DWIDTH 20 0
BBX 16 11 2 0
BITMAP
DE3C
FF7E
E3C7
C183
C183
C183
C183
C183
C183
C183
C183
ENDCHAR
STARTCHAR 006E
ENCODING 110
SWIDTH 650 0
DWIDTH 13 0
BBX 9 11 2 0
BITMAP
DE00
FF00
E380
C180
C180
C180
C180
C180
C180
C180
C180
ENDCHAR
STARTCHAR 006F
ENCODING 111
SWIDTH 600 0
DWIDTH 12 0
BBX 10 11 1 0
BITMAP
1E00
7F80
6180
C0C0
C0C0
C0C0
C0C0
C0C0
6180
7F80
1E00
ENDCHAR
STARTCHAR 0070
ENCODING 112
SWIDTH 650 0
DWIDTH 13 0
BBX 10 15 2 -4
BITMAP
DF00
FF80
E180
C0C0
C0C0
C0C0
C0C0
C0C0
E180
FF80
DF00
C000
C000
C000
C000
ENDCHAR
STARTCHAR 0071
ENCODING 113
SWIDTH 650 0
DWIDTH 13 0
BBX 10 15 1 -4
BITMAP
3EC0
7FC0
61C0
C0C0
C0C0
C0C0
C0C0
C0C0
61C0
7FC0
3EC0
00C0
00C0
00C0
00C0
ENDCHAR
STARTCHAR 0072
ENCODING 114
SWIDTH 400 0
DWIDTH 8 0
BBX 6 11 2 0
BITMAP
DC
FC
E0
C0
C0
C0
C0
C0
C0
C0
C0
ENDCHAR
STARTCHAR 0073
ENCODING 115
SWIDTH 500 0
DWIDTH 10 0
BBX 8 11 1 0
BITMAP
3E
FF
C1
C0
FC
3E
07
03
83
FF
7C
ENDCHAR
STARTCHAR 0074
ENCODING 116
SWIDTH 400 0
DWIDTH 8 0
BBX 7 14 1 0
BITMAP
60
60
60
FE
FE
60
60
60
60
60
60
60
7E
3E
ENDCHAR
STARTCHAR 0075
ENCODING 117
SWIDTH 650 0
DWIDTH 13 0
BBX 9 11 2 0
BITMAP
C180
C180
C180
C180
C180
C180
C180
C180
E380
7F80
3D80
ENDCHAR
STARTCHAR 0076
ENCODING 118
SWIDTH 550 0
DWIDTH 11 0
BBX 11 11 0 0
BITMAP
C060
60C0
60C0
60C0
3180
3180
1B00
1B00
1B00
0E00
0E00
ENDCHAR
STARTCHAR 0077
ENCODING 119
SWIDTH 850 0
DWIDTH 17 0
BBX 15 11 1 0
BITMAP
C386
C386
628C
66CC
66CC
66CC
3458
3C78
3C78
1830
1830
ENDCHAR
STARTCHAR 0078
ENCODING 120
SWIDTH 550 0
DWIDTH 11 0
BBX 11 11 0 0
BITMAP
E0E0
71C0
3B80
1B00
0E00
0E00
1F00
1B00
3180
71C0
E0E0
ENDCHAR
STARTCHAR 0079
ENCODING 121
SWIDTH 550 0
DWIDTH 11 0
BBX 11 15 0 -4
BITMAP
C060
60C0
60C0
7180
3180
3B80
1B00
1B00
0E00
0E00
0C00
0C00
1C00
7800
7000
ENDCHAR
STARTCHAR 007A
ENCODING 122
SWIDTH 550 0
DWIDTH 11 0
BBX 9 11 1 0
BITMAP
FF80
FF80
0300
0600
0E00
1C00
3800
3000
7000
FF80
FF80
ENDCHAR
STARTCHAR 007B
ENCODING 123
SWIDTH 650 0
DWIDTH 13 0
BBX 8 18 3 -3
BITMAP
0F
1F
18
18
18
18
18
18
F0
F0
38
18
18
18
18
18
1F
0F
ENDCHAR
STARTCHAR 007C
ENCODING 124
SWIDTH 350 0
DWIDTH 7 0
BBX 2 20 3 -5
BITMAP
C0
C0
C0
C0
C0
C0
C0
C0
C0
C0
C0
C0
C0
C0
C0
C0
C0
C0
C0
C0
ENDCHAR
STARTCHAR 007D
ENCODING 125
SWIDTH 650 0
DWIDTH 13 0
BBX 8 18 2 -3
BITMAP
F0
F8
18
18
18
18
18
18
0F
0F
1C
18
18
18
18
18
F8
F0
ENDCHAR
STARTCHAR 007E
ENCODING 126
SWIDTH 850 0
DWIDTH 17 0
BBX 13 3 2 5
BITMAP
3E08
FFF8
C3E0
ENDCHAR
STARTCHAR 00A0
ENCODING 160
SWIDTH 300 0
DWIDTH 6 0
BBX 0 0 0 0
BITMAP
ENDCHAR
STARTCHAR 00A1
ENCODING 161
SWIDTH 400 0
DWIDTH 8 0
BBX 2 15 3 0
BITMAP
C0
C0
00
00
C0
C0
C0
C0
C0
C0
C0
C0
C0
C0
C0
ENDCHAR
STARTCHAR 00A2
ENCODING 162
SWIDTH 650 0
DWIDTH 13 0
BBX 9 17 2 -3
BITMAP
0400
0400
0400
1F00
7F80
6480
C400
C400
C400
C400
E400
7480
7F80
1F00
0400
0400
0400
ENDCHAR
STARTCHAR 00A3
ENCODING 163
SWIDTH 650 0
DWIDTH 13 0
BBX 9 15 2 0
BITMAP
0F00
1F80
3880
3000
3000
3000
3000
FF00
FF00
3000
3000
3000
3000
FF80
FF80
ENDCHAR
STARTCHAR 00A4
ENCODING 164
SWIDTH 650 0
DWIDTH 13 0
BBX 10 10 1 2
BITMAP
80C0
6D80
7F80
3300
6180
6180
3300
7F80
6D80
8040
ENDCHAR
STARTCHAR 00A5
ENCODING 165
SWIDTH 650 0
DWIDTH 13 0
BBX 12 15 0 0
BITMAP
E070
6060
70E0
30C0
1980
1980
7FE0
0F00
0600
7FE0
0600
0600
0600
0600
0600
ENDCHAR
STARTCHAR 00A6
ENCODING 166
SWIDTH 350 0
DWIDTH 7 0
BBX 2 17 3 -3
BITMAP
C0
C0
C0
C0
C0
C0
C0
00
00
00
C0
C0
C0
C0
C0
C0
C0
ENDCHAR
STARTCHAR 00A7
ENCODING 167
SWIDTH 500 0
DWIDTH 10 0
BBX 8 17 1 -2
BITMAP
3E
7E
60
60
30
78
CE
C7
C3
63
36
1C
0C
06
06
7E
7C
ENDCHAR
STARTCHAR 00A8
ENCODING 168
SWIDTH 500 0
DWIDTH 10 0
BBX 6 2 2 13
BITMAP
CC
CC
ENDCHAR
STARTCHAR 00A9
ENCODING 169
SWIDTH 1000 0
DWIDTH 20 0
BBX 14 15 3 0
BITMAP
0FC0
1860
2010
4788
4C48
9804
9804
9804
9804
9804
4C48
4788
2010
1860
0FC0
ENDCHAR
STARTCHAR 00AA
ENCODING 170
SWIDTH 450 0
DWIDTH 9 0
BBX 8 10 1 5
BITMAP
7E
03
01
7F
C1
81
C3
7D
00
FF
ENDCHAR
STARTCHAR 00AB
ENCODING 171
SWIDTH 600 0
DWIDTH 12 0
BBX 10 9 2 1
BITMAP
0840
18C0
3180
4200
8400
4200
3180
18C0
0840
ENDCHAR
STARTCHAR 00AC
ENCODING 172
SWIDTH 850 0
DWIDTH 17 0
BBX 13 6 2 2
BITMAP
FFF8
FFF8
0018
0018
0018
0018
ENDCHAR
STARTCHAR 00AD
ENCODING 173
SWIDTH 350 0
DWIDTH 7 0
BBX 5 2 1 5
BITMAP
F8
F8
ENDCHAR
STARTCHAR 00AE
ENCODING 174
SWIDTH 1000 0
DWIDTH 20 0
BBX 15 15 3 0
BITMAP
07C0
1830
2008
4FC4
4C64
8C62
8C62
8FC2
8C82
8CC2
4C64
4C34
2008
1830
07C0
ENDCHAR
STARTCHAR 00AF
ENCODING 175
SWIDTH 500 0
DWIDTH 10 0
BBX 6 2 2 13
BITMAP
FC
FC
ENDCHAR
STARTCHAR 00B0
ENCODING 176
SWIDTH 500 0
DWIDTH 10 0
BBX 6 6 2 9
BITMAP
78
CC
84
84
CC
78
ENDCHAR
STARTCHAR 00B1
ENCODING 177
SWIDTH 850 0
DWIDTH 17 0
BBX 12 13 3 0
BITMAP
0600
0600
0600
0600
FFF0
FFF0
0600
0600
0600
0600
0000
FFF0
FFF0
ENDCHAR
STARTCHAR 00B2
ENCODING 178
SWIDTH 400 0
DWIDTH 8 0
BBX 6 8 1 7
BITMAP
78
84
04
08
18
30
40
FC
ENDCHAR
STARTCHAR 00B3
ENCODING 179
SWIDTH 400 0
DWIDTH 8 0
BBX 6 8 1 7
BITMAP
F8
04
04
38
04
04
04
F8
ENDCHAR
STARTCHAR 00B4
ENCODING 180
SWIDTH 500 0
DWIDTH 10 0
BBX 5 4 3 12
BITMAP
18
30
60
C0
ENDCHAR
STARTCHAR 00B5
ENCODING 181
SWIDTH 650 0
DWIDTH 13 0
BBX 10 15 2 -4
BITMAP
C180
C180
C180
C180
C180
C180
C180
C180
E380
FFC0
DCC0
C000
C000
C000
C000
ENDCHAR
STARTCHAR 00B6
ENCODING 182
SWIDTH 650 0
DWIDTH 13 0
BBX 9 17 2 -2
BITMAP
3F80
7C80
FC80
FC80
FC80
FC80
7C80
3C80
0480
0480
0480
0480
0480
0480
0480
0480
0480
ENDCHAR
STARTCHAR 00B7
ENCODING 183
SWIDTH 300 0
DWIDTH 6 0
BBX 2 2 2 6
BITMAP
C0
C0
ENDCHAR
STARTCHAR 00B8
ENCODING 184
SWIDTH 500 0
DWIDTH 10 0
BBX 4 4 3 -4
BITMAP
20
30
30
E0
ENDCHAR
STARTCHAR 00B9
ENCODING 185
SWIDTH 400 0
DWIDTH 8 0
BBX 5 8 2 7
BITMAP
E0
20
20
20
20
20
20
F8
ENDCHAR
STARTCHAR 00BA
ENCODING 186
SWIDTH 450 0
DWIDTH 9 0
BBX 8 10 1 5
BITMAP
3C
42
81
81
81
81
42
3C
00
FF
ENDCHAR
STARTCHAR 00BB
ENCODING 187
SWIDTH 600 0
DWIDTH 12 0
BBX 10 9 2 1
BITMAP
8400
C600
6300
1080
0840
1080
6300
C600
8400
ENDCHAR
STARTCHAR 00BC
ENCODING 188
SWIDTH 950 0
DWIDTH 19 0
BBX 16 15 2 0
BITMAP
E018
2010
2020
2020
2040
2080
2080
F902
0206
020A
0412
0822
083F
1002
3002
ENDCHAR
STARTCHAR 00BD
ENCODING 189
SWIDTH 950 0
DWIDTH 19 0
BBX 16 15 2 0
BITMAP
E018
2010
2020
2020
2040
2080
2080
F91E
0221
0201
0402
0806
080C
1010
303F
ENDCHAR
STARTCHAR 00BE
ENCODING 190
SWIDTH 950 0
DWIDTH 19 0
BBX 17 15 1 0
BITMAP
F80C00
040800
041000
381000
042000
044000
044000
F88100
010300
010500
020900
041100
041F80
080100
180100
ENDCHAR
STARTCHAR 00BF
ENCODING 191
SWIDTH 550 0
DWIDTH 11 0
BBX 8 15 1 0
BITMAP
0C
0C
00
0C
0C
0C
1C
38
70
60
C0
C0
E1
7F
3E
ENDCHAR
STARTCHAR 00C0
ENCODING 192
SWIDTH 700 0
DWIDTH 14 0
BBX 13 19 0 0
BITMAP
0600
0300
0100
0000
0700
0700
0700
0D80
0D80
1DC0
18C0
18C0
3060
3060
3FE0
7FF0
6030
6030
C018
ENDCHAR
STARTCHAR 00C1
ENCODING 193
SWIDTH 700 0
DWIDTH 14 0
BBX 13 19 0 0
BITMAP
0080
0180
0300
0000
0700
0700
0700
0D80
0D80
1DC0
18C0
18C0
3060
3060
3FE0
7FF0
6030
6030
C018
ENDCHAR
STARTCHAR 00C2
ENCODING 194
SWIDTH 700 0
DWIDTH 14 0
BBX 13 19 0 0
BITMAP
0700
0500
0880
0000
0700
0700
0700
0D80
0D80
1DC0
18C0
18C0
3060
3060
3FE0
7FF0
6030
6030
C018
ENDCHAR
STARTCHAR 00C3
ENCODING 195
SWIDTH 700 0
DWIDTH 14 0
BBX 13 18 0 0
BITMAP
0E80
0B80
0000
0700
0700
0700
0D80
0D80
1DC0
18C0
18C0
3060
3060
3FE0
7FF0
6030
6030
C018
ENDCHAR
STARTCHAR 00C4
ENCODING 196
SWIDTH 700 0
DWIDTH 14 0
BBX 13 19 0 0
BITMAP
0D80
0D80
0000
0000
0700
0700
0700
0D80
0D80
1DC0
18C0
18C0
3060
3060
3FE0
7FF0
6030
6030
C018
ENDCHAR
STARTCHAR 00C5
ENCODING 197
SWIDTH 700 0
DWIDTH 14 0
BBX 13 19 0 0
BITMAP
0700
0880
0880
0880
0700
0700
0F80
0D80
0D80
18C0
18C0
18C0
3060
3060
3FE0
7FF0
6030
6030
C018
ENDCHAR
STARTCHAR 00C6
ENCODING 198
SWIDTH 1000 0
DWIDTH 20 0
BBX 18 15 0 0
BITMAP
03FFC0
03FFC0
066000
066000
0E6000
0C6000
0C7FC0
187FC0
186000
306000
3FE000
7FE000
606000
607FC0
C07FC0
ENDCHAR
STARTCHAR 00C7
ENCODING 199
SWIDTH 700 0
DWIDTH 14 0
BBX 12 19 1 -4
BITMAP
0FE0
1FF0
3810
6000
E000
C000
C000
C000
C000
C000
E000
6000
3810
3FF0
0FE0
0100
0180
0180
0700
ENDCHAR
STARTCHAR 00C8
ENCODING 200
SWIDTH 650 0
DWIDTH 13 0
BBX 9 19 2 0
BITMAP
1800
0C00
0400
0000
FF80
FF80
C000
C000
C000
C000
FF80
FF80
C000
C000
C000
C000
C000
FF80
FF80
ENDCHAR
STARTCHAR 00C9
ENCODING 201
SWIDTH 650 0
DWIDTH 13 0
BBX 9 19 2 0
BITMAP
0200
0600
0C00
0000
FF80
FF80
C000
C000
C000
C000
FF80
FF80
C000
C000
C000
C000
C000
FF80
FF80
ENDCHAR
STARTCHAR 00CA
ENCODING 202
SWIDTH 650 0
DWIDTH 13 0
BBX 9 19 2 0
BITMAP
0C00
1E00
3300
0000
FF80
FF80
C000
C000
C000
C000
FF80
FF80
C000
C000
C000
C000
C000
FF80
FF80
ENDCHAR
STARTCHAR 00CB
ENCODING 203
SWIDTH 650 0
DWIDTH 13 0
BBX 9 19 2 0
BITMAP
3300
3300
0000
0000
FF80
FF80
C000
C000
C000
C000
FF80
FF80
C000
C000
C000
C000
C000
FF80
FF80
ENDCHAR
STARTCHAR 00CC
ENCODING 204
SWIDTH 300 0
DWIDTH 6 0
BBX 3 19 1 0
BITMAP
C0
60
20
00
60
60
60
60
60
60
60
60
60
60
60
60
60
60
60
ENDCHAR
STARTCHAR 00CD
ENCODING 205
SWIDTH 300 0
DWIDTH 6 0
BBX 3 19 2 0
BITMAP
20
60
C0
00
C0
C0
C0
C0
C0
C0
C0
C0
C0
C0
C0
C0
C0
C0
C0
ENDCHAR
STARTCHAR 00CE
ENCODING 206
SWIDTH 300 0
DWIDTH 6 0
BBX 6 19 0 0
BITMAP
30
78
CC
00
30
30
30
30
30
30
30
30
30
30
30
30
30
30
30
ENDCHAR
STARTCHAR 00CF
ENCODING 207
SWIDTH 300 0
DWIDTH 6 0
BBX 6 19 0 0
BITMAP
CC
CC
00
00
30
30
30
30
30
30
30
30
30
30
30
30
30
30
30
ENDCHAR
STARTCHAR 00D0
ENCODING 208
SWIDTH 750 0
DWIDTH 15 0
BBX 14 15 0 0
BITMAP
3FC0
3FF0
3078
3018
301C
300C
FE0C
FE0C
300C
300C
301C
3018
3078
3FF0
3FC0
ENDCHAR
STARTCHAR 00D1
ENCODING 209
SWIDTH 750 0
DWIDTH 15 0
BBX 11 18 2 0
BITMAP
1D00
1700
0000
E060
F060
F060
F860
D860
DC60
CC60
CE60
C660
C760
C360
C3E0
C1E0
C0E0
C0E0
ENDCHAR
STARTCHAR 00D2
ENCODING 210
SWIDTH 800 0
DWIDTH 16 0
BBX 14 19 1 0
BITMAP
0600
0300
0100
0000
0FC0
3FF0
3870
6018
E01C
C00C
C00C
C00C
C00C
C00C
E01C
6018
3870
3FF0
0FC0
ENDCHAR
STARTCHAR 00D3
ENCODING 211
SWIDTH 800 0
DWIDTH 16 0
BBX 14 19 1 0
BITMAP
0080
0180
0300
0000
0FC0
3FF0
3870
6018
E01C
C00C
C00C
C00C
C00C
C00C
E01C
6018
3870
3FF0
0FC0
ENDCHAR
STARTCHAR 00D4
ENCODING 212
SWIDTH 800 0
DWIDTH 16 0
BBX 14 19 1 0
BITMAP
0300
0780
0CC0
0000
0FC0
3FF0
3870
6018
E01C
C00C
C00C
C00C
C00C
C00C
E01C
6018
3870
3FF0
0FC0
ENDCHAR
STARTCHAR 00D5
ENCODING 213
SWIDTH 800 0
DWIDTH 16 0
BBX 14 18 1 0
BITMAP
0640
0980
0000
0FC0
3FF0
3870
6018
E01C
C00C
C00C
C00C
C00C
C00C
E01C
6018
3870
3FF0
0FC0
ENDCHAR
STARTCHAR 00D6
ENCODING 214
SWIDTH 800 0
DWIDTH 16 0
BBX 14 19 1 0
BITMAP
0CC0
0CC0
0000
0000
0FC0
3FF0
3870
6018
E01C
C00C
C00C
C00C
C00C
C00C
E01C
6018
3870
3FF0
0FC0
ENDCHAR
STARTCHAR 00D7
ENCODING 215
SWIDTH 850 0
DWIDTH 17 0
BBX 11 11 3 1
BITMAP
4040
E0E0
71C0
3B80
1F00
0E00
1F00
3B80
71C0
E0E0
4040
ENDCHAR
STARTCHAR 00D8
ENCODING 216
SWIDTH 800 0
DWIDTH 16 0
BBX 14 15 1 0
BITMAP
0FC4
3FE8
7878
6038
E078
C0CC
C18C
C30C
C60C
CC0C
781C
7018
7878
5FF0
8FC0
ENDCHAR
STARTCHAR 00D9
ENCODING 217
SWIDTH 750 0
DWIDTH 15 0
BBX 11 19 2 0
BITMAP
1800
0C00
0400
0000
C060
C060
C060
C060
C060
C060
C060
C060
C060
C060
C060
E0E0
60C0
7FC0
1F00
ENDCHAR
STARTCHAR 00DA
ENCODING 218
SWIDTH 750 0
DWIDTH 15 0
BBX 11 19 2 0
BITMAP
0200
0600
0C00
0000
C060
C060
C060
C060
C060
C060
C060
C060
C060
C060
C060
E0E0
60C0
7FC0
1F00
ENDCHAR
STARTCHAR 00DB
ENCODING 219
SWIDTH 750 0
DWIDTH 15 0
BBX 11 19 2 0
BITMAP
0E00
0A00
1100
0000
C060
C060
C060
C060
C060
C060
C060
C060
C060
C060
C060
E0E0
60C0
7FC0
1F00
ENDCHAR
STARTCHAR 00DC
ENCODING 220
SWIDTH 750 0
DWIDTH 15 0
BBX 11 19 2 0
BITMAP
1B00
1B00
0000
0000
C060
C060
C060
C060
C060
C060
C060
C060
C060
C060
C060
E0E0
60C0
7FC0
1F00
ENDCHAR
STARTCHAR 00DD
ENCODING 221
SWIDTH 600 0
DWIDTH 12 0
BBX 12 19 0 0
BITMAP
0100
0300
0600
0000
E070
6060
30C0
39C0
1980
1F80
0F00
0600
0600
0600
0600
0600
0600
0600
0600
ENDCHAR
STARTCHAR 00DE
ENCODING 222
SWIDTH 600 0
DWIDTH 12 0
BBX 9 15 2 0
BITMAP
C000
C000
C000
FE00
FF00
C380
C180
C180
C180
C380
FF00
FE00
C000
C000
C000
ENDCHAR
STARTCHAR 00DF
ENCODING 223
SWIDTH 650 0
DWIDTH 13 0
BBX 10 15 2 0
BITMAP
3E00
7F00
E380
C180
C780
CC00
CC00
CE00
C700
C180
C0C0
C0C0
D1C0
DF80
CF00
ENDCHAR
STARTCHAR 00E0
ENCODING 224
SWIDTH 600 0
DWIDTH 12 0
BBX 9 16 1 0
BITMAP
6000
3000
1800
0C00
0000
3E00
7F00
4380
0180
3F80
7F80
C180
C180
C380
FF80
7D80
ENDCHAR
STARTCHAR 00E1
ENCODING 225
SWIDTH 600 0
DWIDTH 12 0
BBX 9 16 1 0
BITMAP
0300
0600
0C00
1800
0000
3E00
7F00
4380
0180
3F80
7F80
C180
C180
C380
FF80
7D80
ENDCHAR
STARTCHAR 00E2
ENCODING 226
SWIDTH 600 0
DWIDTH 12 0
BBX 9 16 1 0
BITMAP
0800
1400
1400
2200
0000
3E00
7F00
4380
0180
3F80
7F80
C180
C180
C380
FF80
7D80
ENDCHAR
STARTCHAR 00E3
ENCODING 227
SWIDTH 600 0
DWIDTH 12 0
BBX 9 16 1 0
BITMAP
1A00
2A00
2C00
0000
0000
3E00
7F00
4380
0180
3F80
7F80
C180
C180
C380
FF80
7D80
ENDCHAR
STARTCHAR 00E4
ENCODING 228
SWIDTH 600 0
DWIDTH 12 0
BBX 9 15 1 0
BITMAP
3600
3600
0000
0000
3E00
7F00
4380
0180
3F80
7F80
C180
C180
C380
FF80
7D80
ENDCHAR
STARTCHAR 00E5
ENCODING 229
SWIDTH 600 0
DWIDTH 12 0
BBX 9 17 1 0
BITMAP
1C00
2200
2200
2200
1C00
0000
3E00
7F00
4380
0180
3F80
7F80
C180
C180
C380
FF80
7D80
ENDCHAR
STARTCHAR 00E6
ENCODING 230
SWIDTH 950 0
DWIDTH 19 0
BBX 17 11 1 0
BITMAP
3E3E00
7F7F00
43C300
018180
3FFF80
7FFF80
C18000
C18000
C3E080
FEFF80
3C3F00
ENDCHAR
STARTCHAR 00E7
ENCODING 231
SWIDTH 550 0
DWIDTH 11 0
BBX 9 15 1 -4
BITMAP
1F00
7F80
7080
E000
C000
C000
C000
E000
7080
3F80
1F00
0400
0600
0600
1C00
ENDCHAR
STARTCHAR 00E8
ENCODING 232
SWIDTH 600 0
DWIDTH 12 0
BBX 10 16 1 0
BITMAP
6000
3000
1800
0C00
0000
1F00
7F80
61C0
C0C0
FFC0
FFC0
C000
C000
7040
3FC0
1F80
ENDCHAR
STARTCHAR 00E9
ENCODING 233
SWIDTH 600 0
DWIDTH 12 0
BBX 10 16 1 0
BITMAP
0300
0600
0C00
1800
0000
1F00
7F80
61C0
C0C0
FFC0
FFC0
C000
C000
7040
3FC0
1F80
ENDCHAR
STARTCHAR 00EA
ENCODING 234
SWIDTH 600 0
DWIDTH 12 0
BBX 10 16 1 0
BITMAP
0C00
1E00
1200
3300
0000
1F00
7F80
61C0
C0C0
FFC0
FFC0
C000
C000
7040
3FC0
1F80
ENDCHAR
STARTCHAR 00EB
ENCODING 235
SWIDTH 600 0
DWIDTH 12 0
BBX 10 15 1 0
BITMAP
3300
3300
0000
0000
1F00
7F80
61C0
C0C0
FFC0
FFC0
C000
C000
7040
3FC0
1F80
ENDCHAR
STARTCHAR 00EC
ENCODING 236
SWIDTH 300 0
DWIDTH 6 0
BBX 5 16 -1 0
BITMAP
C0
60
30
18
00
18
18
18
18
18
18
18
18
18
18
18
ENDCHAR
STARTCHAR 00ED
ENCODING 237
SWIDTH 300 0
DWIDTH 6 0
BBX 5 16 1 0
BITMAP
18
30
60
C0
00
60
60
60
60
60
60
60
60
60
60
60
ENDCHAR
STARTCHAR 00EE
ENCODING 238
SWIDTH 300 0
DWIDTH 6 0
BBX 6 16 0 0
BITMAP
30
78
48
CC
00
30
30
30
30
30
30
30
30
30
30
30
ENDCHAR
STARTCHAR 00EF
ENCODING 239
SWIDTH 300 0
DWIDTH 6 0
BBX 6 15 0 0
BITMAP
CC
CC
00
00
30
30
30
30
30
30
30
30
30
30
30
ENDCHAR
STARTCHAR 00F0
ENCODING 240
SWIDTH 600 0
DWIDTH 12 0
BBX 10 15 1 0
BITMAP
1080
1F00
7C00
0600
1F00
7F80
6180
C0C0
C0C0
C0C0
C0C0
C0C0
6180
7F80
1E00
ENDCHAR
STARTCHAR 00F1
ENCODING 241
SWIDTH 650 0
DWIDTH 13 0
BBX 9 16 2 0
BITMAP
3200
5A00
4C00
0000
0000
DE00
FF00
E380
C180
C180
C180
C180
C180
C180
C180
C180
ENDCHAR
STARTCHAR 00F2
ENCODING 242
SWIDTH 600 0
DWIDTH 12 0
BBX 10 16 1 0
BITMAP
6000
3000
1800
0C00
0000
1E00
7F80
6180
C0C0
C0C0
C0C0
C0C0
C0C0
6180
7F80
1E00
ENDCHAR
STARTCHAR 00F3
ENCODING 243
SWIDTH 600 0
DWIDTH 12 0
BBX 10 16 1 0
BITMAP
0300
0600
0C00
1800
0000
1E00
7F80
6180
C0C0
C0C0
C0C0
C0C0
C0C0
6180
7F80
1E00
ENDCHAR
STARTCHAR 00F4
ENCODING 244
SWIDTH 600 0
DWIDTH 12 0
BBX 10 16 1 0
BITMAP
0C00
1E00
1200
3300
0000
1E00
7F80
6180
C0C0
C0C0
C0C0
C0C0
C0C0
6180
7F80
1E00
ENDCHAR
STARTCHAR 00F5
ENCODING 245
SWIDTH 600 0
DWIDTH 12 0
BBX 10 16 1 0
BITMAP
1900
2D00
2600
0000
0000
1E00
7F80
6180
C0C0
C0C0
C0C0
C0C0
C0C0
6180
7F80
1E00
ENDCHAR
STARTCHAR 00F6
ENCODING 246
SWIDTH 600 0
DWIDTH 12 0
BBX 10 15 1 0
BITMAP
3300
3300
0000
0000
1E00
7F80
6180
C0C0
C0C0
C0C0
C0C0
C0C0
6180
7F80
1E00
ENDCHAR
STARTCHAR 00F7
ENCODING 247
SWIDTH 850 0
DWIDTH 17 0
BBX 12 10 2 1
BITMAP
0600
0600
0000
0000
FFF0
FFF0
0000
0000
0600
0600
ENDCHAR
STARTCHAR 00F8
ENCODING 248
SWIDTH 600 0
DWIDTH 12 0
BBX 10 13 1 -1
BITMAP
0040
1E40
7F80
6180
C3C0
C6C0
CCC0
D8C0
F0C0
6180
7F80
9E00
8000
ENDCHAR
STARTCHAR 00F9
ENCODING 249
SWIDTH 650 0
DWIDTH 13 0
BBX 9 16 2 0
BITMAP
C000
6000
3000
1800
0000
C180
C180
C180
C180
C180
C180
C180
C180
E380
7F80
3D80
ENDCHAR
STARTCHAR 00FA
ENCODING 250
SWIDTH 650 0
DWIDTH 13 0
BBX 9 16 2 0
BITMAP
0600
0C00
1800
3000
0000
C180
C180
C180
C180
C180
C180
C180
C180
E380
7F80
3D80
ENDCHAR
STARTCHAR 00FB
ENCODING 251
SWIDTH 650 0
DWIDTH 13 0
BBX 9 16 2 0
BITMAP
0800
1400
1400
2200
0000
C180
C180
C180
C180
C180
C180
C180
C180
E380
7F80
3D80
ENDCHAR
STARTCHAR 00FC
ENCODING 252
SWIDTH 650 0
DWIDTH 13 0
BBX 9 15 2 0
BITMAP
3600
3600
0000
0000
C180
C180
C180
C180
C180
C180
C180
C180
E380
7F80
3D80
ENDCHAR
STARTCHAR 00FD
ENCODING 253
SWIDTH 550 0
DWIDTH 11 0
BBX 11 20 0 -4
BITMAP
0180
0300
0600
0C00
0000
C060
60C0
60C0
7180
3180
3B80
1B00
1B00
0E00
0E00
0C00
0C00
1C00
7800
7000
ENDCHAR
STARTCHAR 00FE
ENCODING 254
SWIDTH 650 0
DWIDTH 13 0
BBX 10 19 2 -4
BITMAP
C000
C000
C000
C000
DF00
FF80
E180
C0C0
C0C0
C0C0
C0C0
C0C0
E180
FF80
DF00
C000
C000
C000
C000
ENDCHAR
STARTCHAR 00FF
ENCODING 255
SWIDTH 550 0
DWIDTH 11 0
BBX 11 19 0 -4
BITMAP
1B00
1B00
0000
0000
C060
60C0
60C0
7180
3180
3B80
1B00
1B00
0E00
0E00
0C00
0C00
1C00
7800
7000
ENDCHAR
STARTCHAR 0100
ENCODING 256
SWIDTH 700 0
DWIDTH 14 0
BBX 13 18 0 0
BITMAP
0F80
0F80
0000
0700
0700
0700
0D80
0D80
1DC0
18C0
18C0
3060
3060
3FE0
7FF0
6030
6030
C018
ENDCHAR
STARTCHAR 0101
ENCODING 257
SWIDTH 600 0
DWIDTH 12 0
BBX 9 15 1 0
BITMAP
3E00
3E00
0000
0000
3E00
7F00
4380
0180
3F80
7F80
C180
C180
C380
FF80
7D80
ENDCHAR
STARTCHAR 0102
ENCODING 258
SWIDTH 700 0
DWIDTH 14 0
BBX 13 19 0 0
BITMAP
0880
0F80
0700
0000
0700
0700
0700
0D80
0D80
1DC0
18C0
18C0
3060
3060
3FE0
7FF0
6030
6030
C018
ENDCHAR
STARTCHAR 0103
ENCODING 259
SWIDTH 600 0
DWIDTH 12 0
BBX 9 16 1 0
BITMAP
2200
3E00
1C00
0000
0000
3E00
7F00
4380
0180
3F80
7F80
C180
C180
C380
FF80
7D80
ENDCHAR
STARTCHAR 0104
ENCODING 260
SWIDTH 700 0
DWIDTH 14 0
BBX 14 19 0 -4
BITMAP
0700
0700
0700
0D80
0D80
1DC0
18C0
18C0
3060
3060
3FE0
7FF0
6030
6030
C018
0010
0030
0030
001C
ENDCHAR
STARTCHAR 0105
ENCODING 261
SWIDTH 600 0
DWIDTH 12 0
BBX 10 15 1 -4
BITMAP
3E00
7F00
4380
0180
3F80
7F80
C180
C180
C380
FF80
7D80
0100
0300
0300
01C0
ENDCHAR
STARTCHAR 0106
ENCODING 262
SWIDTH 700 0
DWIDTH 14 0
BBX 12 19 1 0
BITMAP
0080
0180
0300
0000
0FE0
1FF0
3810
6000
E000
C000
C000
C000
C000
C000
E000
6000
3810
3FF0
0FE0
ENDCHAR
STARTCHAR 0107
ENCODING 263
SWIDTH 550 0
DWIDTH 11 0
BBX 9 16 1 0
BITMAP
0300
0600
0C00
1800
0000
1F00
7F80
7080
E000
C000
C000
C000
E000
7080
3F80
1F00
ENDCHAR
STARTCHAR 0108
ENCODING 264
SWIDTH 700 0
DWIDTH 14 0
BBX 12 19 1 0
BITMAP
0380
0280
0440
0000
0FE0
1FF0
3810
6000
E000
C000
C000
C000
C000
C000
E000
6000
3810
3FF0
0FE0
ENDCHAR
STARTCHAR 0109
ENCODING 265
SWIDTH 550 0
DWIDTH 11 0
BBX 9 16 1 0
BITMAP
0600
0F00
0900
1980
0000
1F00
7F80
7080
E000
C000
C000
C000
E000
7080
3F80
1F00
ENDCHAR
STARTCHAR 010A
ENCODING 266
SWIDTH 700 0
DWIDTH 14 0
BBX 12 19 1 0
BITMAP
0300
0300
0000
0000
0FE0
1FF0
3810
6000
E000
C000
C000
C000
C000
C000
E000
6000
3810
3FF0
0FE0
ENDCHAR
STARTCHAR 010B
ENCODING 267
SWIDTH 550 0
DWIDTH 11 0
BBX 9 15 1 0
BITMAP
0600
0600
0000
0000
1F00
7F80
7080
E000
C000
C000
C000
E000
7080
3F80
1F00
ENDCHAR
STARTCHAR 010C
ENCODING 268
SWIDTH 700 0
DWIDTH 14 0
BBX 12 19 1 0
BITMAP
0CC0
0780
0300
0000
0FE0
1FF0
3810
6000
E000
C000
C000
C000
C000
C000
E000
6000
3810
3FF0
0FE0
ENDCHAR
STARTCHAR 010D
ENCODING 269
SWIDTH 550 0
DWIDTH 11 0
BBX 9 16 1 0
BITMAP
3300
1200
1E00
0C00
0000
1F00
7F80
7080
E000
C000
C000
C000
E000
7080
3F80
1F00
ENDCHAR
STARTCHAR 010E
ENCODING 270
SWIDTH 750 0
DWIDTH 15 0
BBX 12 19 2 0
BITMAP
3300
1E00
0C00
0000
FF00
FFC0
C1E0
C060
C070
C030
C030
C030
C030
C030
C070
C060
C1E0
FFC0
FF00
ENDCHAR
STARTCHAR 010F
ENCODING 271
SWIDTH 650 0
DWIDTH 13 0
BBX 14 16 1 0
BITMAP
000C
00CC
00C8
00D8
00C0
3EC0
7FC0
61C0
C0C0
C0C0
C0C0
C0C0
C0C0
61C0
7FC0
3EC0
ENDCHAR
STARTCHAR 0110
ENCODING 272
SWIDTH 800 0
DWIDTH 16 0
BBX 14 15 0 0
BITMAP
3FC0
3FF0
3078
3018
301C
300C
FE0C
FE0C
300C
300C
301C
3018
3078
3FF0
3FC0
ENDCHAR
STARTCHAR 0111
ENCODING 273
SWIDTH 650 0
DWIDTH 13 0
BBX 12 15 1 0
BITMAP
00C0
00C0
07F0
00C0
3EC0
7FC0
61C0
C0C0
C0C0
C0C0
C0C0
C0C0
61C0
7FC0
3EC0
ENDCHAR
STARTCHAR 0112
ENCODING 274
SWIDTH 650 0
DWIDTH 13 0
BBX 9 18 2 0
BITMAP
3F00
3F00
0000
FF80
FF80
C000
C000
C000
C000
FF80
FF80
C000
C000
C000
C000
C000
FF80
FF80
ENDCHAR
STARTCHAR 0113
ENCODING 275
SWIDTH 600 0
DWIDTH 12 0
BBX 10 15 1 0
BITMAP
3F00
3F00
0000
0000
1F00
7F80
61C0
C0C0
FFC0
FFC0
C000
C000
7040
3FC0
1F80
ENDCHAR
STARTCHAR 0114
ENCODING 276
SWIDTH 650 0
DWIDTH 13 0
BBX 9 18 2 0
BITMAP
2100
1E00
0000
FF80
FF80
C000
C000
C000
C000
FF80
FF80
C000
C000
C000
C000
C000
FF80
FF80
ENDCHAR
STARTCHAR 0115
ENCODING 277
SWIDTH 600 0
DWIDTH 12 0
BBX 10 16 1 0
BITMAP
2100
3F00
1E00
0000
0000
1F00
7F80
61C0
C0C0
FFC0
FFC0
C000
C000
7040
3FC0
1F80
ENDCHAR
STARTCHAR 0116
ENCODING 278
SWIDTH 650 0
DWIDTH 13 0
BBX 9 19 2 0
BITMAP
0C00
0C00
0000
0000
FF80
FF80
C000
C000
C000
C000
FF80
FF80
C000
C000
C000
C000
C000
FF80
FF80
ENDCHAR
STARTCHAR 0117
ENCODING 279
SWIDTH 600 0
DWIDTH 12 0
BBX 10 15 1 0
BITMAP
0C00
0C00
0000
0000
1F00
7F80
61C0
C0C0
FFC0
FFC0
C000
C000
7040
3FC0
1F80
ENDCHAR
STARTCHAR 0118
ENCODING 280
SWIDTH 650 0
DWIDTH 13 0
BBX 10 19 2 -4
BITMAP
FF80
FF80
C000
C000
C000
C000
FF80
FF80
C000
C000
C000
C000
C000
FF80
FF80
0100
0300
0300
01C0
ENDCHAR
STARTCHAR 0119
ENCODING 281
SWIDTH 600 0
DWIDTH 12 0
BBX 10 15 1 -4
BITMAP
1F00
7F80
61C0
C0C0
FFC0
FFC0
C000
C000
7040
3FC0
1F80
0100
0300
0300
01C0
ENDCHAR
STARTCHAR 011A
ENCODING 282
SWIDTH 650 0
DWIDTH 13 0
BBX 9 19 2 0
BITMAP
3300
1E00
0C00
0000
FF80
FF80
C000
C000
C000
C000
FF80
FF80
C000
C000
C000
C000
C000
FF80
FF80
ENDCHAR
STARTCHAR 011B
ENCODING 283
SWIDTH 600 0
DWIDTH 12 0
BBX 10 16 1 0
BITMAP
3300
1200
1E00
0C00
0000
1F00
7F80
61C0
C0C0
FFC0
FFC0
C000
C000
7040
3FC0
1F80
ENDCHAR
STARTCHAR 011C
ENCODING 284
SWIDTH 800 0
DWIDTH 16 0
BBX 13 19 1 0
BITMAP
0300
0780
0CC0
0000
0FE0
3FF0
7810
6000
E000
C000
C000
C0F8
C0F8
C018
E018
6018
3818
1FF0
0FC0
ENDCHAR
STARTCHAR 011D
ENCODING 285
SWIDTH 650 0
DWIDTH 13 0
BBX 10 20 1 -4
BITMAP
0C00
1E00
1200
3300
0000
3EC0
7FC0
61C0
C0C0
C0C0
C0C0
C0C0
C0C0
61C0
7FC0
3EC0
00C0
4180
7F80
3E00
ENDCHAR
STARTCHAR 011E
ENCODING 286
SWIDTH 800 0
DWIDTH 16 0
BBX 13 18 1 0
BITMAP
0840
0780
0000
0FE0
3FF0
7810
6000
E000
C000
C000
C0F8
C0F8
C018
E018
6018
3818
1FF0
0FC0
ENDCHAR
STARTCHAR 011F
ENCODING 287
SWIDTH 650 0
DWIDTH 13 0
BBX 10 20 1 -4
BITMAP
2100
3F00
1E00
0000
0000
3EC0
7FC0
61C0
C0C0
C0C0
C0C0
C0C0
C0C0
61C0
7FC0
3EC0
00C0
4180
7F80
3E00
ENDCHAR
STARTCHAR 0120
ENCODING 288
SWIDTH 800 0
DWIDTH 16 0
BBX 13 19 1 0
BITMAP
0300
0300
0000
0000
0FE0
3FF0
7810
6000
E000
C000
C000
C0F8
C0F8
C018
E018
6018
3818
1FF0
0FC0
ENDCHAR
STARTCHAR 0121
ENCODING 289
SWIDTH 650 0
DWIDTH 13 0
BBX 10 19 1 -4
BITMAP
0C00
0C00
0000
0000
3EC0
7FC0
61C0
C0C0
C0C0
C0C0
C0C0
C0C0
61C0
7FC0
3EC0
00C0
4180
7F80
3E00
ENDCHAR
STARTCHAR 0122
ENCODING 290
SWIDTH 800 0
DWIDTH 16 0
BBX 13 20 1 -5
BITMAP
0FE0
3FF0
7810
6000
E000
C000
C000
C0F8
C0F8
C018
E018
6018
3818
1FF0
0FC0
0000
0000
0300
0300
0200
ENDCHAR
STARTCHAR 0123
ENCODING 291
SWIDTH 650 0
DWIDTH 13 0
BBX 10 20 1 -4
BITMAP
0200
0600
0400
0000
0000
3EC0
7FC0
61C0
C0C0
C0C0
C0C0
C0C0
C0C0
61C0
7FC0
3EC0
00C0
4180
7F80
3E00
ENDCHAR
STARTCHAR 0124
ENCODING 292
SWIDTH 750 0
DWIDTH 15 0
BBX 11 19 2 0
BITMAP
0E00
0A00
1100
0000
C060
C060
C060
C060
C060
C060
FFE0
FFE0
C060
C060
C060
C060
C060
C060
C060
ENDCHAR
STARTCHAR 0125
ENCODING 293
SWIDTH 650 0
DWIDTH 13 0
BBX 11 19 0 0
BITMAP
3000
7800
CC00
0000
3000
3000
3000
3000
3780
3FC0
38E0
3060
3060
3060
3060
3060
3060
3060
3060
ENDCHAR
STARTCHAR 0126
ENCODING 294
SWIDTH 900 0
DWIDTH 18 0
BBX 15 15 2 0
BITMAP
3018
3018
FFFE
FFFE
3018
3018
3FF8
3FF8
3018
3018
3018
3018
3018
3018
3018
ENDCHAR
STARTCHAR 0127
ENCODING 295
SWIDTH 700 0
DWIDTH 14 0
BBX 10 15 1 0
BITMAP
6000
FC00
FC00
6000
6F00
7F80
71C0
60C0
60C0
60C0
60C0
60C0
60C0
60C0
60C0
ENDCHAR
STARTCHAR 0128
ENCODING 296
SWIDTH 300 0
DWIDTH 6 0
BBX 6 18 0 0
BITMAP
64
98
00
30
30
30
30
30
30
30
30
30
30
30
30
30
30
30
ENDCHAR
STARTCHAR 0129
ENCODING 297
SWIDTH 300 0
DWIDTH 6 0
BBX 6 16 0 0
BITMAP
64
B4
98
00
00
30
30
30
30
30
30
30
30
30
30
30
ENDCHAR
STARTCHAR 012A
ENCODING 298
SWIDTH 300 0
DWIDTH 6 0
BBX 6 18 0 0
BITMAP
FC
FC
00
30
30
30
30
30
30
30
30
30
30
30
30
30
30
30
ENDCHAR
STARTCHAR 012B
ENCODING 299
SWIDTH 300 0
DWIDTH 6 0
BBX 6 15 0 0
BITMAP
FC
FC
00
00
30
30
30
30
30
30
30
30
30
30
30
ENDCHAR
STARTCHAR 012C
ENCODING 300
SWIDTH 300 0
DWIDTH 6 0
BBX 6 18 0 0
BITMAP
84
78
00
30
30
30
30
30
30
30
30
30
30
30
30
30
30
30
ENDCHAR
STARTCHAR 012D
ENCODING 301
SWIDTH 300 0
DWIDTH 6 0
BBX 6 16 0 0
BITMAP
84
FC
78
00
00
30
30
30
30
30
30
30
30
30
30
30
ENDCHAR
STARTCHAR 012E
ENCODING 302
SWIDTH 300 0
DWIDTH 6 0
BBX 4 19 1 -4
BITMAP
60
60
60
60
60
60
60
60
60
60
60
60
60
60
60
40
C0
C0
70
ENDCHAR
STARTCHAR 012F
ENCODING 303
SWIDTH 300 0
DWIDTH 6 0
BBX 4 19 1 -4
BITMAP
60
60
00
00
60
60
60
60
60
60
60
60
60
60
60
40
C0
C0
70
ENDCHAR
STARTCHAR 0130
ENCODING 304
SWIDTH 300 0
DWIDTH 6 0
BBX 2 19 2 0
BITMAP
C0
C0
00
00
C0
C0
C0
C0
C0
C0
C0
C0
C0
C0
C0
C0
C0
C0
C0
ENDCHAR
STARTCHAR 0131
ENCODING 305
SWIDTH 300 0
DWIDTH 6 0
BBX 2 11 2 0
BITMAP
C0
C0
C0
C0
C0
C0
C0
C0
C0
C0
C0
ENDCHAR
STARTCHAR 0132
ENCODING 306
SWIDTH 600 0
DWIDTH 12 0
BBX 8 19 2 -4
BITMAP
C3
C3
C3
C3
C3
C3
C3
C3
C3
C3
C3
C3
C3
C3
C3
03
07
1E
1C
ENDCHAR
STARTCHAR 0133
ENCODING 307
SWIDTH 600 0
DWIDTH 12 0
BBX 8 19 2 -4
BITMAP
C3
C3
00
00
C3
C3
C3
C3
C3
C3
C3
C3
C3
C3
C3
03
03
0E
0E
ENDCHAR
STARTCHAR 0134
ENCODING 308
SWIDTH 300 0
DWIDTH 6 0
BBX 7 23 -1 -4
BITMAP
18
3C
66
00
18
18
18
18
18
18
18
18
18
18
18
18
18
18
18
18
38
F0
E0
ENDCHAR
STARTCHAR 0135
ENCODING 309
SWIDTH 300 0
DWIDTH 6 0
BBX 6 20 0 -4
BITMAP
30
78
48
CC
00
30
30
30
30
30
30
30
30
30
30
30
30
30
E0
E0
ENDCHAR
STARTCHAR 0136
ENCODING 310
SWIDTH 650 0
DWIDTH 13 0
BBX 11 20 2 -5
BITMAP
C1C0
C380
C700
CE00
DC00
F800
F000
F000
F800
DC00
CE00
C700
C380
C1C0
C0E0
0000
0000
0600
0600
0400
ENDCHAR
STARTCHAR 0137
ENCODING 311
SWIDTH 600 0
DWIDTH 12 0
BBX 9 20 2 -5
BITMAP
C000
C000
C000
C000
C380
C700
CE00
DC00
F800
F000
F800
DC00
CE00
C700
C380
0000
0000
0C00
0C00
0800
ENDCHAR
STARTCHAR 0138
ENCODING 312
SWIDTH 600 0
DWIDTH 12 0
BBX 9 11 2 0
BITMAP
C380
C700
CE00
DC00
F800
F000
F800
DC00
CE00
C700
C380
ENDCHAR
STARTCHAR 0139
ENCODING 313
SWIDTH 550 0
DWIDTH 11 0
BBX 9 19 2 0
BITMAP
1000
3000
6000
0000
C000
C000
C000
C000
C000
C000
C000
C000
C000
C000
C000
C000
C000
FF80
FF80
ENDCHAR
STARTCHAR 013A
ENCODING 314
SWIDTH 300 0
DWIDTH 6 0
BBX 3 19 2 0
BITMAP
20
60
C0
00
C0
C0
C0
C0
C0
C0
C0
C0
C0
C0
C0
C0
C0
C0
C0
ENDCHAR
STARTCHAR 013B
ENCODING 315
SWIDTH 550 0
DWIDTH 11 0
BBX 9 20 2 -5
BITMAP
C000
C000
C000
C000
C000
C000
C000
C000
C000
C000
C000
C000
C000
FF80
FF80
0000
0000
0C00
0C00
0800
ENDCHAR
STARTCHAR 013C
ENCODING 316
SWIDTH 300 0
DWIDTH 6 0
BBX 2 20 2 -5
BITMAP
C0
C0
C0
C0
C0
C0
C0
C0
C0
C0
C0
C0
C0
C0
C0
00
00
C0
C0
80
ENDCHAR
STARTCHAR 013D
ENCODING 317
SWIDTH 550 0
DWIDTH 11 0
BBX 9 15 2 0
BITMAP
C600
C600
C400
CC00
C000
C000
C000
C000
C000
C000
C000
C000
C000
FF80
FF80
ENDCHAR
STARTCHAR 013E
ENCODING 318
SWIDTH 400 0
DWIDTH 8 0
BBX 6 16 2 0
BITMAP
0C
CC
C8
D8
C0
C0
C0
C0
C0
C0
C0
C0
C0
C0
C0
C0
ENDCHAR
STARTCHAR 013F
ENCODING 319
SWIDTH 550 0
DWIDTH 11 0
BBX 9 15 2 0
BITMAP
C000
C000
C000
C000
C000
C000
C600
C600
C000
C000
C000
C000
C000
FF80
FF80
ENDCHAR
STARTCHAR 0140
ENCODING 320
SWIDTH 350 0
DWIDTH 7 0
BBX 5 15 2 0
BITMAP
C0
C0
C0
C0
C0
C0
D8
D8
C0
C0
C0
C0
C0
C0
C0
ENDCHAR
STARTCHAR 0141
ENCODING 321
SWIDTH 550 0
DWIDTH 11 0
BBX 11 15 0 0
BITMAP
3000
3000
3000
3000
3300
3600
3C00
3000
7000
B000
3000
3000
3000
3FE0
3FE0
ENDCHAR
STARTCHAR 0142
ENCODING 322
SWIDTH 300 0
DWIDTH 6 0
BBX 6 15 0 0
BITMAP
30
30
30
30
30
3C
38
70
F0
30
30
30
30
30
30
ENDCHAR
STARTCHAR 0143
ENCODING 323
SWIDTH 750 0
DWIDTH 15 0
BBX 11 19 2 0
BITMAP
0200
0600
0C00
0000
E060
F060
F060
F860
D860
DC60
CC60
CE60
C660
C760
C360
C3E0
C1E0
C0E0
C0E0
ENDCHAR
STARTCHAR 0144
ENCODING 324
SWIDTH 650 0
DWIDTH 13 0
BBX 9 16 2 0
BITMAP
0600
0C00
1800
3000
0000
DE00
FF00
E380
C180
C180
C180
C180
C180
C180
C180
C180
ENDCHAR
STARTCHAR 0145
ENCODING 325
SWIDTH 750 0
DWIDTH 15 0
BBX 11 20 2 -5
BITMAP
E060
F060
F060
F860
D860
DC60
CC60
CE60
C660
C760
C360
C3E0
C1E0
C0E0
C0E0
0000
0000
0600
0600
0400
ENDCHAR
STARTCHAR 0146
ENCODING 326
SWIDTH 650 0
DWIDTH 13 0
BBX 9 16 2 -5
BITMAP
DE00
FF00
E380
C180
C180
C180
C180
C180
C180
C180
C180
0000
0000
1800
1800
1000
ENDCHAR
STARTCHAR 0147
ENCODING 327
SWIDTH 750 0
DWIDTH 15 0
BBX 11 19 2 0
BITMAP
1100
0A00
0E00
0000
E060
F060
F060
F860
D860
DC60
CC60
CE60
C660
C760
C360
C3E0
C1E0
C0E0
C0E0
ENDCHAR
STARTCHAR 0148
ENCODING 328
SWIDTH 650 0
DWIDTH 13 0
BBX 9 16 2 0
BITMAP
2200
1400
1400
0800
0000
DE00
FF00
E380
C180
C180
C180
C180
C180
C180
C180
C180
ENDCHAR
STARTCHAR 0149
ENCODING 329
SWIDTH 800 0
DWIDTH 16 0
BBX 12 15 2 0
BITMAP
6000
6000
4000
C000
9BC0
1FE0
1C70
1830
1830
1830
1830
1830
1830
1830
1830
ENDCHAR
STARTCHAR 014A
ENCODING 330
SWIDTH 750 0
DWIDTH 15 0
BBX 11 19 2 -4
BITMAP
CF80
DFC0
F0C0
E060
C060
C060
C060
C060
C060
C060
C060
C060
C060
C060
C060
0060
0060
01E0
01C0
ENDCHAR
STARTCHAR 014B
ENCODING 331
SWIDTH 650 0
DWIDTH 13 0
BBX 9 15 2 -4
BITMAP
DE00
FF00
E380
C180
C180
C180
C180
C180
C180
C180
C180
0180
0180
1F80
1F00
ENDCHAR
STARTCHAR 014C
ENCODING 332
SWIDTH 800 0
DWIDTH 16 0
BBX 14 18 1 0
BITMAP
0FC0
0FC0
0000
0FC0
3FF0
3870
6018
E01C
C00C
C00C
C00C
C00C
C00C
E01C
6018
3870
3FF0
0FC0
ENDCHAR
STARTCHAR 014D
ENCODING 333
SWIDTH 600 0
DWIDTH 12 0
BBX 10 15 1 0
BITMAP
3F00
3F00
0000
0000
1E00
7F80
6180
C0C0
C0C0
C0C0
C0C0
C0C0
6180
7F80
1E00
ENDCHAR
STARTCHAR 014E
ENCODING 334
SWIDTH 800 0
DWIDTH 16 0
BBX 14 18 1 0
BITMAP
0840
0780
0000
0FC0
3FF0
3870
6018
E01C
C00C
C00C
C00C
C00C
C00C
E01C
6018
3870
3FF0
0FC0
ENDCHAR
STARTCHAR 014F
ENCODING 335
SWIDTH 600 0
DWIDTH 12 0
BBX 10 16 1 0
BITMAP
2100
3F00
1E00
0000
0000
1E00
7F80
6180
C0C0
C0C0
C0C0
C0C0
C0C0
6180
7F80
1E00
ENDCHAR
STARTCHAR 0150
ENCODING 336
SWIDTH 800 0
DWIDTH 16 0
BBX 14 19 1 0
BITMAP
0360
06C0
0480
0000
0FC0
3FF0
3870
6018
E01C
C00C
C00C
C00C
C00C
C00C
E01C
6018
3870
3FF0
0FC0
ENDCHAR
STARTCHAR 0151
ENCODING 337
SWIDTH 600 0
DWIDTH 12 0
BBX 11 16 1 0
BITMAP
0660
0CC0
0880
1980
0000
1E00
7F80
6180
C0C0
C0C0
C0C0
C0C0
C0C0
6180
7F80
1E00
ENDCHAR
STARTCHAR 0152
ENCODING 338
SWIDTH 1050 0
DWIDTH 21 0
BBX 19 15 1 0
BITMAP
07FFE0
1FFFE0
383000
703000
E03000
C03000
C03FE0
C03FE0
C03000
C03000
E03000
703000
383000
1FFFE0
07FFE0
ENDCHAR
STARTCHAR 0153
ENCODING 339
SWIDTH 1000 0
DWIDTH 20 0
BBX 18 11 1 0
BITMAP
1E1F00
7FFF80
61E1C0
C0C0C0
C0FFC0
C0FFC0
C0C000
C0C000
61F040
7FFFC0
1E1F80
ENDCHAR
STARTCHAR 0154
ENCODING 340
SWIDTH 700 0
DWIDTH 14 0
BBX 11 19 2 0
BITMAP
0400
0C00
1800
0000
FE00
FF00
C380
C180
C180
C380
FF00
FE00
C700
C380
C180
C180
C0C0
C0C0
C060
ENDCHAR
STARTCHAR 0155
ENCODING 341
SWIDTH 400 0
DWIDTH 8 0
BBX 7 16 2 0
BITMAP
06
0C
18
30
00
DC
FC
E0
C0
C0
C0
C0
C0
C0
C0
C0
ENDCHAR
STARTCHAR 0156
ENCODING 342
SWIDTH 700 0
DWIDTH 14 0
BBX 11 20 2 -5
BITMAP
FE00
FF00
C380
C180
C180
C380
FF00
FE00
C700
C380
C180
C180
C0C0
C0C0
C060
0000
0000
0600
0600
0400
ENDCHAR
STARTCHAR 0157
ENCODING 343
SWIDTH 400 0
DWIDTH 8 0
BBX 6 16 2 -5
BITMAP
DC
FC
E0
C0
C0
C0
C0
C0
C0
C0
C0
00
00
C0
C0
80
ENDCHAR
STARTCHAR 0158
ENCODING 344
SWIDTH 700 0
DWIDTH 14 0
BBX 11 19 2 0
BITMAP
6600
3C00
1800
0000
FE00
FF00
C380
C180
C180
C380
FF00
FE00
C700
C380
C180
C180
C0C0
C0C0
C060
ENDCHAR
STARTCHAR 0159
ENCODING 345
SWIDTH 400 0
DWIDTH 8 0
BBX 6 16 2 0
BITMAP
CC
48
78
30
00
DC
FC
E0
C0
C0
C0
C0
C0
C0
C0
C0
ENDCHAR
STARTCHAR 015A
ENCODING 346
SWIDTH 650 0
DWIDTH 13 0
BBX 10 19 1 0
BITMAP
0200
0600
0C00
0000
3F00
7F80
E080
C000
C000
E000
7C00
3F00
0380
00C0
00C0
00C0
81C0
FF80
7F00
ENDCHAR
STARTCHAR 015B
ENCODING 347
SWIDTH 500 0
DWIDTH 10 0
BBX 8 16 1 0
BITMAP
03
06
0C
18
00
3E
FF
C1
C0
FC
3E
07
03
83
FF
7C
ENDCHAR
STARTCHAR 015C
ENCODING 348
SWIDTH 650 0
DWIDTH 13 0
BBX 10 19 1 0
BITMAP
0C00
1E00
3300
0000
3F00
7F80
E080
C000
C000
E000
7C00
3F00
0380
00C0
00C0
00C0
81C0
FF80
7F00
ENDCHAR
STARTCHAR 015D
ENCODING 349
SWIDTH 500 0
DWIDTH 10 0
BBX 8 16 1 0
BITMAP
18
3C
24
66
00
3E
FF
C1
C0
FC
3E
07
03
83
FF
7C
ENDCHAR
STARTCHAR 015E
ENCODING 350
SWIDTH 650 0
DWIDTH 13 0
BBX 10 19 1 -4
BITMAP
3F00
7F80
E080
C000
C000
E000
7C00
3F00
0380
00C0
00C0
00C0
81C0
FF80
7F00
0400
0600
0600
1C00
ENDCHAR
STARTCHAR 015F
ENCODING 351
SWIDTH 500 0
DWIDTH 10 0
BBX 8 15 1 -4
BITMAP
3E
FF
C1
C0
FC
3E
07
03
83
FF
7C
08
0C
0C
38
ENDCHAR
STARTCHAR 0160
ENCODING 352
SWIDTH 650 0
DWIDTH 13 0
BBX 10 19 1 0
BITMAP
3300
1E00
0C00
0000
3F00
7F80
E080
C000
C000
E000
7C00
3F00
0380
00C0
00C0
00C0
81C0
FF80
7F00
ENDCHAR
STARTCHAR 0161
ENCODING 353
SWIDTH 500 0
DWIDTH 10 0
BBX 8 16 1 0
BITMAP
66
24
3C
18
00
3E
FF
C1
C0
FC
3E
07
03
83
FF
7C
ENDCHAR
STARTCHAR 0162
ENCODING 354
SWIDTH 600 0
DWIDTH 12 0
BBX 12 19 0 -4
BITMAP
FFF0
FFF0
0600
0600
0600
0600
0600
0600
0600
0600
0600
0600
0600
0600
0600
0200
0300
0300
0E00
ENDCHAR
STARTCHAR 0163
ENCODING 355
SWIDTH 400 0
DWIDTH 8 0
BBX 7 18 1 -4
BITMAP
60
60
60
FE
FE
60
60
60
60
60
60
60
7E
3E
08
0C
0C
38
ENDCHAR
STARTCHAR 0164
ENCODING 356
SWIDTH 600 0
DWIDTH 12 0
BBX 12 19 0 0
BITMAP
1980
0F00
0600
0000
FFF0
FFF0
0600
0600
0600
0600
0600
0600
0600
0600
0600
0600
0600
0600
0600
ENDCHAR
STARTCHAR 0165
ENCODING 357
SWIDTH 400 0
DWIDTH 8 0
BBX 7 17 1 0
BITMAP
06
06
04
6C
60
60
FE
FE
60
60
60
60
60
60
60
7E
3E
ENDCHAR
STARTCHAR 0166
ENCODING 358
SWIDTH 600 0
DWIDTH 12 0
BBX 12 15 0 0
BITMAP
FFF0
FFF0
0600
0600
0600
0600
0600
0600
3FC0
3FC0
0600
0600
0600
0600
0600
ENDCHAR
STARTCHAR 0167
ENCODING 359
SWIDTH 400 0
DWIDTH 8 0
BBX 7 14 1 0
BITMAP
60
60
60
FE
FE
60
60
F8
F8
60
60
60
7E
3E
ENDCHAR
STARTCHAR 0168
ENCODING 360
SWIDTH 750 0
DWIDTH 15 0
BBX 11 18 2 0
BITMAP
1D00
1700
0000
C060
C060
C060
C060
C060
C060
C060
C060
C060
C060
C060
E0E0
60C0
7FC0
1F00
ENDCHAR
STARTCHAR 0169
ENCODING 361
SWIDTH 650 0
DWIDTH 13 0
BBX 9 16 2 0
BITMAP
3900
4900
4E00
0000
0000
C180
C180
C180
C180
C180
C180
C180
C180
E380
7F80
3D80
ENDCHAR
STARTCHAR 016A
ENCODING 362
SWIDTH 750 0
DWIDTH 15 0
BBX 11 18 2 0
BITMAP
1F00
1F00
0000
C060
C060
C060
C060
C060
C060
C060
C060
C060
C060
C060
E0E0
60C0
7FC0
1F00
ENDCHAR
STARTCHAR 016B
ENCODING 363
SWIDTH 650 0
DWIDTH 13 0
BBX 9 15 2 0
BITMAP
7F00
7F00
0000
0000
C180
C180
C180
C180
C180
C180
C180
C180
E380
7F80
3D80
ENDCHAR
STARTCHAR 016C
ENCODING 364
SWIDTH 750 0
DWIDTH 15 0
BBX 11 18 2 0
BITMAP
1100
0E00
0000
C060
C060
C060
C060
C060
C060
C060
C060
C060
C060
C060
E0E0
60C0
7FC0
1F00
ENDCHAR
STARTCHAR 016D
ENCODING 365
SWIDTH 650 0
DWIDTH 13 0
BBX 9 16 2 0
BITMAP
4100
7F00
3E00
0000
0000
C180
C180
C180
C180
C180
C180
C180
C180
E380
7F80
3D80
ENDCHAR
STARTCHAR 016E
ENCODING 366
SWIDTH 750 0
DWIDTH 15 0
BBX 11 18 2 0
BITMAP
1C00
2200
2200
E260
DC60
C060
C060
C060
C060
C060
C060
C060
C060
C060
E0E0
60C0
7FC0
1F00
ENDCHAR
STARTCHAR 016F
ENCODING 367
SWIDTH 650 0
DWIDTH 13 0
BBX 9 16 2 0
BITMAP
3800
4400
4400
4400
3800
C180
C180
C180
C180
C180
C180
C180
C180
E380
7F80
3D80
ENDCHAR
STARTCHAR 0170
ENCODING 368
SWIDTH 750 0
DWIDTH 15 0
BBX 11 19 2 0
BITMAP
0D80
1B00
1200
0000
C060
C060
C060
C060
C060
C060
C060
C060
C060
C060
C060
E0E0
60C0
7FC0
1F00
ENDCHAR
STARTCHAR 0171
ENCODING 369
SWIDTH 650 0
DWIDTH 13 0
BBX 10 16 2 0
BITMAP
0CC0
1980
1100
3300
0000
C180
C180
C180
C180
C180
C180
C180
C180
E380
7F80
3D80
ENDCHAR
STARTCHAR 0172
ENCODING 370
SWIDTH 750 0
DWIDTH 15 0
BBX 11 19 2 -4
BITMAP
C060
C060
C060
C060
C060
C060
C060
C060
C060
C060
C060
E0E0
60C0
7FC0
1F00
0800
1800
1800
0E00
ENDCHAR
STARTCHAR 0173
ENCODING 371
SWIDTH 650 0
DWIDTH 13 0
BBX 10 15 2 -4
BITMAP
C180
C180
C180
C180
C180
C180
C180
C180
E380
7F80
3D80
0100
0300
0300
01C0
ENDCHAR
STARTCHAR 0174
ENCODING 372
SWIDTH 1000 0
DWIDTH 20 0
BBX 18 19 1 0
BITMAP
00C000
01E000
033000
000000
C1E0C0
C1E0C0
61E180
61E180
633180
633180
333300
333300
361B00
361B00
3E1E00
1E1E00
1E1E00
1C0E00
1C0E00
ENDCHAR
STARTCHAR 0175
ENCODING 373
SWIDTH 850 0
DWIDTH 17 0
BBX 15 16 1 0
BITMAP
0100
0280
0280
0440
0000
C386
C386
628C
66CC
66CC
66CC
3458
3C78
3C78
1830
1830
ENDCHAR
STARTCHAR 0176
ENCODING 374
SWIDTH 600 0
DWIDTH 12 0
BBX 12 19 0 0
BITMAP
0600
0F00
1980
0000
E070
6060
30C0
39C0
1980
1F80
0F00
0600
0600
0600
0600
0600
0600
0600
0600
ENDCHAR
STARTCHAR 0177
ENCODING 375
SWIDTH 550 0
DWIDTH 11 0
BBX 11 20 0 -4
BITMAP
0400
0A00
0A00
1100
0000
C060
60C0
60C0
7180
3180
3B80
1B00
1B00
0E00
0E00
0C00
0C00
1C00
7800
7000
ENDCHAR
STARTCHAR 0178
ENCODING 376
SWIDTH 600 0
DWIDTH 12 0
BBX 12 19 0 0
BITMAP
1980
1980
0000
0000
E070
6060
30C0
39C0
1980
1F80
0F00
0600
0600
0600
0600
0600
0600
0600
0600
ENDCHAR
STARTCHAR 0179
ENCODING 377
SWIDTH 700 0
DWIDTH 14 0
BBX 12 19 1 0
BITMAP
0200
0600
0C00
0000
FFF0
FFF0
0060
00C0
01C0
0380
0700
0600
0C00
1C00
3800
3000
6000
FFF0
FFF0
ENDCHAR
STARTCHAR 017A
ENCODING 378
SWIDTH 550 0
DWIDTH 11 0
BBX 9 16 1 0
BITMAP
0300
0600
0C00
1800
0000
FF80
FF80
0300
0600
0E00
1C00
3800
3000
7000
FF80
FF80
ENDCHAR
STARTCHAR 017B
ENCODING 379
SWIDTH 700 0
DWIDTH 14 0
BBX 12 19 1 0
BITMAP
0600
0600
0000
0000
FFF0
FFF0
0060
00C0
01C0
0380
0700
0600
0C00
1C00
3800
3000
6000
FFF0
FFF0
ENDCHAR
STARTCHAR 017C
ENCODING 380
SWIDTH 550 0
DWIDTH 11 0
BBX 9 15 1 0
BITMAP
1800
1800
0000
0000
FF80
FF80
0300
0600
0E00
1C00
3800
3000
7000
FF80
FF80
ENDCHAR
STARTCHAR 017D
ENCODING 381
SWIDTH 700 0
DWIDTH 14 0
BBX 12 19 1 0
BITMAP
1980
0F00
0600
0000
FFF0
FFF0
0060
00C0
01C0
0380
0700
0600
0C00
1C00
3800
3000
6000
FFF0
FFF0
ENDCHAR
STARTCHAR 017E
ENCODING 382
SWIDTH 550 0
DWIDTH 11 0
BBX 9 16 1 0
BITMAP
2200
1400
1400
0800
0000
FF80
FF80
0300
0600
0E00
1C00
3800
3000
7000
FF80
FF80
ENDCHAR
STARTCHAR 017F
ENCODING 383
SWIDTH 350 0
DWIDTH 7 0
BBX 7 15 0 0
BITMAP
1E
3E
30
30
F0
F0
30
30
30
30
30
30
30
30
30
ENDCHAR
STARTCHAR 0180
ENCODING 384
SWIDTH 650 0
DWIDTH 13 0
BBX 12 15 0 0
BITMAP
3000
FE00
FE00
3000
37C0
3FE0
3860
3030
3030
3030
3030
3030
3860
3FE0
37C0
ENDCHAR
STARTCHAR 0181
ENCODING 385
SWIDTH 750 0
DWIDTH 15 0
BBX 14 15 -2 0
BITMAP
7FE0
FFF0
CC38
CC18
0C18
0C38
0FF0
0FF0
0C18
0C0C
0C0C
0C0C
0C1C
0FF8
0FF0
ENDCHAR
STARTCHAR 0182
ENCODING 386
SWIDTH 650 0
DWIDTH 13 0
BBX 10 15 2 0
BITMAP
FF80
FF80
C000
C000
C000
C000
FF00
FF80
C1C0
C0C0
C0C0
C0C0
C1C0
FF80
FF00
ENDCHAR
STARTCHAR 0183
ENCODING 387
SWIDTH 650 0
DWIDTH 13 0
BBX 10 15 2 0
BITMAP
FF00
FF00
C000
C000
DF00
FF80
E180
C0C0
C0C0
C0C0
C0C0
C0C0
E180
FF80
DF00
ENDCHAR
STARTCHAR 0184
ENCODING 388
SWIDTH 650 0
DWIDTH 13 0
BBX 12 15 0 0
BITMAP
1000
3000
7000
F000
3000
3000
3FC0
3FE0
3070
3030
3030
3030
3070
3FE0
3FC0
ENDCHAR
STARTCHAR 0185
ENCODING 389
SWIDTH 650 0
DWIDTH 13 0
BBX 12 15 0 0
BITMAP
1000
3000
7000
F000
37C0
3FE0
3860
3030
3030
3030
3030
3030
3860
3FE0
37C0
ENDCHAR
STARTCHAR 0186
ENCODING 390
SWIDTH 700 0
DWIDTH 14 0
BBX 12 15 1 0
BITMAP
7F00
FFC0
81C0
0060
0070
0030
0030
0030
0030
0030
0070
0060
81C0
FFC0
7F00
ENDCHAR
STARTCHAR 0187
ENCODING 391
SWIDTH 700 0
DWIDTH 14 0
BBX 15 18 1 0
BITMAP
000E
001E
0030
0FF0
3FF0
3810
6000
E000
C000
C000
C000
C000
C000
E000
6000
3810
3FF0
0FE0
ENDCHAR
STARTCHAR 0188
ENCODING 392
SWIDTH 550 0
DWIDTH 11 0
BBX 11 15 1 0
BITMAP
00E0
01E0
0180
0180
1F80
7F80
7080
E000
C000
C000
C000
E000
7080
3F80
1F00
ENDCHAR
STARTCHAR 0189
ENCODING 393
SWIDTH 800 0
DWIDTH 16 0
BBX 14 15 0 0
BITMAP
3FC0
3FF0
3078
3018
301C
300C
FE0C
FE0C
300C
300C
301C
3018
3078
3FF0
3FC0
ENDCHAR
STARTCHAR 018A
ENCODING 394
SWIDTH 800 0
DWIDTH 16 0
BBX 16 15 -2 0
BITMAP
7FF0
FFFC
CC1E
CC06
0C07
0C03
0C03
0C03
0C03
0C03
0C07
0C06
0C1E
0FFC
0FF0
ENDCHAR
STARTCHAR 018B
ENCODING 395
SWIDTH 600 0
DWIDTH 12 0
BBX 10 15 1 0
BITMAP
3FC0
3FC0
00C0
00C0
00C0
00C0
3FC0
7FC0
E0C0
C0C0
C0C0
C0C0
E0C0
7FC0
3FC0
ENDCHAR
STARTCHAR 018C
ENCODING 396
SWIDTH 650 0
DWIDTH 13 0
BBX 10 15 1 0
BITMAP
3FC0
3FC0
00C0
00C0
3EC0
7FC0
61C0
C0C0
C0C0
C0C0
C0C0
C0C0
61C0
7FC0
3EC0
ENDCHAR
STARTCHAR 018D
ENCODING 397
SWIDTH 600 0
DWIDTH 12 0
BBX 10 15 1 -4
BITMAP
1E00
7F80
6180
C0C0
C0C0
C0C0
C0C0
E0C0
7180
3F00
0F80
0180
4180
7F80
3E00
ENDCHAR
STARTCHAR 018E
ENCODING 398
SWIDTH 600 0
DWIDTH 12 0
BBX 9 15 1 0
BITMAP
FF80
FF80
0180
0180
0180
0180
FF80
FF80
0180
0180
0180
0180
0180
FF80
FF80
ENDCHAR
STARTCHAR 018F
ENCODING 399
SWIDTH 800 0
DWIDTH 16 0
BBX 13 15 1 0
BITMAP
3F80
7FE0
4070
0030
0018
0018
0018
FFF8
FFF8
C018
C018
6030
7070
3FE0
0F80
ENDCHAR
STARTCHAR 0190
ENCODING 400
SWIDTH 550 0
DWIDTH 11 0
BBX 9 15 1 0
BITMAP
3F00
7F80
E080
C000
C000
E000
3C00
7C00
E000
C000
C000
C000
E080
7F80
3F00
ENDCHAR
STARTCHAR 0191
ENCODING 401
SWIDTH 600 0
DWIDTH 12 0
BBX 11 19 -1 -4
BITMAP
1FE0
1FE0
1800
1800
1800
1800
1FC0
1FC0
1800
1800
1800
1800
1800
1800
1800
1800
3800
F000
E000
ENDCHAR
STARTCHAR 0192
ENCODING 402
SWIDTH 350 0
DWIDTH 7 0
BBX 8 19 -1 -4
BITMAP
0F
1F
18
18
7F
7F
18
18
18
18
18
18
18
18
18
18
18
F0
E0
ENDCHAR
STARTCHAR 0193
ENCODING 403
SWIDTH 800 0
DWIDTH 16 0
BBX 16 18 2 0
BITMAP
000F
001F
0038
0FF0
3FF0
7810
6000
E000
C000
C000
C0F8
C0F8
C018
E018
6018
3818
1FF0
0FC0
ENDCHAR
STARTCHAR 0194
ENCODING 404
SWIDTH 700 0
DWIDTH 14 0
BBX 14 19 0 -4
BITMAP
E01C
6018
7038
3030
1860
1860
0CC0
0CC0
0780
0780
0300
0780
0780
0780
0CC0
0CC0
0CC0
0FC0
0780
ENDCHAR
STARTCHAR 0195
ENCODING 405
SWIDTH 950 0
DWIDTH 19 0
BBX 16 15 2 0
BITMAP
C000
C000
C000
C000
DE0C
FF0E
E386
C183
C183
C183
C183
C183
C186
C0FE
C07C
ENDCHAR
STARTCHAR 0196
ENCODING 406
SWIDTH 350 0
DWIDTH 7 0
BBX 5 15 2 0
BITMAP
C0
C0
C0
C0
C0
C0
C0
C0
C0
C0
C0
C0
E0
78
38
ENDCHAR
STARTCHAR 0197
ENCODING 407
SWIDTH 300 0
DWIDTH 6 0
BBX 6 15 0 0
BITMAP
30
30
30
30
30
30
30
FC
FC
30
30
30
30
30
30
ENDCHAR
STARTCHAR 0198
ENCODING 408
SWIDTH 750 0
DWIDTH 15 0
BBX 14 15 2 0
BITMAP
C078
C0F8
C1CC
C70C
CE00
DC00
F800
F800
DC00
CE00
C700
C380
C1C0
C0E0
C070
ENDCHAR
STARTCHAR 0199
ENCODING 409
SWIDTH 600 0
DWIDTH 12 0
BBX 9 15 2 0
BITMAP
7800
F800
C000
C000
C380
C700
CE00
DC00
F800
F000
F800
DC00
CE00
C700
C380
ENDCHAR
STARTCHAR 019A
ENCODING 410
SWIDTH 300 0
DWIDTH 6 0
BBX 6 15 0 0
BITMAP
30
30
30
30
30
30
FC
FC
30
30
30
30
30
30
30
ENDCHAR
STARTCHAR 019B
ENCODING 411
SWIDTH 650 0
DWIDTH 13 0
BBX 11 15 1 0
BITMAP
1880
0F80
3F00
7E00
2600
0E00
0F00
0F00
1B00
1980
3180
31C0
60C0
60C0
C060
ENDCHAR
STARTCHAR 019C
ENCODING 412
SWIDTH 1000 0
DWIDTH 20 0
BBX 16 15 2 0
BITMAP
C183
C183
C183
C183
C183
C183
C183
C183
C183
C183
C183
C183
E3C7
7EFF
3C7B
ENDCHAR
STARTCHAR 019D
ENCODING 413
SWIDTH 750 0
DWIDTH 15 0
BBX 14 19 -1 -4
BITMAP
1C0C
1E0C
1E0C
1F0C
1B0C
1B8C
198C
19CC
18CC
18EC
186C
187C
183C
181C
181C
1800
3800
F000
E000
ENDCHAR
STARTCHAR 019E
ENCODING 414
SWIDTH 650 0
DWIDTH 13 0
BBX 9 15 2 -4
BITMAP
DE00
FF00
E380
C180
C180
C180
C180
C180
C180
C180
C180
0180
0180
0180
0180
ENDCHAR
STARTCHAR 019F
ENCODING 415
SWIDTH 800 0
DWIDTH 16 0
BBX 14 15 1 0
BITMAP
0FC0
3FF0
3870
6018
E00C
C00C
FFFC
FFFC
C00C
C00C
E01C
6018
3870
3FF0
0FC0
ENDCHAR
STARTCHAR 01A0
ENCODING 416
SWIDTH 900 0
DWIDTH 18 0
BBX 14 15 1 0
BITMAP
0FC4
3FF4
387C
6018
E01C
C00C
C00C
C00C
C00C
C00C
E01C
6018
3870
3FF0
0FC0
ENDCHAR
STARTCHAR 01A1
ENCODING 417
SWIDTH 600 0
DWIDTH 12 0
BBX 11 12 1 0
BITMAP
0020
1E20
7FE0
6180
C0C0
C0C0
C0C0
C0C0
C0C0
6180
7F80
1E00
ENDCHAR
STARTCHAR 01A2
ENCODING 418
SWIDTH 950 0
DWIDTH 19 0
BBX 16 15 1 0
BITMAP
0FFC
3FFE
3837
6033
E033
C033
C033
C033
C033
C033
E033
6033
7873
3FE3
0FC3
ENDCHAR
STARTCHAR 01A3
ENCODING 419
SWIDTH 800 0
DWIDTH 16 0
BBX 13 15 1 -4
BITMAP
1FF0
7FF8
6198
C198
C198
C198
C198
C198
6198
7F98
1F18
0018
0018
0018
0018
ENDCHAR
STARTCHAR 01A4
ENCODING 420
SWIDTH 650 0
DWIDTH 13 0
BBX 13 15 -2 0
BITMAP
7FE0
FFF0
CC38
CC18
0C18
0C18
0C38
0FF0
0FE0
0C00
0C00
0C00
0C00
0C00
0C00
ENDCHAR
STARTCHAR 01A5
ENCODING 421
SWIDTH 650 0
DWIDTH 13 0
BBX 10 19 2 -4
BITMAP
7C00
7C00
C000
C000
DF00
FF80
E180
C0C0
C0C0
C0C0
C0C0
C0C0
E180
FF80
DF00
C000
C000
C000
C000
ENDCHAR
STARTCHAR 01A6
ENCODING 422
SWIDTH 700 0
DWIDTH 14 0
BBX 11 18 2 -3
BITMAP
C000
C000
C000
FE00
FF00
C380
C180
C180
C380
FF00
FE00
C300
C380
C180
C180
00C0
00C0
0060
ENDCHAR
STARTCHAR 01A7
ENCODING 423
SWIDTH 650 0
DWIDTH 13 0
BBX 10 15 1 0
BITMAP
3F00
7F80
41C0
00C0
00C0
00C0
0F80
3F00
7000
C000
C000
C000
E040
7FC0
3F80
ENDCHAR
STARTCHAR 01A8
ENCODING 424
SWIDTH 500 0
DWIDTH 10 0
BBX 8 11 1 0
BITMAP
7C
FF
83
03
3F
7C
E0
C0
C1
FF
3E
ENDCHAR
STARTCHAR 01A9
ENCODING 425
SWIDTH 650 0
DWIDTH 13 0
BBX 9 15 2 0
BITMAP
FF80
FF80
E000
7000
3800
1C00
0E00
0E00
0C00
1800
3800
7000
E000
FF80
FF80
ENDCHAR
STARTCHAR 01AA
ENCODING 426
SWIDTH 350 0
DWIDTH 7 0
BBX 10 19 -3 -4
BITMAP
7C00
FE00
FF80
7F80
0600
0600
0600
0600
0600
0600
0600
0600
0600
0600
0600
0600
0600
07C0
03C0
ENDCHAR
STARTCHAR 01AB
ENCODING 427
SWIDTH 400 0
DWIDTH 8 0
BBX 7 18 1 -4
BITMAP
60
60
60
FE
FE
60
60
60
60
60
60
60
7E
3E
06
06
1E
1C
ENDCHAR
STARTCHAR 01AC
ENCODING 428
SWIDTH 600 0
DWIDTH 12 0
BBX 12 15 0 0
BITMAP
7FF0
FFF0
C600
C600
0600
0600
0600
0600
0600
0600
0600
0600
0600
0600
0600
ENDCHAR
STARTCHAR 01AD
ENCODING 429
SWIDTH 400 0
DWIDTH 8 0
BBX 7 15 1 0
BITMAP
1E
3E
60
60
FE
FE
60
60
60
60
60
60
60
7E
3E
ENDCHAR
STARTCHAR 01AE
ENCODING 430
SWIDTH 600 0
DWIDTH 12 0
BBX 12 19 0 -4
BITMAP
FFF0
FFF0
0600
0600
0600
0600
0600
0600
0600
0600
0600
0600
0600
0600
0600
0600
0700
03C0
01C0
ENDCHAR
STARTCHAR 01AF
ENCODING 431
SWIDTH 850 0
DWIDTH 17 0
BBX 14 15 2 0
BITMAP
C064
C064
C07C
C060
C060
C060
C060
C060
C060
C060
C060
E0E0
60C0
7FC0
1F00
ENDCHAR
STARTCHAR 01B0
ENCODING 432
SWIDTH 650 0
DWIDTH 13 0
BBX 11 12 2 0
BITMAP
0020
C1A0
C1E0
C180
C180
C180
C180
C180
C180
E380
7F80
3D80
ENDCHAR
STARTCHAR 01B1
ENCODING 433
SWIDTH 750 0
DWIDTH 15 0
BBX 13 15 1 0
BITMAP
FDF8
FDF8
38E0
3060
6030
E038
C018
C018
C018
C018
C018
6030
7070
3FE0
0F80
ENDCHAR
STARTCHAR 01B2
ENCODING 434
SWIDTH 700 0
DWIDTH 14 0
BBX 12 15 2 0
BITMAP
C000
C000
C180
C0C0
C060
C070
C030
C030
C030
C030
C070
C060
E1E0
7FC0
3F00
ENDCHAR
STARTCHAR 01B3
ENCODING 435
SWIDTH 750 0
DWIDTH 15 0
BBX 15 15 0 0
BITMAP
E03C
607E
3066
38C6
19C0
1F80
0F00
0600
0600
0600
0600
0600
0600
0600
0600
ENDCHAR
STARTCHAR 01B4
ENCODING 436
SWIDTH 750 0
DWIDTH 15 0
BBX 14 15 0 -4
BITMAP
C078
60FC
60CC
71CC
3180
3980
1B00
1B00
0E00
0E00
0C00
0C00
1C00
7800
7000
ENDCHAR
STARTCHAR 01B5
ENCODING 437
SWIDTH 700 0
DWIDTH 14 0
BBX 12 15 1 0
BITMAP
FFF0
FFF0
0060
00E0
01C0
0380
0300
7FE0
7FE0
1C00
3800
3000
6000
FFF0
FFF0
ENDCHAR
STARTCHAR 01B6
ENCODING 438
SWIDTH 550 0
DWIDTH 11 0
BBX 9 11 1 0
BITMAP
FF80
FF80
0300
0700
0E00
7F00
7F00
3000
7000
FF80
FF80
ENDCHAR
STARTCHAR 01B7
ENCODING 439
SWIDTH 650 0
DWIDTH 13 0
BBX 11 15 2 0
BITMAP
FFC0
FFC0
0180
0380
0700
0E00
0F00
0FC0
00C0
0060
0060
0060
80E0
FFC0
3F00
ENDCHAR
STARTCHAR 01B8
ENCODING 440
SWIDTH 650 0
DWIDTH 13 0
BBX 11 15 1 0
BITMAP
7FE0
7FE0
3000
3800
1C00
0C00
1E00
7E00
E000
C000
C000
C000
E020
7FE0
1F80
ENDCHAR
STARTCHAR 01B9
ENCODING 441
SWIDTH 600 0
DWIDTH 12 0
BBX 10 15 1 -4
BITMAP
7FC0
7FC0
3000
1800
0C00
0E00
1E00
7E00
E000
C000
C000
C000
E040
7FC0
1F80
ENDCHAR
STARTCHAR 01BA
ENCODING 442
SWIDTH 550 0
DWIDTH 11 0
BBX 9 15 1 -5
BITMAP
FF80
FF80
0300
0600
0C00
1800
3F00
0180
0180
0700
7E00
E000
C000
E100
7F00
ENDCHAR
STARTCHAR 01BB
ENCODING 443
SWIDTH 650 0
DWIDTH 13 0
BBX 10 15 1 0
BITMAP
3E00
7F80
4180
00C0
00C0
0180
0180
0300
7F80
0E00
1C00
3800
7000
FFC0
FFC0
ENDCHAR
STARTCHAR 01BC
ENCODING 444
SWIDTH 650 0
DWIDTH 13 0
BBX 11 16 1 -1
BITMAP
7FC0
7FC0
6000
6000
6000
6000
7F00
7FC0
00C0
0060
0060
C060
C060
60C0
7FC0
1F00
ENDCHAR
STARTCHAR 01BD
ENCODING 445
SWIDTH 600 0
DWIDTH 12 0
BBX 10 15 1 -4
BITMAP
7F80
7F80
6000
6000
6000
6000
7E00
7F80
01C0
00C0
00C0
00C0
81C0
FF80
7E00
ENDCHAR
STARTCHAR 01BE
ENCODING 446
SWIDTH 500 0
DWIDTH 10 0
BBX 8 14 1 0
BITMAP
30
30
30
FE
30
30
3E
07
03
03
03
03
8E
FC
ENDCHAR
STARTCHAR 01BF
ENCODING 447
SWIDTH 650 0
DWIDTH 13 0
BBX 10 15 2 -4
BITMAP
CF80
FFC0
F1C0
C0C0
C0C0
C0C0
C180
C300
CE00
FC00
F800
E000
C000
C000
C000
ENDCHAR
STARTCHAR 01C0
ENCODING 448
SWIDTH 300 0
DWIDTH 6 0
BBX 2 19 2 -4
BITMAP
C0
C0
C0
C0
C0
C0
C0
C0
C0
C0
C0
C0
C0
C0
C0
C0
C0
C0
C0
ENDCHAR
STARTCHAR 01C1
ENCODING 449
SWIDTH 500 0
DWIDTH 10 0
BBX 6 19 2 -4
BITMAP
CC
CC
CC
CC
CC
CC
CC
CC
CC
CC
CC
CC
CC
CC
CC
CC
CC
CC
CC
ENDCHAR
STARTCHAR 01C2
ENCODING 450
SWIDTH 450 0
DWIDTH 9 0
BBX 8 19 1 -4
BITMAP
18
18
18
18
18
18
FF
FF
18
18
FF
FF
18
18
18
18
18
18
18
ENDCHAR
STARTCHAR 01C3
ENCODING 451
SWIDTH 300 0
DWIDTH 6 0
BBX 2 15 2 0
BITMAP
C0
C0
C0
C0
C0
C0
C0
C0
C0
C0
C0
00
00
C0
C0
ENDCHAR
STARTCHAR 01C4
ENCODING 452
SWIDTH 1400 0
DWIDTH 28 0
BBX 25 19 2 0
BITMAP
0000CC00
00007800
00003000
00000000
FF07FF80
FFC7FF80
C1E00300
C0600600
C0700E00
C0301C00
C0303800
C0303000
C0306000
C030E000
C071C000
C0618000
C1E30000
FFC7FF80
FF07FF80
ENDCHAR
STARTCHAR 01C5
ENCODING 453
SWIDTH 1300 0
DWIDTH 26 0
BBX 23 16 2 0
BITMAP
000088
FF0050
FFC050
C1E020
C06000
C073FE
C033FE
C0300C
C03018
C03038
C03070
C070E0
C060C0
C1E1C0
FFC3FE
FF03FE
ENDCHAR
STARTCHAR 01C6
ENCODING 454
SWIDTH 1150 0
DWIDTH 23 0
BBX 21 16 1 0
BITMAP
000220
00C140
00C140
00C080
00C000
3ECFF8
7FCFF8
61C030
C0C060
C0C0E0
C0C1C0
C0C380
C0C300
61C700
7FCFF8
3ECFF8
ENDCHAR
STARTCHAR 01C7
ENCODING 455
SWIDTH 850 0
DWIDTH 17 0
BBX 13 19 2 -4
BITMAP
C018
C018
C018
C018
C018
C018
C018
C018
C018
C018
C018
C018
C018
FF98
FF98
0018
0038
00F0
00E0
ENDCHAR
STARTCHAR 01C8
ENCODING 456
SWIDTH 800 0
DWIDTH 16 0
BBX 13 19 2 -4
BITMAP
C018
C018
C000
C000
C018
C018
C018
C018
C018
C018
C018
C018
C018
FF98
FF98
0018
0018
0070
0070
ENDCHAR
STARTCHAR 01C9
ENCODING 457
SWIDTH 450 0
DWIDTH 9 0
BBX 6 19 2 -4
BITMAP
CC
CC
C0
C0
CC
CC
CC
CC
CC
CC
CC
CC
CC
CC
CC
0C
0C
38
38
ENDCHAR
STARTCHAR 01CA
ENCODING 458
SWIDTH 950 0
DWIDTH 19 0
BBX 15 19 2 -4
BITMAP
E066
F066
F066
F866
D866
DC66
CC66
CE66
C666
C766
C366
C3E6
C1E6
C0E6
C0E6
0006
000E
003C
0038
ENDCHAR
STARTCHAR 01CB
ENCODING 459
SWIDTH 900 0
DWIDTH 18 0
BBX 15 19 2 -4
BITMAP
E066
F066
F060
F860
D866
DC66
CC66
CE66
C666
C766
C366
C3E6
C1E6
C0E6
C0E6
0006
0006
001C
001C
ENDCHAR
STARTCHAR 01CC
ENCODING 460
SWIDTH 800 0
DWIDTH 16 0
BBX 13 19 2 -4
BITMAP
0018
0018
0000
0000
DE18
FF18
E398
C198
C198
C198
C198
C198
C198
C198
C198
0018
0018
0070
0070
ENDCHAR
STARTCHAR 01CD
ENCODING 461
SWIDTH 700 0
DWIDTH 14 0
BBX 13 19 0 0
BITMAP
0880
0500
0700
0000
0700
0700
0700
0D80
0D80
1DC0
18C0
18C0
3060
3060
3FE0
7FF0
6030
6030
C018
ENDCHAR
STARTCHAR 01CE
ENCODING 462
SWIDTH 600 0
DWIDTH 12 0
BBX 9 16 1 0
BITMAP
2200
1400
1400
0800
0000
3E00
7F00
4380
0180
3F80
7F80
C180
C180
C380
FF80
7D80
ENDCHAR
STARTCHAR 01CF
ENCODING 463
SWIDTH 300 0
DWIDTH 6 0
BBX 6 19 0 0
BITMAP
CC
78
30
00
30
30
30
30
30
30
30
30
30
30
30
30
30
30
30
ENDCHAR
STARTCHAR 01D0
ENCODING 464
SWIDTH 300 0
DWIDTH 6 0
BBX 6 16 0 0
BITMAP
CC
48
78
30
00
30
30
30
30
30
30
30
30
30
30
30
ENDCHAR
STARTCHAR 01D1
ENCODING 465
SWIDTH 800 0
DWIDTH 16 0
BBX 14 19 1 0
BITMAP
0CC0
0780
0300
0000
0FC0
3FF0
3870
6018
E01C
C00C
C00C
C00C
C00C
C00C
E01C
6018
3870
3FF0
0FC0
ENDCHAR
STARTCHAR 01D2
ENCODING 466
SWIDTH 600 0
DWIDTH 12 0
BBX 10 16 1 0
BITMAP
3300
1200
1E00
0C00
0000
1E00
7F80
6180
C0C0
C0C0
C0C0
C0C0
C0C0
6180
7F80
1E00
ENDCHAR
STARTCHAR 01D3
ENCODING 467
SWIDTH 750 0
DWIDTH 15 0
BBX 11 19 2 0
BITMAP
1100
0A00
0E00
0000
C060
C060
C060
C060
C060
C060
C060
C060
C060
C060
C060
E0E0
60C0
7FC0
1F00
ENDCHAR
STARTCHAR 01D4
ENCODING 468
SWIDTH 650 0
DWIDTH 13 0
BBX 9 16 2 0
BITMAP
2200
3600
1400
0800
0000
C180
C180
C180
C180
C180
C180
C180
C180
E380
7F80
3D80
ENDCHAR
STARTCHAR 01D5
ENCODING 469
SWIDTH 750 0
DWIDTH 15 0
BBX 11 21 2 0
BITMAP
3F00
3F00
0000
3300
3300
0000
C060
C060
C060
C060
C060
C060
C060
C060
C060
C060
C060
E0E0
60C0
7FC0
1F00
ENDCHAR
STARTCHAR 01D6
ENCODING 470
SWIDTH 650 0
DWIDTH 13 0
BBX 9 18 2 0
BITMAP
7E00
7E00
0000
3600
3600
0000
0000
C180
C180
C180
C180
C180
C180
C180
C180
E380
7F80
3D80
ENDCHAR
STARTCHAR 01D7
ENCODING 471
SWIDTH 750 0
DWIDTH 15 0
BBX 11 21 2 0
BITMAP
0100
0300
0600
1980
1980
0000
C060
C060
C060
C060
C060
C060
C060
C060
C060
C060
C060
E0E0
60C0
7FC0
1F00
ENDCHAR
STARTCHAR 01D8
ENCODING 472
SWIDTH 650 0
DWIDTH 13 0
BBX 9 18 2 0
BITMAP
0400
0C00
1800
6600
6600
0000
0000
C180
C180
C180
C180
C180
C180
C180
C180
E380
7F80
3D80
ENDCHAR
STARTCHAR 01D9
ENCODING 473
SWIDTH 750 0
DWIDTH 15 0
BBX 11 21 2 0
BITMAP
3300
1E00
0C00
3300
3300
0000
C060
C060
C060
C060
C060
C060
C060
C060
C060
C060
C060
E0E0
60C0
7FC0
1F00
ENDCHAR
STARTCHAR 01DA
ENCODING 474
SWIDTH 650 0
DWIDTH 13 0
BBX 9 18 2 0
BITMAP
6600
3C00
1800
6600
6600
0000
0000
C180
C180
C180
C180
C180
C180
C180
C180
E380
7F80
3D80
ENDCHAR
STARTCHAR 01DB
ENCODING 475
SWIDTH 750 0
DWIDTH 15 0
BBX 11 21 2 0
BITMAP
3000
1800
0800
3300
3300
0000
C060
C060
C060
C060
C060
C060
C060
C060
C060
C060
C060
E0E0
60C0
7FC0
1F00
ENDCHAR
STARTCHAR 01DC
ENCODING 476
SWIDTH 650 0
DWIDTH 13 0
BBX 9 18 2 0
BITMAP
6000
3000
1000
6600
6600
0000
0000
C180
C180
C180
C180
C180
C180
C180
C180
E380
7F80
3D80
ENDCHAR
STARTCHAR 01DD
ENCODING 477
SWIDTH 600 0
DWIDTH 12 0
BBX 10 11 1 0
BITMAP
7E00
FF00
8180
00C0
FFC0
FFC0
C0C0
C0C0
6180
7F80
1E00
ENDCHAR
STARTCHAR 01DE
ENCODING 478
SWIDTH 700 0
DWIDTH 14 0
BBX 13 21 0 0
BITMAP
0FC0
0FC0
0000
0CC0
0CC0
0000
0700
0700
0700
0D80
0D80
1DC0
18C0
18C0
3060
3060
3FE0
7FF0
6030
6030
C018
ENDCHAR
STARTCHAR 01DF
ENCODING 479
SWIDTH 600 0
DWIDTH 12 0
BBX 9 18 1 0
BITMAP
3F00
3F00
0000
3600
3600
0000
0000
3E00
7F00
4380
0180
3F80
7F80
C180
C180
C380
FF80
7D80
ENDCHAR
STARTCHAR 01E0
ENCODING 480
SWIDTH 700 0
DWIDTH 14 0
BBX 13 21 0 0
BITMAP
0FC0
0FC0
0000
0300
0300
0000
0700
0700
0700
0D80
0D80
1DC0
18C0
18C0
3060
3060
3FE0
7FF0
6030
6030
C018
ENDCHAR
STARTCHAR 01E1
ENCODING 481
SWIDTH 600 0
DWIDTH 12 0
BBX 9 18 1 0
BITMAP
3F00
3F00
0000
0C00
0C00
0000
0000
3E00
7F00
4380
0180
3F80
7F80
C180
C180
C380
FF80
7D80
ENDCHAR
STARTCHAR 01E2
ENCODING 482
SWIDTH 1000 0
DWIDTH 20 0
BBX 18 18 0 0
BITMAP
007E00
007E00
000000
03FFC0
03FFC0
066000
066000
0E6000
0C6000
0C7FC0
187FC0
186000
306000
3FE000
7FE000
606000
607FC0
C07FC0
ENDCHAR
STARTCHAR 01E3
ENCODING 483
SWIDTH 950 0
DWIDTH 19 0
BBX 17 15 1 0
BITMAP
03F000
03F000
000000
000000
3E3E00
7F7F00
43C300
018180
3FFF80
7FFF80
C18000
C18000
C3E080
FEFF80
3C3F00
ENDCHAR
STARTCHAR 01E4
ENCODING 484
SWIDTH 800 0
DWIDTH 16 0
BBX 14 15 1 0
BITMAP
0FE0
3FF0
7810
6000
E000
C000
C000
C0F8
C0F8
C018
E07C
6018
3818
1FF0
0FC0
ENDCHAR
STARTCHAR 01E5
ENCODING 485
SWIDTH 650 0
DWIDTH 13 0
BBX 12 15 1 -4
BITMAP
3EC0
7FC0
61C0
C0C0
C0C0
C0C0
C0C0
C0C0
61C0
7FC0
3EC0
7FF0
41C0
7F80
3F00
ENDCHAR
STARTCHAR 01E6
ENCODING 486
SWIDTH 800 0
DWIDTH 16 0
BBX 13 19 1 0
BITMAP
0CC0
0780
0300
0000
0FE0
3FF0
7810
6000
E000
C000
C000
C0F8
C0F8
C018
E018
6018
3818
1FF0
0FC0
ENDCHAR
STARTCHAR 01E7
ENCODING 487
SWIDTH 650 0
DWIDTH 13 0
BBX 10 20 1 -4
BITMAP
3300
1200
1E00
0C00
0000
3EC0
7FC0
61C0
C0C0
C0C0
C0C0
C0C0
C0C0
61C0
7FC0
3EC0
00C0
4180
7F80
3E00
ENDCHAR
STARTCHAR 01E8
ENCODING 488
SWIDTH 650 0
DWIDTH 13 0
BBX 11 19 2 0
BITMAP
3300
1E00
0C00
0000
C1C0
C380
C700
CE00
DC00
F800
F000
F000
F800
DC00
CE00
C700
C380
C1C0
C0E0
ENDCHAR
STARTCHAR 01E9
ENCODING 489
SWIDTH 600 0
DWIDTH 12 0
BBX 11 19 0 0
BITMAP
CC00
7800
3000
0000
3000
3000
3000
3000
30E0
31C0
3380
3700
3E00
3C00
3E00
3700
3380
31C0
30E0
ENDCHAR
STARTCHAR 01EA
ENCODING 490
SWIDTH 800 0
DWIDTH 16 0
BBX 14 19 1 -4
BITMAP
0FC0
3FF0
3870
6018
E01C
C00C
C00C
C00C
C00C
C00C
E01C
6018
3870
3FF0
0FC0
0200
0600
0600
0380
ENDCHAR
STARTCHAR 01EB
ENCODING 491
SWIDTH 600 0
DWIDTH 12 0
BBX 10 15 1 -4
BITMAP
1E00
7F80
6180
C0C0
C0C0
C0C0
C0C0
C0C0
6180
7F80
1E00
0800
1800
1800
0E00
ENDCHAR
STARTCHAR 01EC
ENCODING 492
SWIDTH 800 0
DWIDTH 16 0
BBX 14 22 1 -4
BITMAP
0FC0
0FC0
0000
0FC0
3FF0
3870
6018
E01C
C00C
C00C
C00C
C00C
C00C
E01C
6018
3870
3FF0
0FC0
0200
0600
0600
0380
ENDCHAR
STARTCHAR 01ED
ENCODING 493
SWIDTH 600 0
DWIDTH 12 0
BBX 10 19 1 -4
BITMAP
3F00
3F00
0000
0000
1E00
7F80
6180
C0C0
C0C0
C0C0
C0C0
C0C0
6180
7F80
1E00
0800
1800
1800
0E00
ENDCHAR
STARTCHAR 01EE
ENCODING 494
SWIDTH 650 0
DWIDTH 13 0
BBX 11 19 2 0
BITMAP
3300
1E00
0C00
0000
FFC0
FFC0
0180
0380
0700
0E00
0F00
0FC0
00C0
0060
0060
0060
80E0
FFC0
3F00
ENDCHAR
STARTCHAR 01EF
ENCODING 495
SWIDTH 600 0
DWIDTH 12 0
BBX 10 20 1 -4
BITMAP
6600
2400
3C00
1800
0000
FF80
FF80
0300
0600
0C00
1C00
1E00
1F80
01C0
00C0
00C0
00C0
81C0
FF80
7E00
ENDCHAR
STARTCHAR 01F0
ENCODING 496
SWIDTH 300 0
DWIDTH 6 0
BBX 6 20 0 -4
BITMAP
CC
48
78
30
00
30
30
30
30
30
30
30
30
30
30
30
30
30
E0
E0
ENDCHAR
STARTCHAR 01F1
ENCODING 497
SWIDTH 1400 0
DWIDTH 28 0
BBX 25 15 2 0
BITMAP
FF07FF80
FFC7FF80
C1E00300
C0600600
C0700E00
C0301C00
C0303800
C0303000
C0306000
C030E000
C071C000
C0618000
C1E30000
FFC7FF80
FF07FF80
ENDCHAR
STARTCHAR 01F2
ENCODING 498
SWIDTH 1300 0
DWIDTH 26 0
BBX 23 15 2 0
BITMAP
FF0000
FFC000
C1E000
C06000
C073FE
C033FE
C0300C
C03018
C03038
C03070
C070E0
C060C0
C1E1C0
FFC3FE
FF03FE
ENDCHAR
STARTCHAR 01F3
ENCODING 499
SWIDTH 1150 0
DWIDTH 23 0
BBX 21 15 1 0
BITMAP
00C000
00C000
00C000
00C000
3ECFF8
7FCFF8
61C030
C0C060
C0C0E0
C0C1C0
C0C380
C0C300
61C700
7FCFF8
3ECFF8
ENDCHAR
STARTCHAR 01F4
ENCODING 500
SWIDTH 800 0
DWIDTH 16 0
BBX 13 19 1 0
BITMAP
0080
0180
0300
0000
0FE0
3FF0
7810
6000
E000
C000
C000
C0F8
C0F8
C018
E018
6018
3818
1FF0
0FC0
ENDCHAR
STARTCHAR 01F5
ENCODING 501
SWIDTH 650 0
DWIDTH 13 0
BBX 10 20 1 -4
BITMAP
0600
0C00
1800
3000
0000
3EC0
7FC0
61C0
C0C0
C0C0
C0C0
C0C0
C0C0
61C0
7FC0
3EC0
00C0
4180
7F80
3E00
ENDCHAR
STARTCHAR 01F6
ENCODING 502
SWIDTH 1100 0
DWIDTH 22 0
BBX 18 15 2 0
BITMAP
C06000
C06000
C06000
C06000
C060C0
C060C0
FFE0C0
FFE0C0
C060C0
C060C0
C060C0
C060C0
C071C0
C03F80
C01F00
ENDCHAR
STARTCHAR 01F7
ENCODING 503
SWIDTH 700 0
DWIDTH 14 0
BBX 11 19 2 -4
BITMAP
CF80
DFC0
F0E0
E060
C060
C060
C0C0
C180
C380
CE00
FC00
F800
E000
C000
C000
C000
C000
C000
C000
ENDCHAR
STARTCHAR 01F8
ENCODING 504
SWIDTH 750 0
DWIDTH 15 0
BBX 11 19 2 0
BITMAP
0C00
0600
0200
0000
E060
F060
F060
F860
D860
DC60
CC60
CE60
C660
C760
C360
C3E0
C1E0
C0E0
C0E0
ENDCHAR
STARTCHAR 01F9
ENCODING 505
SWIDTH 650 0
DWIDTH 13 0
BBX 9 16 2 0
BITMAP
3000
1800
0C00
0600
0000
DE00
FF00
E380
C180
C180
C180
C180
C180
C180
C180
C180
ENDCHAR
STARTCHAR 01FA
ENCODING 506
SWIDTH 700 0
DWIDTH 14 0
BBX 13 19 0 0
BITMAP
0708
0898
08B0
0880
0700
0700
0F80
0D80
0D80
18C0
18C0
18C0
3060
3060
3FE0
7FF0
6030
6030
C018
ENDCHAR
STARTCHAR 01FB
ENCODING 507
SWIDTH 600 0
DWIDTH 12 0
BBX 11 19 1 0
BITMAP
0020
0060
1CC0
2200
2200
2200
1C00
0000
3E00
7F00
4380
0180
3F80
7F80
C180
C180
C380
FF80
7D80
ENDCHAR
STARTCHAR 01FC
ENCODING 508
SWIDTH 1000 0
DWIDTH 20 0
BBX 18 19 0 0
BITMAP
000800
001800
003000
000000
03FFC0
03FFC0
066000
066000
0E6000
0C6000
0C7FC0
187FC0
186000
306000
3FE000
7FE000
606000
607FC0
C07FC0
ENDCHAR
STARTCHAR 01FD
ENCODING 509
SWIDTH 950 0
DWIDTH 19 0
BBX 17 16 1 0
BITMAP
00C000
018000
030000
060000
000000
3E3E00
7F7F00
43C300
018180
3FFF80
7FFF80
C18000
C18000
C3E080
FEFF80
3C3F00
ENDCHAR
STARTCHAR 01FE
ENCODING 510
SWIDTH 800 0
DWIDTH 16 0
BBX 14 19 1 -1
BITMAP
0100
0300
0600
0000
0FC4
3FE8
7878
6038
E078
C0CC
C18C
C30C
C60C
CC0C
781C
7018
7878
5FF0
8FC0
ENDCHAR
STARTCHAR 01FF
ENCODING 511
SWIDTH 600 0
DWIDTH 12 0
BBX 10 17 1 -1
BITMAP
0600
0C00
1800
3000
0040
1E40
7F80
6180
C3C0
C6C0
CCC0
D8C0
F0C0
6180
7F80
9E00
8000
ENDCHAR
STARTCHAR 0200
ENCODING 512
SWIDTH 700 0
DWIDTH 14 0
BBX 13 19 0 0
BITMAP
1B00
0D80
04C0
0000
0700
0700
0700
0D80
0D80
1DC0
18C0
18C0
3060
3060
3FE0
7FF0
6030
6030
C018
ENDCHAR
STARTCHAR 0201
ENCODING 513
SWIDTH 600 0
DWIDTH 12 0
BBX 9 16 1 0
BITMAP
CC00
6600
2200
3300
0000
3E00
7F00
4380
0180
3F80
7F80
C180
C180
C380
FF80
7D80
ENDCHAR
STARTCHAR 0202
ENCODING 514
SWIDTH 700 0
DWIDTH 14 0
BBX 13 18 0 0
BITMAP
0780
0CC0
0000
0700
0700
0700
0D80
0D80
1DC0
18C0
18C0
3060
3060
3FE0
7FF0
6030
6030
C018
ENDCHAR
STARTCHAR 0203
ENCODING 515
SWIDTH 600 0
DWIDTH 12 0
BBX 9 16 1 0
BITMAP
1E00
3F00
2100
0000
0000
3E00
7F00
4380
0180
3F80
7F80
C180
C180
C380
FF80
7D80
ENDCHAR
STARTCHAR 0204
ENCODING 516
SWIDTH 650 0
DWIDTH 13 0
BBX 9 19 2 0
BITMAP
6C00
3600
1300
0000
FF80
FF80
C000
C000
C000
C000
FF80
FF80
C000
C000
C000
C000
C000
FF80
FF80
ENDCHAR
STARTCHAR 0205
ENCODING 517
SWIDTH 600 0
DWIDTH 12 0
BBX 10 16 1 0
BITMAP
6600
3300
1100
1980
0000
1F00
7F80
61C0
C0C0
FFC0
FFC0
C000
C000
7040
3FC0
1F80
ENDCHAR
STARTCHAR 0206
ENCODING 518
SWIDTH 650 0
DWIDTH 13 0
BBX 9 18 2 0
BITMAP
1E00
3300
0000
FF80
FF80
C000
C000
C000
C000
FF80
FF80
C000
C000
C000
C000
C000
FF80
FF80
ENDCHAR
STARTCHAR 0207
ENCODING 519
SWIDTH 600 0
DWIDTH 12 0
BBX 10 16 1 0
BITMAP
0F00
1F80
1080
0000
0000
1F00
7F80
61C0
C0C0
FFC0
FFC0
C000
C000
7040
3FC0
1F80
ENDCHAR
STARTCHAR 0208
ENCODING 520
SWIDTH 300 0
DWIDTH 6 0
BBX 7 19 -1 0
BITMAP
D8
6C
26
00
18
18
18
18
18
18
18
18
18
18
18
18
18
18
18
ENDCHAR
STARTCHAR 0209
ENCODING 521
SWIDTH 300 0
DWIDTH 6 0
BBX 8 16 -1 0
BITMAP
CC
66
22
33
00
18
18
18
18
18
18
18
18
18
18
18
ENDCHAR
STARTCHAR 020A
ENCODING 522
SWIDTH 300 0
DWIDTH 6 0
BBX 6 18 0 0
BITMAP
78
CC
00
30
30
30
30
30
30
30
30
30
30
30
30
30
30
30
ENDCHAR
STARTCHAR 020B
ENCODING 523
SWIDTH 300 0
DWIDTH 6 0
BBX 6 16 0 0
BITMAP
78
FC
84
00
00
30
30
30
30
30
30
30
30
30
30
30
ENDCHAR
STARTCHAR 020C
ENCODING 524
SWIDTH 800 0
DWIDTH 16 0
BBX 14 19 1 0
BITMAP
1B00
0D80
04C0
0000
0FC0
3FF0
3870
6018
E01C
C00C
C00C
C00C
C00C
C00C
E01C
6018
3870
3FF0
0FC0
ENDCHAR
STARTCHAR 020D
ENCODING 525
SWIDTH 600 0
DWIDTH 12 0
BBX 10 16 1 0
BITMAP
6600
3300
1100
1980
0000
1E00
7F80
6180
C0C0
C0C0
C0C0
C0C0
C0C0
6180
7F80
1E00
ENDCHAR
STARTCHAR 020E
ENCODING 526
SWIDTH 800 0
DWIDTH 16 0
BBX 14 18 1 0
BITMAP
0780
0CC0
0000
0FC0
3FF0
3870
6018
E01C
C00C
C00C
C00C
C00C
C00C
E01C
6018
3870
3FF0
0FC0
ENDCHAR
STARTCHAR 020F
ENCODING 527
SWIDTH 600 0
DWIDTH 12 0
BBX 10 16 1 0
BITMAP
1E00
3F00
2100
0000
0000
1E00
7F80
6180
C0C0
C0C0
C0C0
C0C0
C0C0
6180
7F80
1E00
ENDCHAR
STARTCHAR 0210
ENCODING 528
SWIDTH 700 0
DWIDTH 14 0
BBX 11 19 2 0
BITMAP
D800
6C00
2600
0000
FE00
FF00
C380
C180
C180
C380
FF00
FE00
C700
C380
C180
C180
C0C0
C0C0
C060
ENDCHAR
STARTCHAR 0211
ENCODING 529
SWIDTH 400 0
DWIDTH 8 0
BBX 8 16 0 0
BITMAP
CC
66
22
33
00
37
3F
38
30
30
30
30
30
30
30
30
ENDCHAR
STARTCHAR 0212
ENCODING 530
SWIDTH 700 0
DWIDTH 14 0
BBX 11 18 2 0
BITMAP
3C00
6600
0000
FE00
FF00
C380
C180
C180
C380
FF00
FE00
C700
C380
C180
C180
C0C0
C0C0
C060
ENDCHAR
STARTCHAR 0213
ENCODING 531
SWIDTH 400 0
DWIDTH 8 0
BBX 6 16 2 0
BITMAP
78
FC
84
00
00
DC
FC
E0
C0
C0
C0
C0
C0
C0
C0
C0
ENDCHAR
STARTCHAR 0214
ENCODING 532
SWIDTH 750 0
DWIDTH 15 0
BBX 11 19 2 0
BITMAP
3600
1B00
0980
0000
C060
C060
C060
C060
C060
C060
C060
C060
C060
C060
C060
E0E0
60C0
7FC0
1F00
ENDCHAR
STARTCHAR 0215
ENCODING 533
SWIDTH 650 0
DWIDTH 13 0
BBX 9 16 2 0
BITMAP
CC00
6600
2200
3300
0000
C180
C180
C180
C180
C180
C180
C180
C180
E380
7F80
3D80
ENDCHAR
STARTCHAR 0216
ENCODING 534
SWIDTH 750 0
DWIDTH 15 0
BBX 11 18 2 0
BITMAP
1E00
3300
0000
C060
C060
C060
C060
C060
C060
C060
C060
C060
C060
C060
E0E0
60C0
7FC0
1F00
ENDCHAR
STARTCHAR 0217
ENCODING 535
SWIDTH 650 0
DWIDTH 13 0
BBX 9 16 2 0
BITMAP
1E00
3F00
2100
0000
0000
C180
C180
C180
C180
C180
C180
C180
C180
E380
7F80
3D80
ENDCHAR
STARTCHAR 0218
ENCODING 536
SWIDTH 650 0
DWIDTH 13 0
BBX 10 20 1 -5
BITMAP
3F00
7F80
E080
C000
C000
E000
7C00
3F00
0380
00C0
00C0
00C0
81C0
FF80
7F00
0000
0000
0C00
0C00
0800
ENDCHAR
STARTCHAR 0219
ENCODING 537
SWIDTH 500 0
DWIDTH 10 0
BBX 8 16 1 -5
BITMAP
3E
FF
C1
C0
FC
3E
07
03
83
FF
7C
00
00
18
18
10
ENDCHAR
STARTCHAR 021A
ENCODING 538
SWIDTH 600 0
DWIDTH 12 0
BBX 12 20 0 -5
BITMAP
FFF0
FFF0
0600
0600
0600
0600
0600
0600
0600
0600
0600
0600
0600
0600
0600
0000
0000
0600
0600
0400
ENDCHAR
STARTCHAR 021B
ENCODING 539
SWIDTH 400 0
DWIDTH 8 0
BBX 7 19 1 -5
BITMAP
60
60
60
FE
FE
60
60
60
60
60
60
60
7E
3E
00
00
18
18
10
ENDCHAR
STARTCHAR 021C
ENCODING 540
SWIDTH 650 0
DWIDTH 13 0
BBX 9 19 2 -5
BITMAP
3C00
FF00
C380
0180
0180
0180
0300
0600
1C00
7F00
4180
0180
0180
0180
0300
0600
1C00
F800
C000
ENDCHAR
STARTCHAR 021D
ENCODING 541
SWIDTH 500 0
DWIDTH 10 0
BBX 8 15 1 -4
BITMAP
7E
C7
03
03
03
06
1C
77
03
01
03
07
0E
78
C0
ENDCHAR
STARTCHAR 021E
ENCODING 542
SWIDTH 750 0
DWIDTH 15 0
BBX 11 19 2 0
BITMAP
1980
0F00
0600
0000
C060
C060
C060
C060
C060
C060
FFE0
FFE0
C060
C060
C060
C060
C060
C060
C060
ENDCHAR
STARTCHAR 021F
ENCODING 543
SWIDTH 650 0
DWIDTH 13 0
BBX 11 19 0 0
BITMAP
CC00
7800
3000
0000
3000
3000
3000
3000
3780
3FC0
38E0
3060
3060
3060
3060
3060
3060
3060
3060
ENDCHAR
STARTCHAR 0220
ENCODING 544
SWIDTH 750 0
DWIDTH 15 0
BBX 11 19 2 -3
BITMAP
CF80
DFC0
F0C0
E060
C060
C060
C060
C060
C060
C060
C060
C060
C060
C060
C060
0060
0060
0060
0060
ENDCHAR
STARTCHAR 0221
ENCODING 545
SWIDTH 850 0
DWIDTH 17 0
BBX 15 16 1 -1
BITMAP
00C0
00C0
00C0
00C0
3EC0
73C0
61C0
C0C0
C0C0
C0C0
C0DC
C0FE
61E6
73EC
3EFC
00C0
ENDCHAR
STARTCHAR 0222
ENCODING 546
SWIDTH 650 0
DWIDTH 13 0
BBX 11 15 1 0
BITMAP
0380
00C0
3860
E060
C060
C060
60C0
3F80
3F80
E0E0
C060
C060
E0E0
7FC0
3F80
ENDCHAR
STARTCHAR 0223
ENCODING 547
SWIDTH 550 0
DWIDTH 11 0
BBX 9 12 1 0
BITMAP
C180
C180
C180
E380
7F00
7F00
E380
C180
C180
E380
7F00
3E00
ENDCHAR
STARTCHAR 0224
ENCODING 548
SWIDTH 700 0
DWIDTH 14 0
BBX 12 19 1 -4
BITMAP
FFF0
FFF0
0060
00C0
01C0
0380
0700
0600
0C00
1C00
3800
3000
6000
FFF0
FFF0
0030
0030
03F0
03E0
ENDCHAR
STARTCHAR 0225
ENCODING 549
SWIDTH 550 0
DWIDTH 11 0
BBX 9 15 1 -4
BITMAP
FF80
FF80
0300
0600
0E00
1C00
3800
3000
7000
FF80
FF80
0180
0180
1F00
1F00
ENDCHAR
STARTCHAR 0226
ENCODING 550
SWIDTH 700 0
DWIDTH 14 0
BBX 13 19 0 0
BITMAP
0300
0300
0000
0000
0700
0700
0700
0D80
0D80
1DC0
18C0
18C0
3060
3060
3FE0
7FF0
6030
6030
C018
ENDCHAR
STARTCHAR 0227
ENCODING 551
SWIDTH 600 0
DWIDTH 12 0
BBX 9 15 1 0
BITMAP
0C00
0C00
0000
0000
3E00
7F00
4380
0180
3F80
7F80
C180
C180
C380
FF80
7D80
ENDCHAR
STARTCHAR 0228
ENCODING 552
SWIDTH 650 0
DWIDTH 13 0
BBX 9 19 2 -4
BITMAP
FF80
FF80
C000
C000
C000
C000
FF80
FF80
C000
C000
C000
C000
C000
FF80
FF80
0400
0600
0600
1C00
ENDCHAR
STARTCHAR 0229
ENCODING 553
SWIDTH 600 0
DWIDTH 12 0
BBX 10 15 1 -4
BITMAP
1F00
7F80
61C0
C0C0
FFC0
FFC0
C000
C000
7040
3FC0
1F80
0400
0600
0600
1C00
ENDCHAR
STARTCHAR 022A
ENCODING 554
SWIDTH 800 0
DWIDTH 16 0
BBX 14 21 1 0
BITMAP
0FC0
0FC0
0000
0CC0
0CC0
0000
0FC0
3FF0
3870
6018
E01C
C00C
C00C
C00C
C00C
C00C
E01C
6018
3870
3FF0
0FC0
ENDCHAR
STARTCHAR 022B
ENCODING 555
SWIDTH 600 0
DWIDTH 12 0
BBX 10 18 1 0
BITMAP
3F00
3F00
0000
3300
3300
0000
0000
1E00
7F80
6180
C0C0
C0C0
C0C0
C0C0
C0C0
6180
7F80
1E00
ENDCHAR
STARTCHAR 022C
ENCODING 556
SWIDTH 800 0
DWIDTH 16 0
BBX 14 21 1 0
BITMAP
0FC0
0FC0
0000
0000
0640
0980
0FC0
3FF0
3870
6018
E01C
C00C
C00C
C00C
C00C
C00C
E01C
6018
3870
3FF0
0FC0
ENDCHAR
STARTCHAR 022D
ENCODING 557
SWIDTH 600 0
DWIDTH 12 0
BBX 10 18 1 0
BITMAP
3F00
3F00
0000
0000
1900
2600
0000
1E00
7F80
6180
C0C0
C0C0
C0C0
C0C0
C0C0
6180
7F80
1E00
ENDCHAR
STARTCHAR 022E
ENCODING 558
SWIDTH 800 0
DWIDTH 16 0
BBX 14 19 1 0
BITMAP
0300
0300
0000
0000
0FC0
3FF0
3870
6018
E01C
C00C
C00C
C00C
C00C
C00C
E01C
6018
3870
3FF0
0FC0
ENDCHAR
STARTCHAR 022F
ENCODING 559
SWIDTH 600 0
DWIDTH 12 0
BBX 10 15 1 0
BITMAP
0C00
0C00
0000
0000
1E00
7F80
6180
C0C0
C0C0
C0C0
C0C0
C0C0
6180
7F80
1E00
ENDCHAR
STARTCHAR 0230
ENCODING 560
SWIDTH 800 0
DWIDTH 16 0
BBX 14 21 1 0
BITMAP
0FC0
0FC0
0000
0300
0300
0000
0FC0
3FF0
3870
6018
E01C
C00C
C00C
C00C
C00C
C00C
E01C
6018
3870
3FF0
0FC0
ENDCHAR
STARTCHAR 0231
ENCODING 561
SWIDTH 600 0
DWIDTH 12 0
BBX 10 18 1 0
BITMAP
3F00
3F00
0000
0C00
0C00
0000
0000
1E00
7F80
6180
C0C0
C0C0
C0C0
C0C0
C0C0
6180
7F80
1E00
ENDCHAR
STARTCHAR 0232
ENCODING 562
SWIDTH 600 0
DWIDTH 12 0
BBX 12 18 0 0
BITMAP
1F80
1F80
0000
E070
6060
30C0
39C0
1980
1F80
0F00
0600
0600
0600
0600
0600
0600
0600
0600
ENDCHAR
STARTCHAR 0233
ENCODING 563
SWIDTH 550 0
DWIDTH 11 0
BBX 11 19 0 -4
BITMAP
1F80
1F80
0000
0000
C060
60C0
60C0
7180
3180
3B80
1B00
1B00
0E00
0E00
0C00
0C00
1C00
7800
7000
ENDCHAR
STARTCHAR 0234
ENCODING 564
SWIDTH 500 0
DWIDTH 10 0
BBX 6 16 2 -1
BITMAP
C0
C0
C0
C0
C0
C0
C0
C0
C0
C0
DC
FC
E4
EC
FC
C0
ENDCHAR
STARTCHAR 0235
ENCODING 565
SWIDTH 850 0
DWIDTH 17 0
BBX 14 12 2 -1
BITMAP
DF00
F300
C180
C180
C180
C180
C1B8
C1FC
C1EC
C1DC
C0F8
0180
ENDCHAR
STARTCHAR 0236
ENCODING 566
SWIDTH 500 0
DWIDTH 10 0
BBX 7 15 1 -1
BITMAP
60
60
60
FC
60
60
60
60
60
6E
7E
72
76
7E
60
ENDCHAR
STARTCHAR 0237
ENCODING 567
SWIDTH 300 0
DWIDTH 6 0
BBX 4 15 0 -4
BITMAP
30
30
30
30
30
30
30
30
30
30
30
30
30
E0
E0
ENDCHAR
STARTCHAR 0238
ENCODING 568
SWIDTH 1000 0
DWIDTH 20 0
BBX 18 15 1 0
BITMAP
00C000
00C000
00C000
00C000
3EDF00
7FFF80
61E180
C0C0C0
C0C0C0
C0C0C0
C0C0C0
C0C0C0
61E180
7FFF80
3EDF00
ENDCHAR
STARTCHAR 0239
ENCODING 569
SWIDTH 1000 0
DWIDTH 20 0
BBX 18 15 1 -4
BITMAP
3EDF00
7FFF80
61E180
C0C0C0
C0C0C0
C0C0C0
C0C0C0
C0C0C0
61E180
7FFF80
3EDF00
00C000
00C000
00C000
00C000
ENDCHAR
STARTCHAR 023A
ENCODING 570
SWIDTH 700 0
DWIDTH 14 0
BBX 14 15 0 0
BITMAP
030C
0718
07B0
05A0
0CC0
0CC0
19C0
1B60
1E60
3C60
3FF0
7830
7018
6018
C018
ENDCHAR
STARTCHAR 023B
ENCODING 571
SWIDTH 700 0
DWIDTH 14 0
BBX 14 15 0 0
BITMAP
03EC
0FF8
1818
3020
3060
60C0
6180
6300
6600
6400
7C00
3800
3808
7E38
C7F0
ENDCHAR
STARTCHAR 023C
ENCODING 572
SWIDTH 550 0
DWIDTH 11 0
BBX 9 11 1 0
BITMAP
1F80
7180
6300
C600
C400
C800
D000
F000
6000
F180
BF80
ENDCHAR
STARTCHAR 023D
ENCODING 573
SWIDTH 550 0
DWIDTH 11 0
BBX 11 15 0 0
BITMAP
3000
3000
3000
3000
3000
3000
3000
FC00
FC00
3000
3000
3000
3000
3FE0
3FE0
ENDCHAR
STARTCHAR 023E
ENCODING 574
SWIDTH 600 0
DWIDTH 12 0
BBX 13 15 0 0
BITMAP
FFF8
FFF0
0620
0660
06C0
0780
0700
0600
0600
0E00
1E00
3600
6600
C600
8600
ENDCHAR
STARTCHAR 023F
ENCODING 575
SWIDTH 500 0
DWIDTH 10 0
BBX 9 16 1 -4
BITMAP
7F00
6300
C000
C000
7000
3E00
0700
0300
0100
C300
FE00
1800
0C00
0700
0380
0180
ENDCHAR
STARTCHAR 0240
ENCODING 576
SWIDTH 550 0
DWIDTH 11 0
BBX 10 16 1 -5
BITMAP
FF80
FF80
0300
0600
0C00
1800
3800
7000
6000
C000
F000
3800
1C00
0E00
07C0
01C0
ENDCHAR
STARTCHAR 0241
ENCODING 577
SWIDTH 600 0
DWIDTH 12 0
BBX 10 15 1 0
BITMAP
7F00
FF80
81C0
00C0
00C0
00C0
01C0
1F80
1F00
1800
1800
1800
1800
1800
1800
ENDCHAR
STARTCHAR 0242
ENCODING 578
SWIDTH 500 0
DWIDTH 10 0
BBX 8 11 1 0
BITMAP
7C
FE
87
03
03
03
07
3E
3C
30
30
ENDCHAR
STARTCHAR 0243
ENCODING 579
SWIDTH 700 0
DWIDTH 14 0
BBX 12 15 0 0
BITMAP
3F80
3FC0
30E0
3060
3060
30E0
3FC0
3FC0
3060
FE30
FE30
3030
3070
3FE0
3FC0
ENDCHAR
STARTCHAR 0244
ENCODING 580
SWIDTH 750 0
DWIDTH 15 0
BBX 15 15 0 0
BITMAP
3018
3018
3018
3018
3018
FFFE
FFFE
3018
3018
3018
3018
3838
1C70
0FE0
07C0
ENDCHAR
STARTCHAR 0245
ENCODING 581
SWIDTH 700 0
DWIDTH 14 0
BBX 13 15 0 0
BITMAP
0700
0700
0700
0D80
0D80
1DC0
18C0
18C0
3060
3060
3060
6030
6030
6030
C018
ENDCHAR
STARTCHAR 0246
ENCODING 582
SWIDTH 650 0
DWIDTH 13 0
BBX 9 18 2 -1
BITMAP
0180
FF80
FF80
C300
C200
C600
C600
FF80
FF80
CC00
C800
D800
D800
D000
FF80
FF80
2000
6000
ENDCHAR
STARTCHAR 0247
ENCODING 583
SWIDTH 600 0
DWIDTH 12 0
BBX 10 15 1 -2
BITMAP
0180
0100
1F00
7380
66C0
C6C0
C4C0
FFC0
C800
D800
7800
70C0
3FC0
2000
6000
ENDCHAR
STARTCHAR 0248
ENCODING 584
SWIDTH 300 0
DWIDTH 6 0
BBX 7 19 -1 -4
BITMAP
18
18
18
18
18
18
18
7E
7E
18
18
18
18
18
18
18
38
F0
E0
ENDCHAR
STARTCHAR 0249
ENCODING 585
SWIDTH 300 0
DWIDTH 6 0
BBX 6 19 0 -4
BITMAP
30
30
00
00
30
30
30
30
30
FC
FC
30
30
30
30
30
30
E0
E0
ENDCHAR
STARTCHAR 024A
ENCODING 586
SWIDTH 800 0
DWIDTH 16 0
BBX 16 19 1 -4
BITMAP
0F98
3FD8
7078
6038
E038
C018
C018
C018
C018
C018
E038
6038
7078
3FD8
0F98
0018
001C
000F
0007
ENDCHAR
STARTCHAR 024B
ENCODING 587
SWIDTH 650 0
DWIDTH 13 0
BBX 12 15 1 -4
BITMAP
3EC0
7FC0
61C0
C0C0
C0C0
C0C0
C0C0
C0C0
61C0
7FC0
3EC0
00C0
00C0
00F0
0070
ENDCHAR
STARTCHAR 024C
ENCODING 588
SWIDTH 700 0
DWIDTH 14 0
BBX 13 15 0 0
BITMAP
3F80
3FC0
30E0
3060
3060
30E0
FFC0
FF80
31C0
30E0
3060
3060
3030
3030
3018
ENDCHAR
STARTCHAR 024D
ENCODING 589
SWIDTH 400 0
DWIDTH 8 0
BBX 8 11 0 0
BITMAP
37
3F
38
30
30
FC
FC
30
30
30
30
ENDCHAR
STARTCHAR 024E
ENCODING 590
SWIDTH 600 0
DWIDTH 12 0
BBX 12 15 0 0
BITMAP
C030
6070
6060
FFF0
19C0
1D80
0F00
0600
0600
0600
0600
0600
0600
0600
0600
ENDCHAR
STARTCHAR 024F
ENCODING 591
SWIDTH 600 0
DWIDTH 12 0
BBX 12 15 0 -5
BITMAP
6060
6060
20C0
30C0
3080
FFF0
1980
0B00
0F00
0E00
0600
0600
0C00
1C00
3800
ENDCHAR
STARTCHAR 0250
ENCODING 592
SWIDTH 600 0
DWIDTH 12 0
BBX 9 11 2 0
BITMAP
DF00
FF80
E180
C180
C180
FF00
FE00
C000
E000
7F00
3F00
ENDCHAR
STARTCHAR 0251
ENCODING 593
SWIDTH 650 0
DWIDTH 13 0
BBX 10 11 1 0
BITMAP
3EC0
7FC0
61C0
C0C0
C0C0
C0C0
C0C0
C0C0
61C0
7FC0
3EC0
ENDCHAR
STARTCHAR 0252
ENCODING 594
SWIDTH 650 0
DWIDTH 13 0
BBX 10 11 2 0
BITMAP
DF00
FF80
E180
C0C0
C0C0
C0C0
C0C0
C0C0
E180
FF80
DF00
ENDCHAR
STARTCHAR 0253
ENCODING 595
SWIDTH 650 0
DWIDTH 13 0
BBX 10 15 2 0
BITMAP
3C00
7C00
C000
C000
DF00
FF80
E180
C0C0
C0C0
C0C0
C0C0
C0C0
E180
FF80
DF00
ENDCHAR
STARTCHAR 0254
ENCODING 596
SWIDTH 550 0
DWIDTH 11 0
BBX 9 11 1 0
BITMAP
7C00
FF00
8700
0380
0180
0180
0180
0380
8700
FF00
7C00
ENDCHAR
STARTCHAR 0255
ENCODING 597
SWIDTH 550 0
DWIDTH 11 0
BBX 9 12 1 -1
BITMAP
1F00
7F80
6080
C000
C000
C000
CF00
FF80
7980
3F80
1F00
3000
ENDCHAR
STARTCHAR 0256
ENCODING 598
SWIDTH 650 0
DWIDTH 13 0
BBX 12 19 1 -4
BITMAP
00C0
00C0
00C0
00C0
3EC0
7FC0
61C0
C0C0
C0C0
C0C0
C0C0
C0C0
61C0
7FC0
3EC0
00C0
00C0
00F0
0070
ENDCHAR
STARTCHAR 0257
ENCODING 599
SWIDTH 700 0
DWIDTH 14 0
BBX 13 15 1 0
BITMAP
0078
0078
00C0
00C0
3EC0
7FC0
61C0
C0C0
C0C0
C0C0
C0C0
C0C0
61C0
7FC0
3EC0
ENDCHAR
STARTCHAR 0258
ENCODING 600
SWIDTH 600 0
DWIDTH 12 0
BBX 10 11 1 0
BITMAP
3E00
7F80
E180
C0C0
FFC0
FFC0
00C0
00C0
8380
FF00
7E00
ENDCHAR
STARTCHAR 0259
ENCODING 601
SWIDTH 600 0
DWIDTH 12 0
BBX 10 11 1 0
BITMAP
7E00
FF00
8180
00C0
FFC0
FFC0
C0C0
C0C0
6180
7F80
1E00
ENDCHAR
STARTCHAR 025A
ENCODING 602
SWIDTH 800 0
DWIDTH 16 0
BBX 15 11 1 0
BITMAP
7E00
FF38
81F8
01F8
07D8
1ECE
78CE
F0C0
E180
7F80
3E00
ENDCHAR
STARTCHAR 025B
ENCODING 603
SWIDTH 500 0
DWIDTH 10 0
BBX 8 11 1 0
BITMAP
3F
FF
C0
C0
7C
7C
E0
C0
E1
7F
3E
ENDCHAR
STARTCHAR 025C
ENCODING 604
SWIDTH 500 0
DWIDTH 10 0
BBX 8 11 1 0
BITMAP
7C
FF
83
03
3E
3E
07
03
87
FE
7C
ENDCHAR
STARTCHAR 025D
ENCODING 605
SWIDTH 750 0
DWIDTH 15 0
BBX 14 11 1 0
BITMAP
7C00
FF70
83F0
0330
3E30
3E1C
070C
0300
8700
FE00
7C00
ENDCHAR
STARTCHAR 025E
ENCODING 606
SWIDTH 650 0
DWIDTH 13 0
BBX 11 11 1 0
BITMAP
1F80
3FE0
7060
C060
C7C0
C7C0
C0E0
C060
70E0
7FC0
1F80
ENDCHAR
STARTCHAR 025F
ENCODING 607
SWIDTH 300 0
DWIDTH 6 0
BBX 6 15 0 -4
BITMAP
30
30
30
30
30
FC
FC
30
30
30
30
30
30
E0
E0
ENDCHAR
STARTCHAR 0260
ENCODING 608
SWIDTH 700 0
DWIDTH 14 0
BBX 13 19 1 -4
BITMAP
0078
00F8
00C0
00C0
3EC0
7FC0
61C0
C0C0
C0C0
C0C0
C0C0
C0C0
61C0
7FC0
3EC0
00C0
4180
7F80
3E00
ENDCHAR
STARTCHAR 0261
ENCODING 609
SWIDTH 650 0
DWIDTH 13 0
BBX 10 15 1 -4
BITMAP
3FC0
7FC0
60C0
C0C0
C0C0
C0C0
C0C0
C0C0
61C0
7FC0
3EC0
00C0
4180
7F80
3E00
ENDCHAR
STARTCHAR 0262
ENCODING 610
SWIDTH 650 0
DWIDTH 13 0
BBX 10 11 1 0
BITMAP
1F00
7F80
6080
C000
C000
C3C0
C3C0
C0C0
60C0
7FC0
1F80
ENDCHAR
STARTCHAR 0263
ENCODING 611
SWIDTH 600 0
DWIDTH 12 0
BBX 10 15 1 -4
BITMAP
E1C0
6180
7380
3300
3F00
1E00
1E00
0C00
1E00
1E00
1200
3300
3300
3F00
1E00
ENDCHAR
STARTCHAR 0264
ENCODING 612
SWIDTH 600 0
DWIDTH 12 0
BBX 10 11 1 0
BITMAP
E1C0
7380
3F00
1E00
0C00
1E00
1E00
3300
3300
3F00
1E00
ENDCHAR
STARTCHAR 0265
ENCODING 613
SWIDTH 650 0
DWIDTH 13 0
BBX 9 15 2 -4
BITMAP
C180
C180
C180
C180
C180
C180
C180
C180
E380
7F80
3D80
0180
0180
0180
0180
ENDCHAR
STARTCHAR 0266
ENCODING 614
SWIDTH 650 0
DWIDTH 13 0
BBX 9 15 2 0
BITMAP
7C00
7C00
C000
C000
DE00
FF00
E380
C180
C180
C180
C180
C180
C180
C180
C180
ENDCHAR
STARTCHAR 0267
ENCODING 615
SWIDTH 650 0
DWIDTH 13 0
BBX 9 19 2 -5
BITMAP
7C00
7C00
C000
C000
DE00
FF00
E380
C180
C180
C180
C180
C180
C180
C180
C180
0180
0180
1F80
1F00
ENDCHAR
STARTCHAR 0268
ENCODING 616
SWIDTH 300 0
DWIDTH 6 0
BBX 6 15 0 0
BITMAP
30
30
00
00
30
30
30
30
30
FC
FC
30
30
30
30
ENDCHAR
STARTCHAR 0269
ENCODING 617
SWIDTH 350 0
DWIDTH 7 0
BBX 5 11 2 0
BITMAP
C0
C0
C0
C0
C0
C0
C0
C0
C0
78
78
ENDCHAR
STARTCHAR 026A
ENCODING 618
SWIDTH 350 0
DWIDTH 7 0
BBX 6 11 1 0
BITMAP
FC
FC
30
30
30
30
30
30
30
FC
FC
ENDCHAR
STARTCHAR 026B
ENCODING 619
SWIDTH 400 0
DWIDTH 8 0
BBX 6 15 1 0
BITMAP
30
30
30
30
30
30
74
B4
B8
30
30
30
30
30
30
ENDCHAR
STARTCHAR 026C
ENCODING 620
SWIDTH 500 0
DWIDTH 10 0
BBX 8 15 1 0
BITMAP
0C
0C
0C
0C
7C
FC
CC
FF
7F
0C
0C
0C
0C
0C
0C
ENDCHAR
STARTCHAR 026D
ENCODING 621
SWIDTH 300 0
DWIDTH 6 0
BBX 4 19 2 -4
BITMAP
C0
C0
C0
C0
C0
C0
C0
C0
C0
C0
C0
C0
C0
C0
C0
C0
C0
70
70
ENDCHAR
STARTCHAR 026E
ENCODING 622
SWIDTH 700 0
DWIDTH 14 0
BBX 11 19 2 -4
BITMAP
C000
C000
C000
C000
FFC0
FFC0
C180
C300
C600
CE00
CF00
CFC0
C0E0
C060
C060
0060
40E0
7FC0
3F00
ENDCHAR
STARTCHAR 026F
ENCODING 623
SWIDTH 1000 0
DWIDTH 20 0
BBX 16 11 2 0
BITMAP
C183
C183
C183
C183
C183
C183
C183
C183
E3C7
7EFF
3C7B
ENDCHAR
STARTCHAR 0270
ENCODING 624
SWIDTH 1000 0
DWIDTH 20 0
BBX 16 15 2 -4
BITMAP
C183
C183
C183
C183
C183
C183
C183
C183
E3C7
7EFF
3C7B
0003
0003
0003
0003
ENDCHAR
STARTCHAR 0271
ENCODING 625
SWIDTH 1000 0
DWIDTH 20 0
BBX 16 15 2 -4
BITMAP
DE3C
FF7E
E3C7
C183
C183
C183
C183
C183
C183
C183
C183
0003
0003
003F
003E
ENDCHAR
STARTCHAR 0272
ENCODING 626
SWIDTH 650 0
DWIDTH 13 0
BBX 11 15 0 -4
BITMAP
3780
3FC0
38E0
3060
3060
3060
3060
3060
3060
3060
3060
3000
3000
E000
E000
ENDCHAR
STARTCHAR 0273
ENCODING 627
SWIDTH 650 0
DWIDTH 13 0
BBX 11 15 2 -4
BITMAP
DE00
FF00
E380
C180
C180
C180
C180
C180
C180
C180
C180
0180
0180
01E0
00E0
ENDCHAR
STARTCHAR 0274
ENCODING 628
SWIDTH 650 0
DWIDTH 13 0
BBX 9 11 2 0
BITMAP
E180
F180
F180
F980
D980
DD80
CD80
CF80
C780
C380
C380
ENDCHAR
STARTCHAR 0275
ENCODING 629
SWIDTH 600 0
DWIDTH 12 0
BBX 10 11 1 0
BITMAP
1E00
7F80
6180
C0C0
FFC0
FFC0
C0C0
C0C0
6180
7F80
1E00
ENDCHAR
STARTCHAR 0276
ENCODING 630
SWIDTH 850 0
DWIDTH 17 0
BBX 14 11 1 0
BITMAP
1FFC
3FFC
7180
E180
C1FC
C1FC
C180
E180
7180
7FFC
1FFC
ENDCHAR
STARTCHAR 0277
ENCODING 631
SWIDTH 700 0
DWIDTH 14 0
BBX 12 11 1 0
BITMAP
1F80
3FC0
70E0
E070
C030
C630
C630
C630
EF70
7FE0
39C0
ENDCHAR
STARTCHAR 0278
ENCODING 632
SWIDTH 700 0
DWIDTH 14 0
BBX 12 19 1 -4
BITMAP
0600
0600
0600
0600
1F80
7FE0
6660
C630
C630
C630
C630
C630
6660
7FE0
1F80
0600
0600
0600
0600
ENDCHAR
STARTCHAR 0279
ENCODING 633
SWIDTH 400 0
DWIDTH 8 0
BBX 6 11 0 0
BITMAP
0C
0C
0C
0C
0C
0C
0C
0C
1C
FC
EC
ENDCHAR
STARTCHAR 027A
ENCODING 634
SWIDTH 400 0
DWIDTH 8 0
BBX 6 15 0 0
BITMAP
0C
0C
0C
0C
0C
0C
0C
0C
0C
0C
0C
0C
1C
FC
EC
ENDCHAR
STARTCHAR 027B
ENCODING 635
SWIDTH 400 0
DWIDTH 8 0
BBX 8 15 0 -4
BITMAP
0C
0C
0C
0C
0C
0C
0C
0C
1C
FC
EC
0C
0C
0F
07
ENDCHAR
STARTCHAR 027C
ENCODING 636
SWIDTH 400 0
DWIDTH 8 0
BBX 6 15 2 -4
BITMAP
DC
FC
E0
C0
C0
C0
C0
C0
C0
C0
C0
C0
C0
C0
C0
ENDCHAR
STARTCHAR 027D
ENCODING 637
SWIDTH 400 0
DWIDTH 8 0
BBX 6 15 2 -3
BITMAP
DC
FC
E0
C0
C0
C0
C0
C0
C0
C0
C0
C0
C0
FC
7C
ENDCHAR
STARTCHAR 027E
ENCODING 638
SWIDTH 550 0
DWIDTH 11 0
BBX 8 11 1 0
BITMAP
1F
1F
30
30
30
30
30
30
30
F8
F8
ENDCHAR
STARTCHAR 027F
ENCODING 639
SWIDTH 550 0
DWIDTH 11 0
BBX 8 11 1 0
BITMAP
F8
F8
0C
0C
0C
0C
0C
0C
0C
3F
3F
ENDCHAR
STARTCHAR 0280
ENCODING 640
SWIDTH 600 0
DWIDTH 12 0
BBX 10 11 2 0
BITMAP
FE00
FF00
C300
C300
FE00
FC00
C600
C700
C300
C180
C1C0
ENDCHAR
STARTCHAR 0281
ENCODING 641
SWIDTH 600 0
DWIDTH 12 0
BBX 10 11 2 0
BITMAP
C1C0
C180
C300
C600
FC00
FE00
C300
C300
C300
FF00
FC00
ENDCHAR
STARTCHAR 0282
ENCODING 642
SWIDTH 500 0
DWIDTH 10 0
BBX 8 15 1 -4
BITMAP
3E
FF
C1
C0
FC
3E
07
03
83
FF
FC
C0
C0
7C
7C
ENDCHAR
STARTCHAR 0283
ENCODING 643
SWIDTH 350 0
DWIDTH 7 0
BBX 7 19 0 -4
BITMAP
1E
3E
30
30
30
30
30
30
30
30
30
30
30
30
30
30
30
F0
E0
ENDCHAR
STARTCHAR 0284
ENCODING 644
SWIDTH 350 0
DWIDTH 7 0
BBX 7 19 0 -4
BITMAP
1E
3E
30
30
F0
F0
30
30
F8
F8
30
30
30
30
30
30
30
F0
E0
ENDCHAR
STARTCHAR 0285
ENCODING 645
SWIDTH 450 0
DWIDTH 9 0
BBX 7 15 1 -4
BITMAP
F0
F8
18
18
18
18
18
18
18
18
18
18
18
1E
0E
ENDCHAR
STARTCHAR 0286
ENCODING 646
SWIDTH 350 0
DWIDTH 7 0
BBX 10 19 -3 -4
BITMAP
03C0
07C0
0600
0600
0600
0600
0600
0600
0600
0600
0600
0600
0600
0600
0600
7F80
FF80
FE00
7C00
ENDCHAR
STARTCHAR 0287
ENCODING 647
SWIDTH 400 0
DWIDTH 8 0
BBX 7 14 1 -3
BITMAP
F8
FC
0C
0C
0C
0C
0C
0C
0C
FE
FE
0C
0C
0C
ENDCHAR
STARTCHAR 0288
ENCODING 648
SWIDTH 400 0
DWIDTH 8 0
BBX 7 18 1 -4
BITMAP
60
60
60
FE
FE
60
60
60
60
60
60
60
60
60
60
60
3E
3E
ENDCHAR
STARTCHAR 0289
ENCODING 649
SWIDTH 650 0
DWIDTH 13 0
BBX 13 11 0 0
BITMAP
3060
3060
3060
3060
FFF8
FFF8
3060
3060
38E0
1FE0
0F60
ENDCHAR
STARTCHAR 028A
ENCODING 650
SWIDTH 650 0
DWIDTH 13 0
BBX 10 11 2 0
BITMAP
F3C0
F3C0
3300
6180
C0C0
C0C0
C0C0
C0C0
6180
7F80
1E00
ENDCHAR
STARTCHAR 028B
ENCODING 651
SWIDTH 600 0
DWIDTH 12 0
BBX 9 11 2 0
BITMAP
C600
C700
C300
C180
C180
C180
C180
C180
C300
7F00
3E00
ENDCHAR
STARTCHAR 028C
ENCODING 652
SWIDTH 600 0
DWIDTH 12 0
BBX 11 11 0 0
BITMAP
0E00
0E00
1B00
1B00
1B00
3180
3180
60C0
60C0
60C0
C060
ENDCHAR
STARTCHAR 028D
ENCODING 653
SWIDTH 850 0
DWIDTH 17 0
BBX 15 11 1 0
BITMAP
1830
1830
3C78
3C78
3458
66CC
66CC
66CC
628C
C386
C386
ENDCHAR
STARTCHAR 028E
ENCODING 654
SWIDTH 650 0
DWIDTH 13 0
BBX 11 15 1 0
BITMAP
01C0
03C0
0700
0600
0E00
0E00
0E00
1F00
1B00
3380
3180
7180
60C0
60C0
C060
ENDCHAR
STARTCHAR 028F
ENCODING 655
SWIDTH 600 0
DWIDTH 12 0
BBX 10 11 1 0
BITMAP
E1C0
6180
3300
3F00
1E00
0C00
0C00
0C00
0C00
0C00
0C00
ENDCHAR
STARTCHAR 0290
ENCODING 656
SWIDTH 550 0
DWIDTH 11 0
BBX 11 15 1 -4
BITMAP
FF80
FF80
0300
0600
0E00
1C00
3800
3000
7000
FF80
FF80
0180
0180
01E0
00E0
ENDCHAR
STARTCHAR 0291
ENCODING 657
SWIDTH 550 0
DWIDTH 11 0
BBX 9 12 1 -1
BITMAP
FF80
FF80
0300
0600
0E00
1C00
3F00
3F80
7D80
FF80
FF00
0C00
ENDCHAR
STARTCHAR 0292
ENCODING 658
SWIDTH 600 0
DWIDTH 12 0
BBX 10 15 1 -4
BITMAP
FF80
FF80
0300
0600
0C00
1C00
1E00
1F80
01C0
00C0
00C0
00C0
81C0
FF80
7E00
ENDCHAR
STARTCHAR 0293
ENCODING 659
SWIDTH 600 0
DWIDTH 12 0
BBX 10 15 1 -5
BITMAP
FF80
FF80
0300
0600
0C00
1800
3C00
3F00
0380
0180
0180
7F80
6780
67C0
7EC0
ENDCHAR
STARTCHAR 0294
ENCODING 660
SWIDTH 500 0
DWIDTH 10 0
BBX 8 15 1 0
BITMAP
7C
FE
87
03
03
03
07
3E
3C
30
30
30
30
30
30
ENDCHAR
STARTCHAR 0295
ENCODING 661
SWIDTH 500 0
DWIDTH 10 0
BBX 8 15 1 0
BITMAP
3E
7F
E1
C0
C0
C0
E0
7C
3C
0C
0C
0C
0C
0C
0C
ENDCHAR
STARTCHAR 0296
ENCODING 662
SWIDTH 500 0
DWIDTH 10 0
BBX 8 15 1 0
BITMAP
30
30
30
30
30
30
3C
3E
07
03
03
03
87
FE
7C
ENDCHAR
STARTCHAR 0297
ENCODING 663
SWIDTH 500 0
DWIDTH 10 0
BBX 8 19 1 -4
BITMAP
3E
7F
E1
C0
C0
C0
C0
C0
C0
C0
C0
C0
C0
C0
C0
C0
E1
7F
3E
ENDCHAR
STARTCHAR 0298
ENCODING 664
SWIDTH 800 0
DWIDTH 16 0
BBX 14 15 1 -1
BITMAP
0780
1FE0
3070
6038
6018
C018
C01C
C30C
C30C
C018
E018
6018
7030
3CF0
0FC0
ENDCHAR
STARTCHAR 0299
ENCODING 665
SWIDTH 600 0
DWIDTH 12 0
BBX 9 11 2 0
BITMAP
FE00
FF00
C300
C300
C200
FE00
FF80
C180
C180
FF80
FE00
ENDCHAR
STARTCHAR 029A
ENCODING 666
SWIDTH 650 0
DWIDTH 13 0
BBX 11 11 1 0
BITMAP
3F00
FF80
C1C0
C060
7C60
7C60
E060
C060
E1C0
7FC0
3F00
ENDCHAR
STARTCHAR 029B
ENCODING 667
SWIDTH 700 0
DWIDTH 14 0
BBX 13 15 1 0
BITMAP
0078
00F8
0180
0180
1F80
7F80
6080
C000
C000
C3C0
C3C0
C0C0
60C0
7FC0
1F80
ENDCHAR
STARTCHAR 029C
ENCODING 668
SWIDTH 650 0
DWIDTH 13 0
BBX 9 11 2 0
BITMAP
C180
C180
C180
C180
C180
FF80
FF80
C180
C180
C180
C180
ENDCHAR
STARTCHAR 029D
ENCODING 669
SWIDTH 300 0
DWIDTH 6 0
BBX 9 19 -3 -4
BITMAP
0600
0600
0000
0000
0600
0600
0600
0600
0600
0600
0600
0600
0600
0600
0600
7F80
C600
FC00
7C00
ENDCHAR
STARTCHAR 029E
ENCODING 670
SWIDTH 650 0
DWIDTH 13 0
BBX 10 15 2 -5
BITMAP
E0C0
70C0
38C0
1CC0
0EC0
07C0
06C0
0CC0
18C0
30C0
60C0
00C0
00C0
00C0
00C0
ENDCHAR
STARTCHAR 029F
ENCODING 671
SWIDTH 550 0
DWIDTH 11 0
BBX 8 11 2 0
BITMAP
C0
C0
C0
C0
C0
C0
C0
C0
C0
FF
FF
ENDCHAR
STARTCHAR 02A0
ENCODING 672
SWIDTH 750 0
DWIDTH 15 0
BBX 14 19 1 -4
BITMAP
007C
00FC
00C0
00C0
3EC0
7FC0
61C0
C0C0
C0C0
C0C0
C0C0
C0C0
61C0
7FC0
3EC0
00C0
00C0
00C0
00C0
ENDCHAR
STARTCHAR 02A1
ENCODING 673
SWIDTH 500 0
DWIDTH 10 0
BBX 8 15 1 0
BITMAP
7C
FE
87
03
03
03
07
3E
3C
30
FC
FC
30
30
30
ENDCHAR
STARTCHAR 02A2
ENCODING 674
SWIDTH 500 0
DWIDTH 10 0
BBX 8 15 1 0
BITMAP
3E
7F
E1
C0
C0
C0
E0
7C
3C
0C
3F
3F
0C
0C
0C
ENDCHAR
STARTCHAR 02A3
ENCODING 675
SWIDTH 1000 0
DWIDTH 20 0
BBX 18 15 1 0
BITMAP
00C000
00C000
00C000
00C000
3EFFC0
73C0C0
61C0C0
C0C180
C0C300
C0C600
C0CC00
C0D800
61F800
73F000
3EFFC0
ENDCHAR
STARTCHAR 02A4
ENCODING 676
SWIDTH 1050 0
DWIDTH 21 0
BBX 19 19 1 -4
BITMAP
00C000
00C000
00C000
00C000
3EFFC0
73C0C0
61C0C0
C0C180
C0C300
C0C600
C0CF00
C0CFC0
61C0E0
73C060
3EC060
000060
000060
0031C0
003F80
ENDCHAR
STARTCHAR 02A5
ENCODING 677
SWIDTH 1000 0
DWIDTH 20 0
BBX 18 16 1 -1
BITMAP
00C000
00C000
00C000
00C000
3EFFC0
73C0C0
61C0C0
C0C180
C0C300
C0C600
C0CC00
C0DBC0
61FA40
73F6C0
3EFFC0
000600
ENDCHAR
STARTCHAR 02A6
ENCODING 678
SWIDTH 800 0
DWIDTH 16 0
BBX 15 14 1 0
BITMAP
6000
6000
6000
FCFC
618C
6300
6300
61C0
60F8
601C
6006
6006
7B0C
3FF8
ENDCHAR
STARTCHAR 02A7
ENCODING 679
SWIDTH 600 0
DWIDTH 12 0
BBX 12 19 1 -4
BITMAP
01F0
6180
6300
6300
FF00
6300
6300
6300
6300
6300
6300
6300
6300
7B00
3F00
0300
0300
0300
0E00
ENDCHAR
STARTCHAR 02A8
ENCODING 680
SWIDTH 800 0
DWIDTH 16 0
BBX 13 15 1 -1
BITMAP
6000
6000
6000
FDF8
6388
6700
6600
6600
6600
6600
6670
67D8
7B88
3FF8
0180
ENDCHAR
STARTCHAR 02A9
ENCODING 681
SWIDTH 850 0
DWIDTH 17 0
BBX 16 19 0 -4
BITMAP
1E00
3800
3000
3000
FFBE
31E6
3183
3183
3183
3183
3183
3183
3183
3183
3183
0003
0003
0007
003E
ENDCHAR
STARTCHAR 02AA
ENCODING 682
SWIDTH 650 0
DWIDTH 13 0
BBX 10 15 2 0
BITMAP
C000
C000
C000
C000
DF80
F880
E000
F000
F800
DF80
C3C0
C0C0
C0C0
F1C0
FF80
ENDCHAR
STARTCHAR 02AB
ENCODING 683
SWIDTH 700 0
DWIDTH 14 0
BBX 11 15 2 0
BITMAP
C000
C000
C000
C000
FFE0
FFE0
C1C0
C180
C380
C700
CE00
CC00
D800
FFE0
FFE0
ENDCHAR
STARTCHAR 02AC
ENCODING 684
SWIDTH 500 0
DWIDTH 10 0
BBX 9 13 1 -1
BITMAP
9880
9900
9500
6500
6700
6600
0000
9880
9900
9500
6500
6700
6600
ENDCHAR
STARTCHAR 02AD
ENCODING 685
SWIDTH 550 0
DWIDTH 11 0
BBX 9 12 1 1
BITMAP
FF80
FF80
C180
C180
C180
0000
0000
FF80
FF80
C180
C180
C180
ENDCHAR
STARTCHAR 02AE
ENCODING 686
SWIDTH 650 0
DWIDTH 13 0
BBX 11 19 0 -4
BITMAP
E000
F000
3000
3000
3060
3060
3060
3060
3060
3060
3060
3060
38E0
1FE0
0F60
0060
0060
0060
0060
ENDCHAR
STARTCHAR 02AF
ENCODING 687
SWIDTH 650 0
DWIDTH 13 0
BBX 13 19 0 -4
BITMAP
E000
F000
3000
3000
3060
3060
3060
3060
3060
3060
3060
3060
38E0
1FE0
0F60
0060
0060
0078
0038
ENDCHAR
STARTCHAR 02B0
ENCODING 688
SWIDTH 400 0
DWIDTH 8 0
BBX 6 9 1 7
BITMAP
80
80
80
B8
C4
84
84
84
84
ENDCHAR
STARTCHAR 02B1
ENCODING 689
SWIDTH 400 0
DWIDTH 8 0
BBX 6 9 1 7
BITMAP
70
80
B8
C4
84
84
84
84
84
ENDCHAR
STARTCHAR 02B2
ENCODING 690
SWIDTH 150 0
DWIDTH 3 0
BBX 2 10 0 5
BITMAP
40
00
40
40
40
40
40
40
40
C0
ENDCHAR
STARTCHAR 02B3
ENCODING 691
SWIDTH 250 0
DWIDTH 5 0
BBX 4 6 1 7
BITMAP
B0
C0
80
80
80
80
ENDCHAR
STARTCHAR 02B4
ENCODING 692
SWIDTH 300 0
DWIDTH 6 0
BBX 4 6 1 7
BITMAP
10
10
10
10
30
F0
ENDCHAR
STARTCHAR 02B5
ENCODING 693
SWIDTH 300 0
DWIDTH 6 0
BBX 5 8 1 5
BITMAP
10
10
10
10
30
F0
10
18
ENDCHAR
STARTCHAR 02B6
ENCODING 694
SWIDTH 400 0
DWIDTH 8 0
BBX 6 7 0 6
BITMAP
84
8C
88
F8
88
88
70
ENDCHAR
STARTCHAR 02B7
ENCODING 695
SWIDTH 500 0
DWIDTH 10 0
BBX 9 6 1 6
BITMAP
9880
9900
9900
D500
6700
6600
ENDCHAR
STARTCHAR 02B8
ENCODING 696
SWIDTH 350 0
DWIDTH 7 0
BBX 7 9 0 4
BITMAP
C2
46
64
2C
28
18
10
10
60
ENDCHAR
STARTCHAR 02B9
ENCODING 697
SWIDTH 300 0
DWIDTH 6 0
BBX 2 5 2 11
BITMAP
C0
C0
C0
80
80
ENDCHAR
STARTCHAR 02BA
ENCODING 698
SWIDTH 450 0
DWIDTH 9 0
BBX 6 5 2 11
BITMAP
CC
CC
CC
88
88
ENDCHAR
STARTCHAR 02BB
ENCODING 699
SWIDTH 300 0
DWIDTH 6 0
BBX 3 5 2 10
BITMAP
20
60
C0
C0
C0
ENDCHAR
STARTCHAR 02BC
ENCODING 700
SWIDTH 300 0
DWIDTH 6 0
BBX 3 5 2 10
BITMAP
60
60
40
C0
80
ENDCHAR
STARTCHAR 02BD
ENCODING 701
SWIDTH 300 0
DWIDTH 6 0
BBX 3 5 2 12
BITMAP
C0
C0
C0
60
20
ENDCHAR
STARTCHAR 02BE
ENCODING 702
SWIDTH 300 0
DWIDTH 6 0
BBX 3 5 1 10
BITMAP
C0
60
20
60
C0
ENDCHAR
STARTCHAR 02BF
ENCODING 703
SWIDTH 300 0
DWIDTH 6 0
BBX 3 5 1 10
BITMAP
60
C0
80
C0
60
ENDCHAR
STARTCHAR 02C0
ENCODING 704
SWIDTH 350 0
DWIDTH 7 0
BBX 5 8 1 7
BITMAP
F0
08
08
08
30
20
20
20
ENDCHAR
STARTCHAR 02C1
ENCODING 705
SWIDTH 350 0
DWIDTH 7 0
BBX 5 8 2 7
BITMAP
78
80
80
80
60
20
20
20
ENDCHAR
STARTCHAR 02C2
ENCODING 706
SWIDTH 500 0
DWIDTH 10 0
BBX 4 5 3 11
BITMAP
30
E0
80
E0
30
ENDCHAR
STARTCHAR 02C3
ENCODING 707
SWIDTH 500 0
DWIDTH 10 0
BBX 4 5 3 11
BITMAP
C0
70
10
70
C0
ENDCHAR
STARTCHAR 02C4
ENCODING 708
SWIDTH 500 0
DWIDTH 10 0
BBX 6 5 2 11
BITMAP
30
30
48
48
CC
ENDCHAR
STARTCHAR 02C5
ENCODING 709
SWIDTH 500 0
DWIDTH 10 0
BBX 6 5 2 11
BITMAP
CC
48
48
30
30
ENDCHAR
STARTCHAR 02C6
ENCODING 710
SWIDTH 500 0
DWIDTH 10 0
BBX 6 4 2 12
BITMAP
30
78
48
CC
ENDCHAR
STARTCHAR 02C7
ENCODING 711
SWIDTH 500 0
DWIDTH 10 0
BBX 6 4 2 12
BITMAP
CC
48
78
30
ENDCHAR
STARTCHAR 02C8
ENCODING 712
SWIDTH 250 0
DWIDTH 5 0
BBX 1 5 2 10
BITMAP
80
80
80
80
80
ENDCHAR
STARTCHAR 02C9
ENCODING 713
SWIDTH 500 0
DWIDTH 10 0
BBX 6 2 2 13
BITMAP
FC
FC
ENDCHAR
STARTCHAR 02CA
ENCODING 714
SWIDTH 500 0
DWIDTH 10 0
BBX 4 4 4 12
BITMAP
30
60
C0
80
ENDCHAR
STARTCHAR 02CB
ENCODING 715
SWIDTH 500 0
DWIDTH 10 0
BBX 4 4 2 12
BITMAP
C0
60
20
10
ENDCHAR
STARTCHAR 02CC
ENCODING 716
SWIDTH 250 0
DWIDTH 5 0
BBX 1 5 2 -3
BITMAP
80
80
80
80
80
ENDCHAR
STARTCHAR 02CD
ENCODING 717
SWIDTH 500 0
DWIDTH 10 0
BBX 6 2 2 -4
BITMAP
FC
FC
ENDCHAR
STARTCHAR 02CE
ENCODING 718
SWIDTH 500 0
DWIDTH 10 0
BBX 4 4 2 -5
BITMAP
C0
60
20
10
ENDCHAR
STARTCHAR 02CF
ENCODING 719
SWIDTH 500 0
DWIDTH 10 0
BBX 4 4 4 -5
BITMAP
30
60
40
80
ENDCHAR
STARTCHAR 02D0
ENCODING 720
SWIDTH 350 0
DWIDTH 7 0
BBX 4 10 1 0
BITMAP
F0
60
00
00
00
00
00
00
60
F0
ENDCHAR
STARTCHAR 02D1
ENCODING 721
SWIDTH 350 0
DWIDTH 7 0
BBX 4 2 1 7
BITMAP
F0
60
ENDCHAR
STARTCHAR 02D2
ENCODING 722
SWIDTH 300 0
DWIDTH 6 0
BBX 3 5 1 5
BITMAP
C0
60
20
60
C0
ENDCHAR
STARTCHAR 02D3
ENCODING 723
SWIDTH 300 0
DWIDTH 6 0
BBX 3 5 1 5
BITMAP
60
C0
80
C0
60
ENDCHAR
STARTCHAR 02D4
ENCODING 724
SWIDTH 500 0
DWIDTH 10 0
BBX 4 4 3 4
BITMAP
60
60
60
F0
ENDCHAR
STARTCHAR 02D5
ENCODING 725
SWIDTH 500 0
DWIDTH 10 0
BBX 4 4 3 4
BITMAP
F0
E0
60
60
ENDCHAR
STARTCHAR 02D6
ENCODING 726
SWIDTH 400 0
DWIDTH 8 0
BBX 6 6 1 3
BITMAP
30
30
FC
30
30
30
ENDCHAR
STARTCHAR 02D7
ENCODING 727
SWIDTH 300 0
DWIDTH 6 0
BBX 4 1 1 5
BITMAP
F0
ENDCHAR
STARTCHAR 02D8
ENCODING 728
SWIDTH 500 0
DWIDTH 10 0
BBX 6 3 2 13
BITMAP
84
FC
78
ENDCHAR
STARTCHAR 02D9
ENCODING 729
SWIDTH 500 0
DWIDTH 10 0
BBX 2 2 4 13
BITMAP
C0
C0
ENDCHAR
STARTCHAR 02DA
ENCODING 730
SWIDTH 500 0
DWIDTH 10 0
BBX 5 5 2 12
BITMAP
70
88
88
88
70
ENDCHAR
STARTCHAR 02DB
ENCODING 731
SWIDTH 500 0
DWIDTH 10 0
BBX 4 4 3 -4
BITMAP
40
C0
C0
70
ENDCHAR
STARTCHAR 02DC
ENCODING 732
SWIDTH 500 0
DWIDTH 10 0
BBX 6 3 2 13
BITMAP
64
B4
98
ENDCHAR
STARTCHAR 02DD
ENCODING 733
SWIDTH 500 0
DWIDTH 10 0
BBX 8 4 2 12
BITMAP
33
66
44
CC
ENDCHAR
STARTCHAR 02DE
ENCODING 734
SWIDTH 300 0
DWIDTH 6 0
BBX 7 5 0 5
BITMAP
38
F8
98
18
0E
ENDCHAR
STARTCHAR 02DF
ENCODING 735
SWIDTH 500 0
DWIDTH 10 0
BBX 5 4 2 12
BITMAP
78
30
78
C8
ENDCHAR
STARTCHAR 02E0
ENCODING 736
SWIDTH 450 0
DWIDTH 9 0
BBX 6 9 1 4
BITMAP
C4
4C
38
30
28
48
4C
4C
78
ENDCHAR
STARTCHAR 02E1
ENCODING 737
SWIDTH 150 0
DWIDTH 3 0
BBX 1 9 1 7
BITMAP
80
80
80
80
80
80
80
80
80
ENDCHAR
STARTCHAR 02E2
ENCODING 738
SWIDTH 350 0
DWIDTH 7 0
BBX 5 7 1 6
BITMAP
78
80
C0
38
08
88
70
ENDCHAR
STARTCHAR 02E3
ENCODING 739
SWIDTH 450 0
DWIDTH 9 0
BBX 7 6 1 6
BITMAP
C6
6C
38
10
28
44
ENDCHAR
STARTCHAR 02E4
ENCODING 740
SWIDTH 350 0
DWIDTH 7 0
BBX 5 8 2 7
BITMAP
78
80
80
80
60
20
20
20
ENDCHAR
STARTCHAR 02E5
ENCODING 741
SWIDTH 500 0
DWIDTH 10 0
BBX 6 13 2 0
BITMAP
FC
FC
0C
0C
0C
0C
0C
0C
0C
0C
0C
0C
0C
ENDCHAR
STARTCHAR 02E6
ENCODING 742
SWIDTH 500 0
DWIDTH 10 0
BBX 6 13 2 0
BITMAP
0C
0C
0C
FC
FC
0C
0C
0C
0C
0C
0C
0C
0C
ENDCHAR
STARTCHAR 02E7
ENCODING 743
SWIDTH 500 0
DWIDTH 10 0
BBX 6 13 2 0
BITMAP
0C
0C
0C
0C
0C
0C
FC
FC
0C
0C
0C
0C
0C
ENDCHAR
STARTCHAR 02E8
ENCODING 744
SWIDTH 500 0
DWIDTH 10 0
BBX 6 13 2 0
BITMAP
0C
0C
0C
0C
0C
0C
0C
0C
FC
FC
0C
0C
0C
ENDCHAR
STARTCHAR 02E9
ENCODING 745
SWIDTH 500 0
DWIDTH 10 0
BBX 6 13 2 0
BITMAP
0C
0C
0C
0C
0C
0C
0C
0C
0C
0C
0C
FC
FC
ENDCHAR
STARTCHAR 02EC
ENCODING 748
SWIDTH 500 0
DWIDTH 10 0
BBX 6 5 2 -5
BITMAP
CC
48
48
30
30
ENDCHAR
STARTCHAR 02ED
ENCODING 749
SWIDTH 500 0
DWIDTH 10 0
BBX 6 4 2 12
BITMAP
FC
FC
FC
FC
ENDCHAR
STARTCHAR 02EE
ENCODING 750
SWIDTH 500 0
DWIDTH 10 0
BBX 7 5 2 10
BITMAP
66
66
66
CC
88
ENDCHAR
STARTCHAR 02F3
ENCODING 755
SWIDTH 500 0
DWIDTH 10 0
BBX 5 5 2 -5
BITMAP
70
88
88
88
70
ENDCHAR
STARTCHAR 02F7
ENCODING 759
SWIDTH 500 0
DWIDTH 10 0
BBX 6 3 2 -4
BITMAP
64
B4
98
ENDCHAR
STARTCHAR 0300
ENCODING 768
SWIDTH 0 0
DWIDTH 0 0
BBX 5 4 -9 11
BITMAP
C0
60
30
18
ENDCHAR
STARTCHAR 0301
ENCODING 769
SWIDTH 0 0
DWIDTH 0 0
BBX 5 4 -7 11
BITMAP
18
30
60
C0
ENDCHAR
STARTCHAR 0302
ENCODING 770
SWIDTH 0 0
DWIDTH 0 0
BBX 6 4 -8 11
BITMAP
30
78
48
CC
ENDCHAR
STARTCHAR 0303
ENCODING 771
SWIDTH 0 0
DWIDTH 0 0
BBX 6 3 -8 13
BITMAP
64
B4
98
ENDCHAR
STARTCHAR 0304
ENCODING 772
SWIDTH 0 0
DWIDTH 0 0
BBX 6 2 -8 13
BITMAP
FC
FC
ENDCHAR
STARTCHAR 0305
ENCODING 773
SWIDTH 0 0
DWIDTH 0 0
BBX 10 2 -10 13
BITMAP
FFC0
FFC0
ENDCHAR
STARTCHAR 0306
ENCODING 774
SWIDTH 0 0
DWIDTH 0 0
BBX 6 3 -8 13
BITMAP
84
FC
78
ENDCHAR
STARTCHAR 0307
ENCODING 775
SWIDTH 0 0
DWIDTH 0 0
BBX 2 2 -6 11
BITMAP
C0
C0
ENDCHAR
STARTCHAR 0308
ENCODING 776
SWIDTH 0 0
DWIDTH 0 0
BBX 6 2 -8 11
BITMAP
CC
CC
ENDCHAR
STARTCHAR 0309
ENCODING 777
SWIDTH 0 0
DWIDTH 0 0
BBX 4 4 -6 12
BITMAP
F0
10
20
40
ENDCHAR
STARTCHAR 030A
ENCODING 778
SWIDTH 0 0
DWIDTH 0 0
BBX 5 5 -8 12
BITMAP
70
88
88
88
70
ENDCHAR
STARTCHAR 030B
ENCODING 779
SWIDTH 0 0
DWIDTH 0 0
BBX 8 4 -8 12
BITMAP
33
66
44
CC
ENDCHAR
STARTCHAR 030C
ENCODING 780
SWIDTH 0 0
DWIDTH 0 0
BBX 6 4 -8 11
BITMAP
CC
48
78
30
ENDCHAR
STARTCHAR 030D
ENCODING 781
SWIDTH 0 0
DWIDTH 0 0
BBX 1 4 -5 12
BITMAP
80
80
80
80
ENDCHAR
STARTCHAR 030E
ENCODING 782
SWIDTH 0 0
DWIDTH 0 0
BBX 5 4 -7 12
BITMAP
88
88
88
88
ENDCHAR
STARTCHAR 030F
ENCODING 783
SWIDTH 0 0
DWIDTH 0 0
BBX 8 4 -10 12
BITMAP
CC
66
22
33
ENDCHAR
STARTCHAR 0310
ENCODING 784
SWIDTH 0 0
DWIDTH 0 0
BBX 6 5 -8 13
BITMAP
30
30
84
FC
78
ENDCHAR
STARTCHAR 0311
ENCODING 785
SWIDTH 0 0
DWIDTH 0 0
BBX 6 3 -8 13
BITMAP
78
FC
84
ENDCHAR
STARTCHAR 0312
ENCODING 786
SWIDTH 0 0
DWIDTH 0 0
BBX 2 3 -4 10
BITMAP
40
C0
80
ENDCHAR
STARTCHAR 0313
ENCODING 787
SWIDTH 0 0
DWIDTH 0 0
BBX 2 5 -6 11
BITMAP
C0
C0
C0
40
C0
ENDCHAR
STARTCHAR 0314
ENCODING 788
SWIDTH 0 0
DWIDTH 0 0
BBX 2 5 -6 11
BITMAP
C0
C0
C0
80
40
ENDCHAR
STARTCHAR 0315
ENCODING 789
SWIDTH 0 0
DWIDTH 0 0
BBX 2 4 -1 12
BITMAP
C0
C0
80
80
ENDCHAR
STARTCHAR 0316
ENCODING 790
SWIDTH 0 0
DWIDTH 0 0
BBX 5 4 -9 -6
BITMAP
C0
60
30
18
ENDCHAR
STARTCHAR 0317
ENCODING 791
SWIDTH 0 0
DWIDTH 0 0
BBX 5 4 -7 -6
BITMAP
18
30
60
C0
ENDCHAR
STARTCHAR 0318
ENCODING 792
SWIDTH 0 0
DWIDTH 0 0
BBX 3 5 -7 -5
BITMAP
60
60
E0
60
60
ENDCHAR
STARTCHAR 0319
ENCODING 793
SWIDTH 0 0
DWIDTH 0 0
BBX 3 5 -6 -5
BITMAP
C0
C0
E0
C0
C0
ENDCHAR
STARTCHAR 031A
ENCODING 794
SWIDTH 0 0
DWIDTH 0 0
BBX 5 5 -4 13
BITMAP
F8
F8
18
18
18
ENDCHAR
STARTCHAR 031B
ENCODING 795
SWIDTH 0 0
DWIDTH 0 0
BBX 3 3 -2 9
BITMAP
20
20
E0
ENDCHAR
STARTCHAR 031C
ENCODING 796
SWIDTH 0 0
DWIDTH 0 0
BBX 2 4 -6 -5
BITMAP
40
80
80
40
ENDCHAR
STARTCHAR 031D
ENCODING 797
SWIDTH 0 0
DWIDTH 0 0
BBX 4 3 -7 -4
BITMAP
60
F0
F0
ENDCHAR
STARTCHAR 031E
ENCODING 798
SWIDTH 0 0
DWIDTH 0 0
BBX 4 3 -7 -4
BITMAP
F0
60
60
ENDCHAR
STARTCHAR 031F
ENCODING 799
SWIDTH 0 0
DWIDTH 0 0
BBX 4 5 -7 -5
BITMAP
60
60
F0
60
60
ENDCHAR
STARTCHAR 0320
ENCODING 800
SWIDTH 0 0
DWIDTH 0 0
BBX 4 2 -7 -4
BITMAP
F0
F0
ENDCHAR
STARTCHAR 0321
ENCODING 801
SWIDTH 0 0
DWIDTH 0 0
BBX 6 5 -6 -4
BITMAP
0C
0C
08
18
F0
ENDCHAR
STARTCHAR 0322
ENCODING 802
SWIDTH 0 0
DWIDTH 0 0
BBX 6 5 -6 -4
BITMAP
80
80
C0
C0
7C
ENDCHAR
STARTCHAR 0323
ENCODING 803
SWIDTH 0 0
DWIDTH 0 0
BBX 2 3 -6 -4
BITMAP
C0
C0
C0
ENDCHAR
STARTCHAR 0324
ENCODING 804
SWIDTH 0 0
DWIDTH 0 0
BBX 6 2 -8 -4
BITMAP
CC
CC
ENDCHAR
STARTCHAR 0325
ENCODING 805
SWIDTH 0 0
DWIDTH 0 0
BBX 4 4 -7 -5
BITMAP
60
90
90
60
ENDCHAR
STARTCHAR 0326
ENCODING 806
SWIDTH 0 0
DWIDTH 0 0
BBX 2 3 -6 -5
BITMAP
C0
C0
80
ENDCHAR
STARTCHAR 0327
ENCODING 807
SWIDTH 0 0
DWIDTH 0 0
BBX 4 4 -7 -4
BITMAP
20
30
30
E0
ENDCHAR
STARTCHAR 0328
ENCODING 808
SWIDTH 0 0
DWIDTH 0 0
BBX 4 4 -7 -4
BITMAP
40
C0
C0
70
ENDCHAR
STARTCHAR 0329
ENCODING 809
SWIDTH 0 0
DWIDTH 0 0
BBX 1 4 -5 -5
BITMAP
80
80
80
80
ENDCHAR
STARTCHAR 032A
ENCODING 810
SWIDTH 0 0
DWIDTH 0 0
BBX 6 3 -8 -5
BITMAP
FC
CC
CC
ENDCHAR
STARTCHAR 032B
ENCODING 811
SWIDTH 0 0
DWIDTH 0 0
BBX 8 2 -9 -4
BITMAP
99
FF
ENDCHAR
STARTCHAR 032C
ENCODING 812
SWIDTH 0 0
DWIDTH 0 0
BBX 6 4 -8 -5
BITMAP
CC
48
78
30
ENDCHAR
STARTCHAR 032D
ENCODING 813
SWIDTH 0 0
DWIDTH 0 0
BBX 6 4 -8 -5
BITMAP
30
78
48
CC
ENDCHAR
STARTCHAR 032E
ENCODING 814
SWIDTH 0 0
DWIDTH 0 0
BBX 6 3 -8 -4
BITMAP
84
FC
78
ENDCHAR
STARTCHAR 032F
ENCODING 815
SWIDTH 0 0
DWIDTH 0 0
BBX 6 2 -8 -4
BITMAP
78
8C
ENDCHAR
STARTCHAR 0330
ENCODING 816
SWIDTH 0 0
DWIDTH 0 0
BBX 6 3 -8 -4
BITMAP
64
B4
98
ENDCHAR
STARTCHAR 0331
ENCODING 817
SWIDTH 0 0
DWIDTH 0 0
BBX 6 2 -8 -4
BITMAP
FC
FC
ENDCHAR
STARTCHAR 0332
ENCODING 818
SWIDTH 0 0
DWIDTH 0 0
BBX 10 2 -10 -5
BITMAP
FFC0
FFC0
ENDCHAR
STARTCHAR 0333
ENCODING 819
SWIDTH 0 0
DWIDTH 0 0
BBX 10 5 -10 -5
BITMAP
FFC0
FFC0
0000
FFC0
FFC0
ENDCHAR
STARTCHAR 0334
ENCODING 820
SWIDTH 0 0
DWIDTH 0 0
BBX 10 3 -11 4
BITMAP
3000
FEC0
87C0
ENDCHAR
STARTCHAR 0335
ENCODING 821
SWIDTH 0 0
DWIDTH 0 0
BBX 5 2 -6 5
BITMAP
F8
F8
ENDCHAR
STARTCHAR 0336
ENCODING 822
SWIDTH 0 0
DWIDTH 0 0
BBX 13 2 -13 5
BITMAP
FFF8
FFF8
ENDCHAR
STARTCHAR 0337
ENCODING 823
SWIDTH 0 0
DWIDTH 0 0
BBX 10 13 -11 -1
BITMAP
0040
00C0
0180
0100
0200
0600
0C00
1800
1000
2000
4000
C000
8000
ENDCHAR
STARTCHAR 0338
ENCODING 824
SWIDTH 0 0
DWIDTH 0 0
BBX 14 15 -15 0
BITMAP
000C
0018
0010
0030
0060
00C0
0180
0300
0200
0400
0C00
1800
3000
6000
C000
ENDCHAR
STARTCHAR 0339
ENCODING 825
SWIDTH 0 0
DWIDTH 0 0
BBX 2 4 -6 -5
BITMAP
80
40
40
80
ENDCHAR
STARTCHAR 033A
ENCODING 826
SWIDTH 0 0
DWIDTH 0 0
BBX 6 3 -8 -4
BITMAP
CC
CC
FC
ENDCHAR
STARTCHAR 033B
ENCODING 827
SWIDTH 0 0
DWIDTH 0 0
BBX 4 5 -7 -5
BITMAP
F0
F0
90
90
F0
ENDCHAR
STARTCHAR 033C
ENCODING 828
SWIDTH 0 0
DWIDTH 0 0
BBX 8 2 -9 -4
BITMAP
FE
99
ENDCHAR
STARTCHAR 033D
ENCODING 829
SWIDTH 0 0
DWIDTH 0 0
BBX 4 3 -7 13
BITMAP
F0
60
F0
ENDCHAR
STARTCHAR 033E
ENCODING 830
SWIDTH 0 0
DWIDTH 0 0
BBX 3 5 -5 12
BITMAP
60
80
40
20
C0
ENDCHAR
STARTCHAR 033F
ENCODING 831
SWIDTH 0 0
DWIDTH 0 0
BBX 10 5 -10 10
BITMAP
FFC0
FFC0
0000
FFC0
FFC0
ENDCHAR
STARTCHAR 0340
ENCODING 832
SWIDTH 0 0
DWIDTH 0 0
BBX 5 4 -9 12
BITMAP
C0
60
30
18
ENDCHAR
STARTCHAR 0341
ENCODING 833
SWIDTH 0 0
DWIDTH 0 0
BBX 5 4 -7 12
BITMAP
18
30
60
C0
ENDCHAR
STARTCHAR 0342
ENCODING 834
SWIDTH 0 0
DWIDTH 0 0
BBX 6 3 -8 13
BITMAP
64
B4
98
ENDCHAR
STARTCHAR 0343
ENCODING 835
SWIDTH 0 0
DWIDTH 0 0
BBX 2 5 -6 11
BITMAP
C0
C0
C0
40
C0
ENDCHAR
STARTCHAR 0344
ENCODING 836
SWIDTH 0 0
DWIDTH 0 0
BBX 6 7 -8 13
BITMAP
0C
18
30
60
00
CC
CC
ENDCHAR
STARTCHAR 0345
ENCODING 837
SWIDTH 0 0
DWIDTH 0 0
BBX 2 3 -6 -4
BITMAP
C0
C0
C0
ENDCHAR
STARTCHAR 0346
ENCODING 838
SWIDTH 0 0
DWIDTH 0 0
BBX 6 3 -8 12
BITMAP
FC
FC
CC
ENDCHAR
STARTCHAR 0347
ENCODING 839
SWIDTH 0 0
DWIDTH 0 0
BBX 4 4 -7 -4
BITMAP
F0
00
F0
F0
ENDCHAR
STARTCHAR 0348
ENCODING 840
SWIDTH 0 0
DWIDTH 0 0
BBX 4 4 -7 -4
BITMAP
90
90
90
90
ENDCHAR
STARTCHAR 0349
ENCODING 841
SWIDTH 0 0
DWIDTH 0 0
BBX 4 5 -7 -5
BITMAP
F0
F0
10
10
10
ENDCHAR
STARTCHAR 034A
ENCODING 842
SWIDTH 0 0
DWIDTH 0 0
BBX 6 4 -8 12
BITMAP
54
F4
BC
40
ENDCHAR
STARTCHAR 034B
ENCODING 843
SWIDTH 0 0
DWIDTH 0 0
BBX 6 6 -8 11
BITMAP
18
00
F4
9C
60
60
ENDCHAR
STARTCHAR 034C
ENCODING 844
SWIDTH 0 0
DWIDTH 0 0
BBX 6 5 -8 11
BITMAP
44
BC
00
F4
98
ENDCHAR
STARTCHAR 034D
ENCODING 845
SWIDTH 0 0
DWIDTH 0 0
BBX 8 4 -9 -4
BITMAP
42
FF
42
24
ENDCHAR
STARTCHAR 034E
ENCODING 846
SWIDTH 0 0
DWIDTH 0 0
BBX 4 3 -7 -4
BITMAP
60
F0
40
ENDCHAR
STARTCHAR 034F
ENCODING 847
SWIDTH 0 0
DWIDTH 0 0
BBX 0 0 0 0
BITMAP
ENDCHAR
STARTCHAR 0351
ENCODING 849
SWIDTH 0 0
DWIDTH 0 0
BBX 2 5 -6 13
BITMAP
C0
80
80
C0
40
ENDCHAR
STARTCHAR 0352
ENCODING 850
SWIDTH 0 0
DWIDTH 0 0
BBX 6 4 -8 11
BITMAP
78
FC
B4
30
ENDCHAR
STARTCHAR 0353
ENCODING 851
SWIDTH 0 0
DWIDTH 0 0
BBX 4 3 -7 -4
BITMAP
F0
60
F0
ENDCHAR
STARTCHAR 0357
ENCODING 855
SWIDTH 0 0
DWIDTH 0 0
BBX 2 5 -6 13
BITMAP
C0
40
40
C0
80
ENDCHAR
STARTCHAR 0358
ENCODING 856
SWIDTH 0 0
DWIDTH 0 0
BBX 2 2 -2 13
BITMAP
C0
C0
ENDCHAR
STARTCHAR 035A
ENCODING 858
SWIDTH 0 0
DWIDTH 0 0
BBX 8 4 -9 -4
BITMAP
7E
DB
5A
7E
ENDCHAR
STARTCHAR 035C
ENCODING 860
SWIDTH 0 0
DWIDTH 0 0
BBX 18 3 -9 -5
BITMAP
E001C0
7FFF80
07F800
ENDCHAR
STARTCHAR 035D
ENCODING 861
SWIDTH 0 0
DWIDTH 0 0
BBX 18 3 -9 16
BITMAP
E001C0
7FFF80
07F800
ENDCHAR
STARTCHAR 035E
ENCODING 862
SWIDTH 0 0
DWIDTH 0 0
BBX 18 2 -9 17
BITMAP
FFFFC0
FFFFC0
ENDCHAR
STARTCHAR 035F
ENCODING 863
SWIDTH 0 0
DWIDTH 0 0
BBX 18 1 -9 -3
BITMAP
FFFFC0
ENDCHAR
STARTCHAR 0360
ENCODING 864
SWIDTH 0 0
DWIDTH 0 0
BBX 14 3 -7 15
BITMAP
3C0C
E79C
C0F0
ENDCHAR
STARTCHAR 0361
ENCODING 865
SWIDTH 0 0
DWIDTH 0 0
BBX 18 3 -9 16
BITMAP
07F800
7FFF80
E001C0
ENDCHAR
STARTCHAR 0362
ENCODING 866
SWIDTH 0 0
DWIDTH 0 0
BBX 18 4 -9 -4
BITMAP
000080
FFFFC0
000080
000100
ENDCHAR
STARTCHAR 0370
ENCODING 880
SWIDTH 650 0
DWIDTH 13 0
BBX 9 15 2 0
BITMAP
C000
C000
C000
C000
C000
C000
FF80
FF80
C000
C000
C000
C000
C000
C000
C000
ENDCHAR
STARTCHAR 0371
ENCODING 881
SWIDTH 550 0
DWIDTH 11 0
BBX 8 11 2 0
BITMAP
C0
C0
C0
C0
C0
FF
C0
C0
C0
C0
C0
ENDCHAR
STARTCHAR 0372
ENCODING 882
SWIDTH 850 0
DWIDTH 17 0
BBX 13 15 2 0
BITMAP
FFF8
FFF8
C318
C318
C318
C318
C318
C318
0300
0300
0300
0300
0300
0300
0300
ENDCHAR
STARTCHAR 0373
ENCODING 883
SWIDTH 650 0
DWIDTH 13 0
BBX 9 15 2 0
BITMAP
FF80
FF80
C980
C980
C980
C980
C980
C980
0800
0800
0800
0800
0800
0800
0800
ENDCHAR
STARTCHAR 0374
ENCODING 884
SWIDTH 300 0
DWIDTH 6 0
BBX 2 5 2 11
BITMAP
C0
C0
C0
80
80
ENDCHAR
STARTCHAR 0375
ENCODING 885
SWIDTH 300 0
DWIDTH 6 0
BBX 2 5 2 -4
BITMAP
40
40
C0
C0
C0
ENDCHAR
STARTCHAR 0376
ENCODING 886
SWIDTH 750 0
DWIDTH 15 0
BBX 11 15 2 0
BITMAP
C0E0
C1E0
C1E0
C3E0
C360
C760
C660
CE60
CC60
DC60
D860
F860
F060
F060
E060
ENDCHAR
STARTCHAR 0377
ENCODING 887
SWIDTH 650 0
DWIDTH 13 0
BBX 9 11 2 0
BITMAP
C380
C380
C780
CF80
CD80
DD80
D980
F180
F180
E180
E180
ENDCHAR
STARTCHAR 037A
ENCODING 890
SWIDTH 500 0
DWIDTH 10 0
BBX 2 3 4 -4
BITMAP
C0
C0
C0
ENDCHAR
STARTCHAR 037B
ENCODING 891
SWIDTH 550 0
DWIDTH 11 0
BBX 9 11 1 0
BITMAP
7C00
FF00
8700
0380
0180
0180
0180
0380
8700
FF00
7C00
ENDCHAR
STARTCHAR 037C
ENCODING 892
SWIDTH 550 0
DWIDTH 11 0
BBX 9 11 1 0
BITMAP
1F00
7F80
7080
E000
CC00
CC00
C000
E000
7080
3F80
1F00
ENDCHAR
STARTCHAR 037D
ENCODING 893
SWIDTH 550 0
DWIDTH 11 0
BBX 9 11 1 0
BITMAP
7C00
FF00
8700
0380
3180
3180
0180
0380
8700
FF00
7C00
ENDCHAR
STARTCHAR 037E
ENCODING 894
SWIDTH 350 0
DWIDTH 7 0
BBX 3 13 1 -3
BITMAP
60
60
00
00
00
00
00
00
60
60
60
C0
80
ENDCHAR
STARTCHAR 0384
ENCODING 900
SWIDTH 500 0
DWIDTH 10 0
BBX 5 4 3 12
BITMAP
18
30
60
C0
ENDCHAR
STARTCHAR 0385
ENCODING 901
SWIDTH 500 0
DWIDTH 10 0
BBX 6 7 2 13
BITMAP
0C
18
30
60
00
CC
CC
ENDCHAR
STARTCHAR 0386
ENCODING 902
SWIDTH 700 0
DWIDTH 14 0
BBX 13 16 0 0
BITMAP
1800
3700
6700
C700
0D80
0D80
1DC0
18C0
18C0
3060
3060
3FE0
7FF0
6030
6030
C018
ENDCHAR
STARTCHAR 0387
ENCODING 903
SWIDTH 300 0
DWIDTH 6 0
BBX 2 2 2 6
BITMAP
C0
C0
ENDCHAR
STARTCHAR 0388
ENCODING 904
SWIDTH 750 0
DWIDTH 15 0
BBX 14 16 -1 0
BITMAP
1800
37FC
67FC
C600
0600
0600
0600
07FC
07FC
0600
0600
0600
0600
0600
07FC
07FC
ENDCHAR
STARTCHAR 0389
ENCODING 905
SWIDTH 850 0
DWIDTH 17 0
BBX 16 16 -1 0
BITMAP
1800
3603
6603
C603
0603
0603
0603
07FF
07FF
0603
0603
0603
0603
0603
0603
0603
ENDCHAR
STARTCHAR 038A
ENCODING 906
SWIDTH 400 0
DWIDTH 8 0
BBX 7 16 -1 0
BITMAP
18
36
66
C6
06
06
06
06
06
06
06
06
06
06
06
06
ENDCHAR
STARTCHAR 038C
ENCODING 908
SWIDTH 800 0
DWIDTH 16 0
BBX 16 16 -1 0
BITMAP
1800
33F0
6FFC
CE1C
1806
3807
3003
3003
3003
3003
3003
3807
1806
0E1C
0FFC
03F0
ENDCHAR
STARTCHAR 038E
ENCODING 910
SWIDTH 850 0
DWIDTH 17 0
BBX 17 16 -1 0
BITMAP
180000
370380
630300
C18600
01CE00
00CC00
00FC00
007800
003000
003000
003000
003000
003000
003000
003000
003000
ENDCHAR
STARTCHAR 038F
ENCODING 911
SWIDTH 850 0
DWIDTH 17 0
BBX 16 16 -1 0
BITMAP
1800
31F0
67FC
CE0E
0C06
1C07
1803
1803
1803
1803
1807
0C06
060C
071C
1FBF
1FBF
ENDCHAR
STARTCHAR 0390
ENCODING 912
SWIDTH 400 0
DWIDTH 8 0
BBX 7 20 0 0
BITMAP
0C
18
30
60
00
CC
CC
00
00
30
30
30
30
30
30
30
30
30
1E
1E
ENDCHAR
STARTCHAR 0391
ENCODING 913
SWIDTH 700 0
DWIDTH 14 0
BBX 13 15 0 0
BITMAP
0700
0700
0700
0D80
0D80
1DC0
18C0
18C0
3060
3060
3FE0
7FF0
6030
6030
C018
ENDCHAR
STARTCHAR 0392
ENCODING 914
SWIDTH 700 0
DWIDTH 14 0
BBX 10 15 2 0
BITMAP
FE00
FF00
C380
C180
C180
C380
FF00
FF00
C180
C0C0
C0C0
C0C0
C1C0
FF80
FF00
ENDCHAR
STARTCHAR 0393
ENCODING 915
SWIDTH 550 0
DWIDTH 11 0
BBX 9 15 2 0
BITMAP
FF80
FF80
C000
C000
C000
C000
C000
C000
C000
C000
C000
C000
C000
C000
C000
ENDCHAR
STARTCHAR 0394
ENCODING 916
SWIDTH 700 0
DWIDTH 14 0
BBX 13 15 0 0
BITMAP
0700
0700
0700
0D80
0D80
1DC0
18C0
18C0
3060
3060
3060
6030
6030
7FF0
FFF8
ENDCHAR
STARTCHAR 0395
ENCODING 917
SWIDTH 650 0
DWIDTH 13 0
BBX 9 15 2 0
BITMAP
FF80
FF80
C000
C000
C000
C000
FF80
FF80
C000
C000
C000
C000
C000
FF80
FF80
ENDCHAR
STARTCHAR 0396
ENCODING 918
SWIDTH 700 0
DWIDTH 14 0
BBX 12 15 1 0
BITMAP
FFF0
FFF0
0060
00C0
01C0
0380
0700
0600
0C00
1C00
3800
3000
6000
FFF0
FFF0
ENDCHAR
STARTCHAR 0397
ENCODING 919
SWIDTH 750 0
DWIDTH 15 0
BBX 11 15 2 0
BITMAP
C060
C060
C060
C060
C060
C060
FFE0
FFE0
C060
C060
C060
C060
C060
C060
C060
ENDCHAR
STARTCHAR 0398
ENCODING 920
SWIDTH 800 0
DWIDTH 16 0
BBX 14 15 1 0
BITMAP
0FC0
3FF0
3870
6018
E01C
C00C
DFEC
DFEC
C00C
C00C
E01C
6018
3870
3FF0
0FC0
ENDCHAR
STARTCHAR 0399
ENCODING 921
SWIDTH 300 0
DWIDTH 6 0
BBX 2 15 2 0
BITMAP
C0
C0
C0
C0
C0
C0
C0
C0
C0
C0
C0
C0
C0
C0
C0
ENDCHAR
STARTCHAR 039A
ENCODING 922
SWIDTH 650 0
DWIDTH 13 0
BBX 11 15 2 0
BITMAP
C1C0
C380
C700
CE00
DC00
F800
F000
F000
F800
DC00
CE00
C700
C380
C1C0
C0E0
ENDCHAR
STARTCHAR 039B
ENCODING 923
SWIDTH 700 0
DWIDTH 14 0
BBX 13 15 0 0
BITMAP
0700
0700
0700
0D80
0D80
1DC0
18C0
18C0
3060
3060
3060
6030
6030
6030
C018
ENDCHAR
STARTCHAR 039C
ENCODING 924
SWIDTH 850 0
DWIDTH 17 0
BBX 13 15 2 0
BITMAP
F078
F078
F078
D8D8
D8D8
D8D8
CD98
CD98
CD98
C718
C718
C718
C018
C018
C018
ENDCHAR
STARTCHAR 039D
ENCODING 925
SWIDTH 750 0
DWIDTH 15 0
BBX 11 15 2 0
BITMAP
E060
F060
F060
F860
D860
DC60
CC60
CE60
C660
C760
C360
C3E0
C1E0
C0E0
C0E0
ENDCHAR
STARTCHAR 039E
ENCODING 926
SWIDTH 650 0
DWIDTH 13 0
BBX 9 15 2 0
BITMAP
FF80
FF80
0000
0000
0000
0000
7F00
7F00
0000
0000
0000
0000
0000
FF80
FF80
ENDCHAR
STARTCHAR 039F
ENCODING 927
SWIDTH 800 0
DWIDTH 16 0
BBX 14 15 1 0
BITMAP
0FC0
3FF0
3870
6018
E01C
C00C
C00C
C00C
C00C
C00C
E01C
6018
3870
3FF0
0FC0
ENDCHAR
STARTCHAR 03A0
ENCODING 928
SWIDTH 750 0
DWIDTH 15 0
BBX 11 15 2 0
BITMAP
FFE0
FFE0
C060
C060
C060
C060
C060
C060
C060
C060
C060
C060
C060
C060
C060
ENDCHAR
STARTCHAR 03A1
ENCODING 929
SWIDTH 600 0
DWIDTH 12 0
BBX 9 15 2 0
BITMAP
FE00
FF00
C380
C180
C180
C180
C380
FF00
FE00
C000
C000
C000
C000
C000
C000
ENDCHAR
STARTCHAR 03A3
ENCODING 931
SWIDTH 600 0
DWIDTH 12 0
BBX 9 15 2 0
BITMAP
FF80
FF80
E000
7000
3800
1C00
0E00
0E00
0C00
1800
3800
7000
E000
FF80
FF80
ENDCHAR
STARTCHAR 03A4
ENCODING 932
SWIDTH 600 0
DWIDTH 12 0
BBX 12 15 0 0
BITMAP
FFF0
FFF0
0600
0600
0600
0600
0600
0600
0600
0600
0600
0600
0600
0600
0600
ENDCHAR
STARTCHAR 03A5
ENCODING 933
SWIDTH 600 0
DWIDTH 12 0
BBX 12 15 0 0
BITMAP
E070
6060
30C0
39C0
1980
1F80
0F00
0600
0600
0600
0600
0600
0600
0600
0600
ENDCHAR
STARTCHAR 03A6
ENCODING 934
SWIDTH 800 0
DWIDTH 16 0
BBX 14 15 1 0
BITMAP
0300
0300
0FC0
3FF0
7338
E31C
C30C
C30C
C30C
E31C
7338
3FF0
0FC0
0300
0300
ENDCHAR
STARTCHAR 03A7
ENCODING 935
SWIDTH 700 0
DWIDTH 14 0
BBX 12 15 1 0
BITMAP
7070
3060
38C0
19C0
0D80
0F00
0700
0700
0F00
0F80
1980
38C0
30E0
6060
E070
ENDCHAR
STARTCHAR 03A8
ENCODING 936
SWIDTH 800 0
DWIDTH 16 0
BBX 14 15 1 0
BITMAP
C30C
C30C
C30C
C30C
C30C
C30C
C30C
6318
6318
3B70
1FE0
0FC0
0300
0300
0300
ENDCHAR
STARTCHAR 03A9
ENCODING 937
SWIDTH 750 0
DWIDTH 15 0
BBX 13 15 1 0
BITMAP
0F80
3FE0
7070
6030
E038
C018
C018
C018
C018
C038
6030
3060
38E0
FDF8
FDF8
ENDCHAR
STARTCHAR 03AA
ENCODING 938
SWIDTH 300 0
DWIDTH 6 0
BBX 6 19 0 0
BITMAP
CC
CC
00
00
30
30
30
30
30
30
30
30
30
30
30
30
30
30
30
ENDCHAR
STARTCHAR 03AB
ENCODING 939
SWIDTH 600 0
DWIDTH 12 0
BBX 12 19 0 0
BITMAP
1980
1980
0000
0000
E070
6060
30C0
39C0
1980
1F80
0F00
0600
0600
0600
0600
0600
0600
0600
0600
ENDCHAR
STARTCHAR 03AC
ENCODING 940
SWIDTH 650 0
DWIDTH 13 0
BBX 11 16 1 0
BITMAP
0300
0600
0C00
1800
0000
3E60
7FC0
63C0
C3C0
C380
C180
C380
C380
E780
7FE0
3CE0
ENDCHAR
STARTCHAR 03AD
ENCODING 941
SWIDTH 500 0
DWIDTH 10 0
BBX 8 16 1 0
BITMAP
03
06
0C
18
00
3F
FF
C0
C0
7C
7C
E0
C0
E1
7F
3E
ENDCHAR
STARTCHAR 03AE
ENCODING 942
SWIDTH 650 0
DWIDTH 13 0
BBX 9 20 2 -4
BITMAP
0300
0600
0C00
1800
0000
DE00
FF00
E380
C180
C180
C180
C180
C180
C180
C180
C180
0180
0180
0180
0180
ENDCHAR
STARTCHAR 03AF
ENCODING 943
SWIDTH 400 0
DWIDTH 8 0
BBX 6 16 1 0
BITMAP
18
30
60
C0
00
60
60
60
60
60
60
60
60
60
3C
3C
ENDCHAR
STARTCHAR 03B0
ENCODING 944
SWIDTH 600 0
DWIDTH 12 0
BBX 9 20 2 -1
BITMAP
0C00
1800
3000
6000
0000
CC00
CC00
0000
0000
C300
C100
C180
C180
C180
C180
C180
C300
E700
7E00
3C00
ENDCHAR
STARTCHAR 03B1
ENCODING 945
SWIDTH 650 0
DWIDTH 13 0
BBX 11 11 1 0
BITMAP
3E60
7FC0
63C0
C3C0
C380
C180
C380
C380
E780
7FE0
3CE0
ENDCHAR
STARTCHAR 03B2
ENCODING 946
SWIDTH 600 0
DWIDTH 12 0
BBX 9 19 2 -4
BITMAP
3C00
7F00
E300
C300
C300
C700
DE00
DF00
C380
C180
C180
C180
E380
FF00
FE00
C000
C000
C000
C000
ENDCHAR
STARTCHAR 03B3
ENCODING 947
SWIDTH 600 0
DWIDTH 12 0
BBX 11 15 0 -4
BITMAP
E060
F0C0
30C0
30C0
1980
1980
1980
0F00
0F00
0F00
0600
0600
0600
0600
0600
ENDCHAR
STARTCHAR 03B4
ENCODING 948
SWIDTH 600 0
DWIDTH 12 0
BBX 10 15 1 0
BITMAP
1F00
7F80
6080
6000
7C00
1F00
6380
41C0
C0C0
C0C0
C0C0
C0C0
6180
7F80
1E00
ENDCHAR
STARTCHAR 03B5
ENCODING 949
SWIDTH 500 0
DWIDTH 10 0
BBX 8 11 1 0
BITMAP
3F
FF
C0
C0
7C
7C
E0
C0
E1
7F
3E
ENDCHAR
STARTCHAR 03B6
ENCODING 950
SWIDTH 550 0
DWIDTH 11 0
BBX 9 19 1 -4
BITMAP
FF80
FF80
0F00
1C00
3800
7000
6000
C000
C000
C000
C000
E000
7000
7F00
1F80
0180
0180
0380
0300
ENDCHAR
STARTCHAR 03B7
ENCODING 951
SWIDTH 650 0
DWIDTH 13 0
BBX 9 15 2 -4
BITMAP
DE00
FF00
E380
C180
C180
C180
C180
C180
C180
C180
C180
0180
0180
0180
0180
ENDCHAR
STARTCHAR 03B8
ENCODING 952
SWIDTH 600 0
DWIDTH 12 0
BBX 10 15 1 0
BITMAP
1E00
3F00
6180
6180
C0C0
C0C0
FFC0
FFC0
C0C0
C0C0
C0C0
6180
7180
3F00
1E00
ENDCHAR
STARTCHAR 03B9
ENCODING 953
SWIDTH 400 0
DWIDTH 8 0
BBX 5 11 2 0
BITMAP
C0
C0
C0
C0
C0
C0
C0
C0
C0
78
78
ENDCHAR
STARTCHAR 03BA
ENCODING 954
SWIDTH 550 0
DWIDTH 11 0
BBX 9 11 2 0
BITMAP
C300
CE00
DC00
F800
F800
FC00
CC00
CE00
C600
C300
C380
ENDCHAR
STARTCHAR 03BB
ENCODING 955
SWIDTH 650 0
DWIDTH 13 0
BBX 11 15 1 0
BITMAP
3800
3C00
0C00
0E00
0600
0600
0F00
0F00
1F80
1980
3980
30C0
70C0
60C0
E060
ENDCHAR
STARTCHAR 03BC
ENCODING 956
SWIDTH 650 0
DWIDTH 13 0
BBX 10 15 2 -4
BITMAP
C180
C180
C180
C180
C180
C180
C180
C180
E380
FFC0
DCC0
C000
C000
C000
C000
ENDCHAR
STARTCHAR 03BD
ENCODING 957
SWIDTH 600 0
DWIDTH 12 0
BBX 10 11 1 0
BITMAP
C180
C180
60C0
60C0
60C0
70C0
3180
3380
3700
1E00
1C00
ENDCHAR
STARTCHAR 03BE
ENCODING 958
SWIDTH 600 0
DWIDTH 12 0
BBX 10 19 1 -4
BITMAP
7F80
7F80
3800
7000
6000
6000
7000
3F00
3F00
6000
C000
C000
E000
7F80
1FC0
00C0
00C0
01C0
0180
ENDCHAR
STARTCHAR 03BF
ENCODING 959
SWIDTH 600 0
DWIDTH 12 0
BBX 10 11 1 0
BITMAP
1E00
7F80
6180
C0C0
C0C0
C0C0
C0C0
C0C0
6180
7F80
1E00
ENDCHAR
STARTCHAR 03C0
ENCODING 960
SWIDTH 600 0
DWIDTH 12 0
BBX 11 11 1 0
BITMAP
FFC0
FFC0
6180
6180
6180
6180
6180
6180
6180
61E0
60E0
ENDCHAR
STARTCHAR 03C1
ENCODING 961
SWIDTH 650 0
DWIDTH 13 0
BBX 10 15 2 -4
BITMAP
1F00
7F80
6180
C0C0
C0C0
C0C0
C0C0
C0C0
E180
FF80
DF00
C000
C000
C000
C000
ENDCHAR
STARTCHAR 03C2
ENCODING 962
SWIDTH 600 0
DWIDTH 12 0
BBX 9 15 1 -4
BITMAP
1F00
7F80
7080
E000
C000
C000
C000
E000
7000
3F00
1F80
0180
0180
0380
0300
ENDCHAR
STARTCHAR 03C3
ENCODING 963
SWIDTH 650 0
DWIDTH 13 0
BBX 11 11 1 0
BITMAP
3FE0
7FE0
6180
C0C0
C0C0
C0C0
C0C0
C0C0
6180
7F80
1E00
ENDCHAR
STARTCHAR 03C4
ENCODING 964
SWIDTH 600 0
DWIDTH 12 0
BBX 10 11 1 0
BITMAP
FFC0
FFC0
0C00
0C00
0C00
0C00
0C00
0C00
0C00
0F80
0780
ENDCHAR
STARTCHAR 03C5
ENCODING 965
SWIDTH 600 0
DWIDTH 12 0
BBX 9 11 2 -1
BITMAP
C300
C100
C180
C180
C180
C180
C180
C300
E700
7E00
3C00
ENDCHAR
STARTCHAR 03C6
ENCODING 966
SWIDTH 700 0
DWIDTH 14 0
BBX 12 15 1 -4
BITMAP
33C0
77E0
6660
C630
C630
C630
C630
C630
6660
7FE0
1F80
0600
0600
0600
0600
ENDCHAR
STARTCHAR 03C7
ENCODING 967
SWIDTH 600 0
DWIDTH 12 0
BBX 10 15 1 -4
BITMAP
E1C0
F180
3380
3B00
1F00
1E00
0E00
0C00
1C00
1E00
3E00
3600
7300
63C0
E1C0
ENDCHAR
STARTCHAR 03C8
ENCODING 968
SWIDTH 700 0
DWIDTH 14 0
BBX 12 15 1 -4
BITMAP
C630
C630
C630
C630
C630
C630
C630
C630
E670
7FE0
1F80
0600
0600
0600
0600
ENDCHAR
STARTCHAR 03C9
ENCODING 969
SWIDTH 800 0
DWIDTH 16 0
BBX 14 11 1 0
BITMAP
3030
6018
6018
C00C
C30C
C30C
C30C
C30C
E79C
7FF8
3CF0
ENDCHAR
STARTCHAR 03CA
ENCODING 970
SWIDTH 400 0
DWIDTH 8 0
BBX 7 15 0 0
BITMAP
CC
CC
00
00
30
30
30
30
30
30
30
30
30
1E
1E
ENDCHAR
STARTCHAR 03CB
ENCODING 971
SWIDTH 600 0
DWIDTH 12 0
BBX 9 15 2 -1
BITMAP
CC00
CC00
0000
0000
C300
C100
C180
C180
C180
C180
C180
C300
E700
7E00
3C00
ENDCHAR
STARTCHAR 03CC
ENCODING 972
SWIDTH 600 0
DWIDTH 12 0
BBX 10 16 1 0
BITMAP
0300
0600
0C00
1800
0000
1E00
7F80
6180
C0C0
C0C0
C0C0
C0C0
C0C0
6180
7F80
1E00
ENDCHAR
STARTCHAR 03CD
ENCODING 973
SWIDTH 600 0
DWIDTH 12 0
BBX 9 16 2 -1
BITMAP
0C00
1800
3000
6000
0000
C300
C100
C180
C180
C180
C180
C180
C300
E700
7E00
3C00
ENDCHAR
STARTCHAR 03CE
ENCODING 974
SWIDTH 800 0
DWIDTH 16 0
BBX 14 16 1 0
BITMAP
00C0
0180
0300
0600
0000
3030
6018
6018
C00C
C30C
C30C
C30C
C30C
E79C
7FF8
3CF0
ENDCHAR
STARTCHAR 03CF
ENCODING 975
SWIDTH 650 0
DWIDTH 13 0
BBX 11 19 2 -5
BITMAP
C0E0
C1C0
C380
C700
CE00
DC00
F800
F000
F800
DC00
CE00
C700
C380
C1C0
C0E0
0060
0040
0080
0180
ENDCHAR
STARTCHAR 03D0
ENCODING 976
SWIDTH 600 0
DWIDTH 12 0
BBX 9 15 2 0
BITMAP
1C00
7E00
6300
C300
C300
C600
FE00
FE00
C300
C180
C180
E180
6380
7F00
1E00
ENDCHAR
STARTCHAR 03D1
ENCODING 977
SWIDTH 600 0
DWIDTH 12 0
BBX 10 15 1 0
BITMAP
0E00
1F80
3980
30C0
30C0
38C0
DFC0
CFC0
C0C0
C0C0
C0C0
6180
7180
3F00
1E00
ENDCHAR
STARTCHAR 03D2
ENCODING 978
SWIDTH 700 0
DWIDTH 14 0
BBX 12 15 1 0
BITMAP
F0E0
F9F0
1D70
0F00
0E00
0600
0600
0600
0600
0600
0600
0600
0600
0600
0600
ENDCHAR
STARTCHAR 03D3
ENCODING 979
SWIDTH 850 0
DWIDTH 17 0
BBX 17 16 -1 0
BITMAP
180000
378700
67CF80
C0EB80
007800
007000
003000
003000
003000
003000
003000
003000
003000
003000
003000
003000
ENDCHAR
STARTCHAR 03D4
ENCODING 980
SWIDTH 700 0
DWIDTH 14 0
BBX 12 19 1 0
BITMAP
1980
1980
0000
0000
F0E0
F9F0
1D70
0F00
0E00
0600
0600
0600
0600
0600
0600
0600
0600
0600
0600
ENDCHAR
STARTCHAR 03D5
ENCODING 981
SWIDTH 700 0
DWIDTH 14 0
BBX 12 19 1 -4
BITMAP
0600
0600
0600
0600
1F80
7FE0
6660
C630
C630
C630
C630
C630
6660
7FE0
1F80
0600
0600
0600
0600
ENDCHAR
STARTCHAR 03D6
ENCODING 982
SWIDTH 800 0
DWIDTH 16 0
BBX 16 11 0 -1
BITMAP
FFFF
FFFF
300C
6006
6186
6186
6186
6186
73CE
3FFC
1E78
ENDCHAR
STARTCHAR 03D7
ENCODING 983
SWIDTH 650 0
DWIDTH 13 0
BBX 11 15 1 -5
BITMAP
F060
F8E0
19C0
09C0
1B80
1F00
1B00
3300
7300
E1E0
C1E0
0040
00C0
07C0
0780
ENDCHAR
STARTCHAR 03D8
ENCODING 984
SWIDTH 800 0
DWIDTH 16 0
BBX 14 19 1 -4
BITMAP
0FC0
3FF0
3870
6018
E01C
C00C
C00C
C00C
C00C
C00C
E01C
6018
7878
3FF0
0FC0
0300
0300
0300
0300
ENDCHAR
STARTCHAR 03D9
ENCODING 985
SWIDTH 600 0
DWIDTH 12 0
BBX 10 15 1 -4
BITMAP
1E00
7F80
6180
C0C0
C0C0
C0C0
C0C0
C0C0
6180
7F80
3F00
0C00
0C00
0C00
0C00
ENDCHAR
STARTCHAR 03DA
ENCODING 986
SWIDTH 650 0
DWIDTH 13 0
BBX 10 19 1 -4
BITMAP
1FC0
3FC0
7000
6000
C000
C000
C000
C000
C000
C000
C000
6000
7000
3F00
1F80
0180
0180
0380
0300
ENDCHAR
STARTCHAR 03DB
ENCODING 987
SWIDTH 600 0
DWIDTH 12 0
BBX 10 15 1 -4
BITMAP
1FC0
7FC0
6000
C000
C000
C000
C000
E000
7000
7E00
1F00
0300
0300
0700
0600
ENDCHAR
STARTCHAR 03DC
ENCODING 988
SWIDTH 600 0
DWIDTH 12 0
BBX 8 15 2 0
BITMAP
FF
FF
C0
C0
C0
C0
FE
FE
C0
C0
C0
C0
C0
C0
C0
ENDCHAR
STARTCHAR 03DD
ENCODING 989
SWIDTH 450 0
DWIDTH 9 0
BBX 10 19 -2 -4
BITMAP
03C0
07C0
0E00
0C00
0C00
0C00
0C00
0F80
0F80
0C00
0C00
0C00
0C00
0C00
0C00
0C00
1C00
F800
F000
ENDCHAR
STARTCHAR 03DE
ENCODING 990
SWIDTH 650 0
DWIDTH 13 0
BBX 10 15 2 -1
BITMAP
8000
E000
7000
3000
2040
61C0
6780
7F80
F980
C100
0300
0300
0300
03C0
01C0
ENDCHAR
STARTCHAR 03DF
ENCODING 991
SWIDTH 650 0
DWIDTH 13 0
BBX 9 15 2 0
BITMAP
3800
3000
3000
7000
6000
6000
FF80
FF80
0300
0300
0300
0600
0600
0600
0E00
ENDCHAR
STARTCHAR 03E0
ENCODING 992
SWIDTH 850 0
DWIDTH 17 0
BBX 15 19 1 -5
BITMAP
1F80
7FE0
F870
9818
181C
183C
186C
18C6
00C6
00C6
00C6
00C6
00C6
00C6
00C6
000C
000C
001C
0018
ENDCHAR
STARTCHAR 03E1
ENCODING 993
SWIDTH 650 0
DWIDTH 13 0
BBX 10 15 1 -3
BITMAP
E000
7800
0C00
0600
0700
0700
0D80
1B80
3680
64C0
4CC0
0040
0040
0040
0040
ENDCHAR
STARTCHAR 03E2
ENCODING 994
SWIDTH 900 0
DWIDTH 18 0
BBX 16 19 1 -4
BITMAP
300C
6006
6006
6006
C003
C003
C183
C183
C183
C183
C183
C187
63C6
7E7E
3C3C
0038
0070
03C0
0300
ENDCHAR
STARTCHAR 03E3
ENCODING 995
SWIDTH 800 0
DWIDTH 16 0
BBX 14 15 1 -4
BITMAP
6018
6018
C00C
C00C
C30C
C30C
C30C
C30C
E79C
7FF8
3CF0
0070
00E0
0380
0600
ENDCHAR
STARTCHAR 03E4
ENCODING 996
SWIDTH 750 0
DWIDTH 15 0
BBX 12 19 1 -4
BITMAP
0C30
3C30
7030
6030
6030
C030
C030
C030
C030
C030
E030
6070
70F0
3FB0
1F30
0030
0030
0030
0030
ENDCHAR
STARTCHAR 03E5
ENCODING 997
SWIDTH 650 0
DWIDTH 13 0
BBX 10 15 1 -4
BITMAP
18C0
78C0
60C0
E0C0
C0C0
C0C0
C0C0
C0C0
61C0
7FC0
3EC0
00C0
00C0
00C0
00C0
ENDCHAR
STARTCHAR 03E6
ENCODING 998
SWIDTH 800 0
DWIDTH 16 0
BBX 13 19 2 -4
BITMAP
C000
C000
C000
C000
CF80
DFE0
F070
E030
C018
C018
C018
C018
C018
C030
C030
00E0
01C0
0F00
3800
ENDCHAR
STARTCHAR 03E7
ENCODING 999
SWIDTH 600 0
DWIDTH 12 0
BBX 10 11 1 0
BITMAP
3E40
77C0
4180
C3C0
7FC0
3CC0
00C0
00C0
00C0
F180
FF00
ENDCHAR
STARTCHAR 03E8
ENCODING 1000
SWIDTH 700 0
DWIDTH 14 0
BBX 12 19 1 -5
BITMAP
1F00
3FC0
70E0
6060
E070
0070
0060
0060
00E0
01C0
0380
0700
1C00
3800
7000
E000
7020
3FE0
0F80
ENDCHAR
STARTCHAR 03E9
ENCODING 1001
SWIDTH 600 0
DWIDTH 12 0
BBX 10 15 1 -4
BITMAP
3F00
7380
60C0
00C0
00C0
00C0
0180
0300
0600
1C00
3000
E000
6000
39C0
1F00
ENDCHAR
STARTCHAR 03EA
ENCODING 1002
SWIDTH 750 0
DWIDTH 15 0
BBX 13 15 1 0
BITMAP
E018
F038
3860
18C0
0CC0
0780
0700
0700
0780
0D80
1CC0
18E0
3060
FFF8
FFF8
ENDCHAR
STARTCHAR 03EB
ENCODING 1003
SWIDTH 650 0
DWIDTH 13 0
BBX 11 11 1 1
BITMAP
E0E0
3180
3300
1F00
0E00
0E00
1E00
3300
3180
FFE0
FFE0
ENDCHAR
STARTCHAR 03EC
ENCODING 1004
SWIDTH 700 0
DWIDTH 14 0
BBX 12 15 1 0
BITMAP
03F0
3FF0
7000
6000
6F80
F9C0
E060
C070
C030
C030
C030
C070
6060
79E0
1F80
ENDCHAR
STARTCHAR 03ED
ENCODING 1005
SWIDTH 600 0
DWIDTH 12 0
BBX 10 15 1 0
BITMAP
0F80
3F80
6000
4000
DF00
F380
E180
C0C0
C0C0
C0C0
C0C0
C0C0
6180
7380
3F00
ENDCHAR
STARTCHAR 03EE
ENCODING 1006
SWIDTH 600 0
DWIDTH 12 0
BBX 12 19 0 -4
BITMAP
0600
0600
0600
0600
FFF0
FFF0
C630
0600
0600
0600
0600
0600
0600
0600
0600
0600
0600
0600
0600
ENDCHAR
STARTCHAR 03EF
ENCODING 1007
SWIDTH 550 0
DWIDTH 11 0
BBX 10 19 0 -4
BITMAP
0C00
0C00
0C00
0C00
FFC0
FFC0
CCC0
0C00
0C00
0C00
0C00
0C00
0C00
0C00
0C00
0C00
0C00
0C00
0C00
ENDCHAR
STARTCHAR 03F0
ENCODING 1008
SWIDTH 650 0
DWIDTH 13 0
BBX 11 11 1 -1
BITMAP
F060
F8E0
19C0
09C0
1B80
1F00
1B00
3300
7300
E3E0
C1E0
ENDCHAR
STARTCHAR 03F1
ENCODING 1009
SWIDTH 650 0
DWIDTH 13 0
BBX 10 15 2 -4
BITMAP
1E00
7F80
6180
C0C0
C0C0
C0C0
C0C0
C0C0
E180
FF80
DF00
C000
6000
7FC0
1FC0
ENDCHAR
STARTCHAR 03F2
ENCODING 1010
SWIDTH 550 0
DWIDTH 11 0
BBX 9 11 1 0
BITMAP
1F00
7F80
7080
E000
C000
C000
C000
E000
7080
3F80
1F00
ENDCHAR
STARTCHAR 03F3
ENCODING 1011
SWIDTH 300 0
DWIDTH 6 0
BBX 4 19 0 -4
BITMAP
30
30
00
00
30
30
30
30
30
30
30
30
30
30
30
30
30
E0
E0
ENDCHAR
STARTCHAR 03F4
ENCODING 1012
SWIDTH 800 0
DWIDTH 16 0
BBX 14 15 1 0
BITMAP
0FC0
3FF0
3870
6018
E00C
C00C
FFFC
FFFC
C00C
C00C
E01C
6018
3870
3FF0
0FC0
ENDCHAR
STARTCHAR 03F5
ENCODING 1013
SWIDTH 600 0
DWIDTH 12 0
BBX 9 11 1 0
BITMAP
1F80
7880
6000
C000
C000
FF80
C000
C000
6000
7080
1F80
ENDCHAR
STARTCHAR 03F6
ENCODING 1014
SWIDTH 600 0
DWIDTH 12 0
BBX 8 11 2 0
BITMAP
FC
8E
03
03
03
FF
03
03
03
8E
FC
ENDCHAR
STARTCHAR 03F7
ENCODING 1015
SWIDTH 600 0
DWIDTH 12 0
BBX 9 15 2 0
BITMAP
C000
C000
C000
FE00
FF00
C380
C180
C180
C180
C380
FF00
FE00
C000
C000
C000
ENDCHAR
STARTCHAR 03F8
ENCODING 1016
SWIDTH 650 0
DWIDTH 13 0
BBX 10 19 2 -4
BITMAP
C000
C000
C000
C000
DF00
FF80
E180
C0C0
C0C0
C0C0
C0C0
C0C0
E180
FF80
DF00
C000
C000
C000
C000
ENDCHAR
STARTCHAR 03F9
ENCODING 1017
SWIDTH 700 0
DWIDTH 14 0
BBX 12 15 1 0
BITMAP
0FE0
1FF0
3810
6000
E000
C000
C000
C000
C000
C000
E000
6000
3810
3FF0
0FE0
ENDCHAR
STARTCHAR 03FA
ENCODING 1018
SWIDTH 850 0
DWIDTH 17 0
BBX 13 15 2 0
BITMAP
E038
F078
F8F8
DDD8
CD98
C718
C718
C018
C018
C018
C018
C018
C018
C018
C018
ENDCHAR
STARTCHAR 03FB
ENCODING 1019
SWIDTH 700 0
DWIDTH 14 0
BBX 11 15 1 -4
BITMAP
F1E0
F1E0
FBE0
DF60
CE60
CE60
C060
C060
C060
C060
C060
C000
C000
C000
C000
ENDCHAR
STARTCHAR 03FC
ENCODING 1020
SWIDTH 650 0
DWIDTH 13 0
BBX 11 15 1 -4
BITMAP
1F00
3980
60C0
60C0
6060
6060
6060
60C0
60C0
71C0
6F80
6000
FE00
FE00
6000
ENDCHAR
STARTCHAR 03FD
ENCODING 1021
SWIDTH 700 0
DWIDTH 14 0
BBX 12 15 1 0
BITMAP
7F00
FFC0
81C0
0060
0070
0030
0030
0030
0030
0030
0070
0060
81C0
FFC0
7F00
ENDCHAR
STARTCHAR 03FE
ENCODING 1022
SWIDTH 700 0
DWIDTH 14 0
BBX 12 15 1 0
BITMAP
0FE0
1FF0
3810
6000
E000
C000
C000
C180
C180
C000
E000
6000
3810
3FF0
0FE0
ENDCHAR
STARTCHAR 03FF
ENCODING 1023
SWIDTH 700 0
DWIDTH 14 0
BBX 12 15 1 0
BITMAP
7F00
FFC0
81C0
0060
0070
0030
0030
1830
1830
0030
0070
0060
81C0
FFC0
7F00
ENDCHAR
STARTCHAR 0400
ENCODING 1024
SWIDTH 650 0
DWIDTH 13 0
BBX 9 19 2 0
BITMAP
1800
0C00
0400
0000
FF80
FF80
C000
C000
C000
C000
FF80
FF80
C000
C000
C000
C000
C000
FF80
FF80
ENDCHAR
STARTCHAR 0401
ENCODING 1025
SWIDTH 650 0
DWIDTH 13 0
BBX 9 19 2 0
BITMAP
6300
6300
0000
0000
FF80
FF80
C000
C000
C000
C000
FF80
FF80
C000
C000
C000
C000
C000
FF80
FF80
ENDCHAR
STARTCHAR 0402
ENCODING 1026
SWIDTH 800 0
DWIDTH 16 0
BBX 14 19 0 -4
BITMAP
FFE0
FFE0
0C00
0C00
0C00
0C00
0FF0
0FF8
0C1C
0C0C
0C0C
0C0C
0C0C
0C0C
0C0C
000C
001C
0078
0070
ENDCHAR
STARTCHAR 0403
ENCODING 1027
SWIDTH 600 0
DWIDTH 12 0
BBX 9 19 2 0
BITMAP
0200
0600
0C00
0000
FF80
FF80
C000
C000
C000
C000
C000
C000
C000
C000
C000
C000
C000
C000
C000
ENDCHAR
STARTCHAR 0404
ENCODING 1028
SWIDTH 700 0
DWIDTH 14 0
BBX 12 15 1 0
BITMAP
0FE0
3FF0
3010
6000
C000
C000
FFC0
FFC0
C000
C000
E000
6000
3810
3FF0
0FE0
ENDCHAR
STARTCHAR 0405
ENCODING 1029
SWIDTH 650 0
DWIDTH 13 0
BBX 10 15 1 0
BITMAP
3F00
7F80
E080
C000
C000
E000
7C00
3F00
0380
00C0
00C0
00C0
81C0
FF80
7F00
ENDCHAR
STARTCHAR 0406
ENCODING 1030
SWIDTH 300 0
DWIDTH 6 0
BBX 2 15 2 0
BITMAP
C0
C0
C0
C0
C0
C0
C0
C0
C0
C0
C0
C0
C0
C0
C0
ENDCHAR
STARTCHAR 0407
ENCODING 1031
SWIDTH 300 0
DWIDTH 6 0
BBX 6 19 0 0
BITMAP
CC
CC
00
00
30
30
30
30
30
30
30
30
30
30
30
30
30
30
30
ENDCHAR
STARTCHAR 0408
ENCODING 1032
SWIDTH 300 0
DWIDTH 6 0
BBX 5 19 -1 -4
BITMAP
18
18
18
18
18
18
18
18
18
18
18
18
18
18
18
18
38
F0
E0
ENDCHAR
STARTCHAR 0409
ENCODING 1033
SWIDTH 1100 0
DWIDTH 22 0
BBX 20 15 1 0
BITMAP
0FF800
0FF800
0C1800
0C1800
0C1800
0C1800
0C1FC0
0C1FE0
0C1870
1C1830
181830
181830
781870
F01FE0
C01FC0
ENDCHAR
STARTCHAR 040A
ENCODING 1034
SWIDTH 1050 0
DWIDTH 21 0
BBX 17 15 2 0
BITMAP
C0C000
C0C000
C0C000
C0C000
C0C000
C0C000
FFFE00
FFFF00
C0C380
C0C180
C0C180
C0C180
C0C380
C0FF00
C0FE00
ENDCHAR
STARTCHAR 040B
ENCODING 1035
SWIDTH 800 0
DWIDTH 16 0
BBX 14 15 0 0
BITMAP
FFE0
FFE0
0C00
0C00
0C00
0C00
0FF0
0FF8
0C1C
0C0C
0C0C
0C0C
0C0C
0C0C
0C0C
ENDCHAR
STARTCHAR 040C
ENCODING 1036
SWIDTH 700 0
DWIDTH 14 0
BBX 12 19 2 0
BITMAP
0200
0600
0C00
0000
C070
C0E0
C1C0
C380
C700
CE00
DC00
FE00
F700
E300
C180
C1C0
C0C0
C060
C070
ENDCHAR
STARTCHAR 040D
ENCODING 1037
SWIDTH 750 0
DWIDTH 15 0
BBX 11 19 2 0
BITMAP
1800
0C00
0400
0000
C0E0
C1E0
C1E0
C3E0
C360
C760
C660
CE60
CC60
DC60
D860
F860
F060
F060
E060
ENDCHAR
STARTCHAR 040E
ENCODING 1038
SWIDTH 600 0
DWIDTH 12 0
BBX 12 18 0 0
BITMAP
1080
0F00
0000
C030
6060
6060
30E0
30C0
18C0
1980
1D80
0F00
0F00
0700
0600
0E00
3C00
3800
ENDCHAR
STARTCHAR 040F
ENCODING 1039
SWIDTH 700 0
DWIDTH 14 0
BBX 10 18 2 -3
BITMAP
C0C0
C0C0
C0C0
C0C0
C0C0
C0C0
C0C0
C0C0
C0C0
C0C0
C0C0
C0C0
C0C0
FFC0
FFC0
0C00
0C00
0C00
ENDCHAR
STARTCHAR 0410
ENCODING 1040
SWIDTH 700 0
DWIDTH 14 0
BBX 13 15 0 0
BITMAP
0700
0700
0700
0D80
0D80
1DC0
18C0
18C0
3060
3060
3FE0
7FF0
6030
6030
C018
ENDCHAR
STARTCHAR 0411
ENCODING 1041
SWIDTH 650 0
DWIDTH 13 0
BBX 10 15 2 0
BITMAP
FF80
FF80
C000
C000
C000
C000
FF00
FF80
C1C0
C0C0
C0C0
C0C0
C1C0
FF80
FF00
ENDCHAR
STARTCHAR 0412
ENCODING 1042
SWIDTH 700 0
DWIDTH 14 0
BBX 10 15 2 0
BITMAP
FE00
FF00
C380
C180
C180
C380
FF00
FF00
C180
C0C0
C0C0
C0C0
C1C0
FF80
FF00
ENDCHAR
STARTCHAR 0413
ENCODING 1043
SWIDTH 600 0
DWIDTH 12 0
BBX 9 15 2 0
BITMAP
FF80
FF80
C000
C000
C000
C000
C000
C000
C000
C000
C000
C000
C000
C000
C000
ENDCHAR
STARTCHAR 0414
ENCODING 1044
SWIDTH 800 0
DWIDTH 16 0
BBX 14 18 1 -3
BITMAP
1FF0
1FF0
1830
1830
1830
1830
1830
1830
1830
1830
3030
3030
7030
FFFC
FFFC
C00C
C00C
C00C
ENDCHAR
STARTCHAR 0415
ENCODING 1045
SWIDTH 650 0
DWIDTH 13 0
BBX 9 15 2 0
BITMAP
FF80
FF80
C000
C000
C000
C000
FF80
FF80
C000
C000
C000
C000
C000
FF80
FF80
ENDCHAR
STARTCHAR 0416
ENCODING 1046
SWIDTH 1100 0
DWIDTH 22 0
BBX 20 15 1 0
BITMAP
E06070
7060E0
3861C0
1C6380
0E6700
076E00
076E00
0FFF00
0CF300
1CF380
186180
3060C0
7060E0
606060
E06070
ENDCHAR
STARTCHAR 0417
ENCODING 1047
SWIDTH 650 0
DWIDTH 13 0
BBX 10 15 2 0
BITMAP
7E00
FF80
C1C0
00C0
00C0
01C0
1F00
1F80
01C0
00C0
00C0
00C0
81C0
FF80
7E00
ENDCHAR
STARTCHAR 0418
ENCODING 1048
SWIDTH 750 0
DWIDTH 15 0
BBX 11 15 2 0
BITMAP
C0E0
C1E0
C1E0
C3E0
C360
C760
C660
CE60
CC60
DC60
D860
F860
F060
F060
E060
ENDCHAR
STARTCHAR 0419
ENCODING 1049
SWIDTH 750 0
DWIDTH 15 0
BBX 11 18 2 0
BITMAP
1100
0E00
0000
C0E0
C1E0
C1E0
C3E0
C360
C760
C660
CE60
CC60
DC60
D860
F860
F060
F060
E060
ENDCHAR
STARTCHAR 041A
ENCODING 1050
SWIDTH 700 0
DWIDTH 14 0
BBX 12 15 2 0
BITMAP
C070
C0E0
C1C0
C380
C700
CE00
DC00
FE00
F700
E300
C180
C1C0
C0C0
C060
C070
ENDCHAR
STARTCHAR 041B
ENCODING 1051
SWIDTH 800 0
DWIDTH 16 0
BBX 13 15 1 0
BITMAP
0FF8
0FF8
0C18
0C18
0C18
0C18
0C18
0C18
0C18
1C18
1818
1818
3818
F018
C018
ENDCHAR
STARTCHAR 041C
ENCODING 1052
SWIDTH 850 0
DWIDTH 17 0
BBX 13 15 2 0
BITMAP
F078
F078
F078
D8D8
D8D8
D8D8
CD98
CD98
CD98
C718
C718
C718
C018
C018
C018
ENDCHAR
STARTCHAR 041D
ENCODING 1053
SWIDTH 750 0
DWIDTH 15 0
BBX 11 15 2 0
BITMAP
C060
C060
C060
C060
C060
C060
FFE0
FFE0
C060
C060
C060
C060
C060
C060
C060
ENDCHAR
STARTCHAR 041E
ENCODING 1054
SWIDTH 800 0
DWIDTH 16 0
BBX 14 15 1 0
BITMAP
0FC0
3FF0
3870
6018
E01C
C00C
C00C
C00C
C00C
C00C
E01C
6018
3870
3FF0
0FC0
ENDCHAR
STARTCHAR 041F
ENCODING 1055
SWIDTH 750 0
DWIDTH 15 0
BBX 11 15 2 0
BITMAP
FFE0
FFE0
C060
C060
C060
C060
C060
C060
C060
C060
C060
C060
C060
C060
C060
ENDCHAR
STARTCHAR 0420
ENCODING 1056
SWIDTH 600 0
DWIDTH 12 0
BBX 9 15 2 0
BITMAP
FE00
FF00
C380
C180
C180
C180
C380
FF00
FE00
C000
C000
C000
C000
C000
C000
ENDCHAR
STARTCHAR 0421
ENCODING 1057
SWIDTH 700 0
DWIDTH 14 0
BBX 12 15 1 0
BITMAP
0FE0
1FF0
3810
6000
E000
C000
C000
C000
C000
C000
E000
6000
3810
3FF0
0FE0
ENDCHAR
STARTCHAR 0422
ENCODING 1058
SWIDTH 600 0
DWIDTH 12 0
BBX 12 15 0 0
BITMAP
FFF0
FFF0
0600
0600
0600
0600
0600
0600
0600
0600
0600
0600
0600
0600
0600
ENDCHAR
STARTCHAR 0423
ENCODING 1059
SWIDTH 600 0
DWIDTH 12 0
BBX 12 15 0 0
BITMAP
C030
6060
6060
30E0
30C0
18C0
1980
1D80
0F00
0F00
0700
0600
0E00
3C00
3800
ENDCHAR
STARTCHAR 0424
ENCODING 1060
SWIDTH 800 0
DWIDTH 16 0
BBX 14 15 1 0
BITMAP
0300
0FC0
3FF0
7338
E31C
C30C
C30C
C30C
C30C
E31C
7338
3FF0
0FC0
0300
0300
ENDCHAR
STARTCHAR 0425
ENCODING 1061
SWIDTH 700 0
DWIDTH 14 0
BBX 12 15 1 0
BITMAP
7070
3060
38C0
19C0
0D80
0F00
0700
0700
0F00
0F80
1980
38C0
30E0
6060
E070
ENDCHAR
STARTCHAR 0426
ENCODING 1062
SWIDTH 800 0
DWIDTH 16 0
BBX 13 18 2 -3
BITMAP
C060
C060
C060
C060
C060
C060
C060
C060
C060
C060
C060
C060
C060
FFF8
FFF8
0018
0018
0018
ENDCHAR
STARTCHAR 0427
ENCODING 1063
SWIDTH 700 0
DWIDTH 14 0
BBX 10 15 2 0
BITMAP
C0C0
C0C0
C0C0
C0C0
C0C0
C0C0
E0C0
7FC0
3FC0
00C0
00C0
00C0
00C0
00C0
00C0
ENDCHAR
STARTCHAR 0428
ENCODING 1064
SWIDTH 1100 0
DWIDTH 22 0
BBX 18 15 2 0
BITMAP
C0C0C0
C0C0C0
C0C0C0
C0C0C0
C0C0C0
C0C0C0
C0C0C0
C0C0C0
C0C0C0
C0C0C0
C0C0C0
C0C0C0
C0C0C0
FFFFC0
FFFFC0
ENDCHAR
STARTCHAR 0429
ENCODING 1065
SWIDTH 1150 0
DWIDTH 23 0
BBX 20 18 2 -3
BITMAP
C0C0C0
C0C0C0
C0C0C0
C0C0C0
C0C0C0
C0C0C0
C0C0C0
C0C0C0
C0C0C0
C0C0C0
C0C0C0
C0C0C0
C0C0C0
FFFFF0
FFFFF0
000030
000030
000030
ENDCHAR
STARTCHAR 042A
ENCODING 1066
SWIDTH 850 0
DWIDTH 17 0
BBX 14 15 1 0
BITMAP
FC00
FC00
0C00
0C00
0C00
0C00
0FF0
0FF8
0C1C
0C0C
0C0C
0C0C
0C1C
0FF8
0FF0
ENDCHAR
STARTCHAR 042B
ENCODING 1067
SWIDTH 900 0
DWIDTH 18 0
BBX 14 15 2 0
BITMAP
C00C
C00C
C00C
C00C
C00C
C00C
FF0C
FF8C
C1CC
C0CC
C0CC
C0CC
C1CC
FF8C
FF0C
ENDCHAR
STARTCHAR 042C
ENCODING 1068
SWIDTH 650 0
DWIDTH 13 0
BBX 10 15 2 0
BITMAP
C000
C000
C000
C000
C000
C000
FF00
FF80
C1C0
C0C0
C0C0
C0C0
C1C0
FF80
FF00
ENDCHAR
STARTCHAR 042D
ENCODING 1069
SWIDTH 700 0
DWIDTH 14 0
BBX 12 15 1 0
BITMAP
7F00
FF80
80C0
0060
0030
0030
3FF0
3FF0
0030
0030
0070
0060
81C0
FFC0
7F00
ENDCHAR
STARTCHAR 042E
ENCODING 1070
SWIDTH 1050 0
DWIDTH 21 0
BBX 18 15 2 0
BITMAP
C07C00
C1FF00
C38380
C30180
C701C0
C600C0
C600C0
FE00C0
FE00C0
C600C0
C701C0
C30180
C38380
C1FF00
C07C00
ENDCHAR
STARTCHAR 042F
ENCODING 1071
SWIDTH 700 0
DWIDTH 14 0
BBX 11 15 1 0
BITMAP
1FE0
3FE0
7060
6060
6060
6060
7060
3FE0
0FE0
0C60
1860
3860
3060
6060
E060
ENDCHAR
STARTCHAR 0430
ENCODING 1072
SWIDTH 600 0
DWIDTH 12 0
BBX 9 11 1 0
BITMAP
3E00
7F00
4380
0180
3F80
7F80
C180
C180
C380
FF80
7D80
ENDCHAR
STARTCHAR 0431
ENCODING 1073
SWIDTH 600 0
DWIDTH 12 0
BBX 10 15 1 1
BITMAP
1F00
3F80
7000
E000
DE00
FF80
E180
C0C0
C0C0
C0C0
C0C0
C0C0
6180
7F80
1E00
ENDCHAR
STARTCHAR 0432
ENCODING 1074
SWIDTH 600 0
DWIDTH 12 0
BBX 9 11 2 0
BITMAP
FE00
FF00
C300
C300
C200
FE00
FF80
C180
C180
FF80
FE00
ENDCHAR
STARTCHAR 0433
ENCODING 1075
SWIDTH 550 0
DWIDTH 11 0
BBX 8 11 2 0
BITMAP
FF
FF
C0
C0
C0
C0
C0
C0
C0
C0
C0
ENDCHAR
STARTCHAR 0434
ENCODING 1076
SWIDTH 700 0
DWIDTH 14 0
BBX 12 14 1 -3
BITMAP
1FC0
1FC0
18C0
18C0
18C0
18C0
18C0
30C0
30C0
FFF0
FFF0
C030
C030
C030
ENDCHAR
STARTCHAR 0435
ENCODING 1077
SWIDTH 600 0
DWIDTH 12 0
BBX 10 11 1 0
BITMAP
1F00
7F80
61C0
C0C0
FFC0
FFC0
C000
C000
7040
3FC0
1F80
ENDCHAR
STARTCHAR 0436
ENCODING 1078
SWIDTH 900 0
DWIDTH 18 0
BBX 16 11 1 0
BITMAP
718E
399C
1DB8
0DB0
0FF0
0FF0
1BD8
399C
318C
6186
E187
ENDCHAR
STARTCHAR 0437
ENCODING 1079
SWIDTH 500 0
DWIDTH 10 0
BBX 8 11 1 0
BITMAP
7C
FF
83
03
3E
3E
07
03
87
FE
7C
ENDCHAR
STARTCHAR 0438
ENCODING 1080
SWIDTH 650 0
DWIDTH 13 0
BBX 9 11 2 0
BITMAP
C380
C380
C780
CF80
CD80
DD80
D980
F180
F180
E180
E180
ENDCHAR
STARTCHAR 0439
ENCODING 1081
SWIDTH 650 0
DWIDTH 13 0
BBX 9 15 2 0
BITMAP
4100
7F00
3E00
0000
C380
C380
C780
CF80
CD80
DD80
D980
F180
F180
E180
E180
ENDCHAR
STARTCHAR 043A
ENCODING 1082
SWIDTH 600 0
DWIDTH 12 0
BBX 10 11 2 0
BITMAP
C380
C700
CE00
DC00
F800
FC00
EE00
C600
C300
C380
C1C0
ENDCHAR
STARTCHAR 043B
ENCODING 1083
SWIDTH 650 0
DWIDTH 13 0
BBX 10 11 1 0
BITMAP
1FC0
1FC0
18C0
18C0
18C0
18C0
18C0
38C0
70C0
F0C0
C0C0
ENDCHAR
STARTCHAR 043C
ENCODING 1084
SWIDTH 750 0
DWIDTH 15 0
BBX 11 11 2 0
BITMAP
F1E0
F1E0
F1E0
DB60
DB60
DF60
CE60
CE60
C460
C060
C060
ENDCHAR
STARTCHAR 043D
ENCODING 1085
SWIDTH 650 0
DWIDTH 13 0
BBX 9 11 2 0
BITMAP
C180
C180
C180
C180
C180
FF80
FF80
C180
C180
C180
C180
ENDCHAR
STARTCHAR 043E
ENCODING 1086
SWIDTH 600 0
DWIDTH 12 0
BBX 10 11 1 0
BITMAP
1E00
7F80
6180
C0C0
C0C0
C0C0
C0C0
C0C0
6180
7F80
1E00
ENDCHAR
STARTCHAR 043F
ENCODING 1087
SWIDTH 650 0
DWIDTH 13 0
BBX 9 11 2 0
BITMAP
FF80
FF80
C180
C180
C180
C180
C180
C180
C180
C180
C180
ENDCHAR
STARTCHAR 0440
ENCODING 1088
SWIDTH 650 0
DWIDTH 13 0
BBX 10 15 2 -4
BITMAP
DF00
FF80
E180
C0C0
C0C0
C0C0
C0C0
C0C0
E180
FF80
DF00
C000
C000
C000
C000
ENDCHAR
STARTCHAR 0441
ENCODING 1089
SWIDTH 550 0
DWIDTH 11 0
BBX 9 11 1 0
BITMAP
1F00
7F80
7080
E000
C000
C000
C000
E000
7080
3F80
1F00
ENDCHAR
STARTCHAR 0442
ENCODING 1090
SWIDTH 600 0
DWIDTH 12 0
BBX 10 11 1 0
BITMAP
FFC0
FFC0
0C00
0C00
0C00
0C00
0C00
0C00
0C00
0C00
0C00
ENDCHAR
STARTCHAR 0443
ENCODING 1091
SWIDTH 550 0
DWIDTH 11 0
BBX 11 15 0 -4
BITMAP
C060
60C0
60C0
7180
3180
3B80
1B00
1B00
0E00
0E00
0C00
0C00
1C00
7800
7000
ENDCHAR
STARTCHAR 0444
ENCODING 1092
SWIDTH 800 0
DWIDTH 16 0
BBX 14 19 1 -4
BITMAP
0300
0300
0300
0300
3B70
7FF8
679C
C30C
C30C
C30C
C30C
C30C
E79C
7FF8
3B70
0300
0300
0300
0300
ENDCHAR
STARTCHAR 0445
ENCODING 1093
SWIDTH 550 0
DWIDTH 11 0
BBX 11 11 0 0
BITMAP
E0E0
71C0
3B80
1B00
0E00
0E00
1F00
1B00
3180
71C0
E0E0
ENDCHAR
STARTCHAR 0446
ENCODING 1094
SWIDTH 700 0
DWIDTH 14 0
BBX 11 14 2 -3
BITMAP
C180
C180
C180
C180
C180
C180
C180
C180
C180
FFE0
FFE0
0060
0060
0060
ENDCHAR
STARTCHAR 0447
ENCODING 1095
SWIDTH 600 0
DWIDTH 12 0
BBX 9 11 1 0
BITMAP
C180
C180
C180
C180
E180
7F80
3F80
0180
0180
0180
0180
ENDCHAR
STARTCHAR 0448
ENCODING 1096
SWIDTH 900 0
DWIDTH 18 0
BBX 14 11 2 0
BITMAP
C30C
C30C
C30C
C30C
C30C
C30C
C30C
C30C
C30C
FFFC
FFFC
ENDCHAR
STARTCHAR 0449
ENCODING 1097
SWIDTH 950 0
DWIDTH 19 0
BBX 16 14 2 -3
BITMAP
C30C
C30C
C30C
C30C
C30C
C30C
C30C
C30C
C30C
FFFF
FFFF
0003
0003
0003
ENDCHAR
STARTCHAR 044A
ENCODING 1098
SWIDTH 700 0
DWIDTH 14 0
BBX 12 11 1 0
BITMAP
F800
F800
1800
1800
1800
1FC0
1FF0
1830
1830
1FF0
1FC0
ENDCHAR
STARTCHAR 044B
ENCODING 1099
SWIDTH 800 0
DWIDTH 16 0
BBX 12 11 2 0
BITMAP
C030
C030
C030
C030
C030
FE30
FFB0
C1B0
C1B0
FFB0
FE30
ENDCHAR
STARTCHAR 044C
ENCODING 1100
SWIDTH 600 0
DWIDTH 12 0
BBX 9 11 2 0
BITMAP
C000
C000
C000
C000
C000
FE00
FF80
C180
C180
FF80
FE00
ENDCHAR
STARTCHAR 044D
ENCODING 1101
SWIDTH 550 0
DWIDTH 11 0
BBX 9 11 1 0
BITMAP
7C00
FE00
8300
0180
7F80
7F80
0180
0180
8700
FF00
7C00
ENDCHAR
STARTCHAR 044E
ENCODING 1102
SWIDTH 850 0
DWIDTH 17 0
BBX 14 11 2 0
BITMAP
C3E0
C7F8
CE18
CC0C
FC0C
FC0C
CC0C
CC0C
C618
C7F8
C1E0
ENDCHAR
STARTCHAR 044F
ENCODING 1103
SWIDTH 600 0
DWIDTH 12 0
BBX 9 11 1 0
BITMAP
3F80
7F80
6180
6180
6180
3F80
1F80
1980
3180
7180
E180
ENDCHAR
STARTCHAR 0450
ENCODING 1104
SWIDTH 600 0
DWIDTH 12 0
BBX 10 16 1 0
BITMAP
6000
3000
1800
0C00
0000
1F00
7F80
61C0
C0C0
FFC0
FFC0
C000
C000
7040
3FC0
1F80
ENDCHAR
STARTCHAR 0451
ENCODING 1105
SWIDTH 600 0
DWIDTH 12 0
BBX 10 15 1 0
BITMAP
3300
3300
0000
0000
1F00
7F80
61C0
C0C0
FFC0
FFC0
C000
C000
7040
3FC0
1F80
ENDCHAR
STARTCHAR 0452
ENCODING 1106
SWIDTH 650 0
DWIDTH 13 0
BBX 11 19 0 -4
BITMAP
3000
3000
3000
3000
FF80
FF80
3000
3780
3FC0
38E0
3060
3060
3060
3060
30C0
00C0
0380
0700
0600
ENDCHAR
STARTCHAR 0453
ENCODING 1107
SWIDTH 550 0
DWIDTH 11 0
BBX 8 16 2 0
BITMAP
06
0C
18
30
00
FF
FF
C0
C0
C0
C0
C0
C0
C0
C0
C0
ENDCHAR
STARTCHAR 0454
ENCODING 1108
SWIDTH 550 0
DWIDTH 11 0
BBX 9 11 1 0
BITMAP
1F00
3F80
6080
C000
FF00
FF00
C000
C000
6080
7F80
1F00
ENDCHAR
STARTCHAR 0455
ENCODING 1109
SWIDTH 500 0
DWIDTH 10 0
BBX 8 11 1 0
BITMAP
3E
FF
C1
C0
FC
3E
07
03
83
FF
7C
ENDCHAR
STARTCHAR 0456
ENCODING 1110
SWIDTH 300 0
DWIDTH 6 0
BBX 2 15 2 0
BITMAP
C0
C0
00
00
C0
C0
C0
C0
C0
C0
C0
C0
C0
C0
C0
ENDCHAR
STARTCHAR 0457
ENCODING 1111
SWIDTH 300 0
DWIDTH 6 0
BBX 6 15 0 0
BITMAP
CC
CC
00
00
30
30
30
30
30
30
30
30
30
30
30
ENDCHAR
STARTCHAR 0458
ENCODING 1112
SWIDTH 300 0
DWIDTH 6 0
BBX 4 19 0 -4
BITMAP
30
30
00
00
30
30
30
30
30
30
30
30
30
30
30
30
30
E0
E0
ENDCHAR
STARTCHAR 0459
ENCODING 1113
SWIDTH 900 0
DWIDTH 18 0
BBX 16 11 1 0
BITMAP
1FC0
1FC0
18C0
18C0
18C0
18FC
18FF
38C3
70C3
F0FF
C0FC
ENDCHAR
STARTCHAR 045A
ENCODING 1114
SWIDTH 900 0
DWIDTH 18 0
BBX 15 11 2 0
BITMAP
C180
C180
C180
C180
C180
FFF8
FFFE
C186
C186
C1FE
C1F8
ENDCHAR
STARTCHAR 045B
ENCODING 1115
SWIDTH 650 0
DWIDTH 13 0
BBX 11 15 0 0
BITMAP
3000
3000
3000
3000
FF80
FF80
3000
3780
3FC0
38E0
3060
3060
3060
3060
3060
ENDCHAR
STARTCHAR 045C
ENCODING 1116
SWIDTH 600 0
DWIDTH 12 0
BBX 10 16 2 0
BITMAP
0600
0C00
1800
3000
0000
C380
C700
CE00
DC00
F800
FC00
EE00
C600
C300
C380
C1C0
ENDCHAR
STARTCHAR 045D
ENCODING 1117
SWIDTH 650 0
DWIDTH 13 0
BBX 9 16 2 0
BITMAP
C000
6000
3000
1800
0000
C380
C380
C780
CF80
CD80
DD80
D980
F180
F180
E180
E180
ENDCHAR
STARTCHAR 045E
ENCODING 1118
SWIDTH 550 0
DWIDTH 11 0
BBX 11 19 0 -4
BITMAP
1080
1F80
0F00
0000
C060
60C0
60C0
7180
3180
3B80
1B00
1B00
0E00
0E00
0C00
0C00
1C00
7800
7000
ENDCHAR
STARTCHAR 045F
ENCODING 1119
SWIDTH 600 0
DWIDTH 12 0
BBX 8 14 2 -3
BITMAP
C3
C3
C3
C3
C3
C3
C3
C3
C3
FF
FF
18
18
18
ENDCHAR
STARTCHAR 0460
ENCODING 1120
SWIDTH 900 0
DWIDTH 18 0
BBX 16 15 1 0
BITMAP
300C
6006
6006
6006
C003
C003
C183
C183
C183
C183
C183
C187
63C6
7E7E
3C3C
ENDCHAR
STARTCHAR 0461
ENCODING 1121
SWIDTH 850 0
DWIDTH 17 0
BBX 14 11 1 0
BITMAP
3030
6018
6018
C00C
C30C
C30C
C30C
C30C
E79C
7FF8
3CF0
ENDCHAR
STARTCHAR 0462
ENCODING 1122
SWIDTH 750 0
DWIDTH 15 0
BBX 14 15 0 0
BITMAP
0C00
0C00
FFC0
FFC0
0C00
0C00
0FF0
0FF8
0C1C
0C0C
0C0C
0C0C
0C1C
0FF8
0FF0
ENDCHAR
STARTCHAR 0463
ENCODING 1123
SWIDTH 650 0
DWIDTH 13 0
BBX 12 15 0 0
BITMAP
1800
1800
1800
1800
FF80
FF80
1800
1800
1800
1FC0
1FF0
1830
1830
1FF0
1FC0
ENDCHAR
STARTCHAR 0464
ENCODING 1124
SWIDTH 950 0
DWIDTH 19 0
BBX 16 15 2 -1
BITMAP
C07C
C1FF
C303
C600
C600
CC00
FFF8
FFF8
CC00
CC00
CC00
C600
C701
C3C7
C0FE
ENDCHAR
STARTCHAR 0465
ENCODING 1125
SWIDTH 750 0
DWIDTH 15 0
BBX 12 11 2 0
BITMAP
C3F0
CE30
CC00
D800
D800
FFC0
D800
D800
CC00
CE30
C7F0
ENDCHAR
STARTCHAR 0466
ENCODING 1126
SWIDTH 900 0
DWIDTH 18 0
BBX 17 15 0 0
BITMAP
00C000
01C000
01E000
036000
033000
063800
061800
0C1C00
0FFC00
1FFE00
38C600
30C700
70C300
60C380
E0C180
ENDCHAR
STARTCHAR 0467
ENCODING 1127
SWIDTH 800 0
DWIDTH 16 0
BBX 14 11 1 0
BITMAP
0300
0780
0D80
0CC0
18C0
1860
3FF0
2330
6318
C318
C30C
ENDCHAR
STARTCHAR 0468
ENCODING 1128
SWIDTH 1150 0
DWIDTH 23 0
BBX 20 15 2 0
BITMAP
C01800
C03C00
C03C00
C07600
C06600
C0E300
FFC300
FFC180
C1FF80
C3FFC0
C318C0
C61860
C61860
CC1830
CC1830
ENDCHAR
STARTCHAR 0469
ENCODING 1129
SWIDTH 1000 0
DWIDTH 20 0
BBX 17 11 2 0
BITMAP
C06000
C0F000
C0D800
C19800
C18C00
FF0C00
C7FE00
C66200
CC6300
CC6180
D86180
ENDCHAR
STARTCHAR 046A
ENCODING 1130
SWIDTH 800 0
DWIDTH 16 0
BBX 14 15 1 0
BITMAP
7FF8
3FF0
3870
1860
1CE0
0CC0
07C0
0FC0
3FF0
7B78
6318
6318
C30C
C30C
C30C
ENDCHAR
STARTCHAR 046B
ENCODING 1131
SWIDTH 600 0
DWIDTH 12 0
BBX 10 11 1 0
BITMAP
FFC0
7F80
3380
3300
1E00
3F00
7F80
6D80
CCC0
CCC0
CCC0
ENDCHAR
STARTCHAR 046C
ENCODING 1132
SWIDTH 1050 0
DWIDTH 21 0
BBX 17 15 2 0
BITMAP
CFFF80
C7FF00
C30300
C30600
C18E00
C1CC00
FFDC00
FFF800
C1FC00
C3B700
C63300
C63180
CC3180
CC3180
CC3180
ENDCHAR
STARTCHAR 046D
ENCODING 1133
SWIDTH 800 0
DWIDTH 16 0
BBX 13 11 2 0
BITMAP
CFF8
CFF8
C630
C660
C360
FFC0
C7F0
CDB8
CD98
D998
D998
ENDCHAR
STARTCHAR 046E
ENCODING 1134
SWIDTH 650 0
DWIDTH 13 0
BBX 10 23 1 -5
BITMAP
2100
1200
1200
1C00
3E00
7F80
01C0
00C0
00C0
0180
1F80
1F00
0180
00C0
00C0
00C0
00C0
3F80
FF00
C000
C000
FF80
3F80
ENDCHAR
STARTCHAR 046F
ENCODING 1135
SWIDTH 550 0
DWIDTH 11 0
BBX 8 19 1 -3
BITMAP
23
24
24
18
7E
47
03
03
3E
3E
03
01
01
07
FE
80
80
FE
7E
ENDCHAR
STARTCHAR 0470
ENCODING 1136
SWIDTH 850 0
DWIDTH 17 0
BBX 17 15 0 0
BITMAP
018000
C18380
618600
618C00
618C00
318C00
319800
119800
199000
19B000
0FF000
0FE000
018000
018000
018000
ENDCHAR
STARTCHAR 0471
ENCODING 1137
SWIDTH 900 0
DWIDTH 18 0
BBX 16 19 1 -4
BITMAP
0300
0300
0300
0300
C307
C30C
C30C
6318
6318
2330
3330
3330
1B60
1FE0
1FC0
0300
0300
0300
0300
ENDCHAR
STARTCHAR 0472
ENCODING 1138
SWIDTH 800 0
DWIDTH 16 0
BBX 14 15 1 0
BITMAP
0FC0
3FF0
3870
6018
E00C
C00C
FFFC
FFFC
C00C
C00C
E01C
6018
3870
3FF0
0FC0
ENDCHAR
STARTCHAR 0473
ENCODING 1139
SWIDTH 600 0
DWIDTH 12 0
BBX 10 11 1 0
BITMAP
1E00
7F80
6180
C0C0
FFC0
FFC0
C0C0
C0C0
6180
7F80
1E00
ENDCHAR
STARTCHAR 0474
ENCODING 1140
SWIDTH 800 0
DWIDTH 16 0
BBX 15 15 0 0
BITMAP
C00E
601E
6018
6030
3030
3030
3860
1860
18C0
0CC0
0CC0
0D80
0780
0780
0300
ENDCHAR
STARTCHAR 0475
ENCODING 1141
SWIDTH 650 0
DWIDTH 13 0
BBX 12 11 1 1
BITMAP
C070
C0C0
C180
6180
6100
2300
3300
3600
1E00
1E00
1C00
ENDCHAR
STARTCHAR 0476
ENCODING 1142
SWIDTH 800 0
DWIDTH 16 0
BBX 15 19 0 0
BITMAP
1B00
0D80
04C0
0000
C00E
601E
6018
6030
3030
3030
3860
1860
18C0
0CC0
0CC0
0D80
0780
0780
0300
ENDCHAR
STARTCHAR 0477
ENCODING 1143
SWIDTH 650 0
DWIDTH 13 0
BBX 12 16 1 0
BITMAP
6600
3300
1100
1980
0000
C070
C0C0
C180
6180
6100
2300
3300
3600
1E00
1E00
1C00
ENDCHAR
STARTCHAR 0478
ENCODING 1144
SWIDTH 1000 0
DWIDTH 20 0
BBX 18 19 1 -5
BITMAP
1C0000
3F0000
630000
618000
C1B0C0
C1B0C0
C1B180
C19980
C19900
C18F00
C18F00
618E00
618600
330400
3E0C00
000C00
001800
003800
007000
ENDCHAR
STARTCHAR 0479
ENCODING 1145
SWIDTH 900 0
DWIDTH 18 0
BBX 16 15 1 -4
BITMAP
3CC3
66C3
4363
C366
C326
C33C
C33C
C31C
4318
6618
3C30
0030
0020
0060
01C0
ENDCHAR
STARTCHAR 047A
ENCODING 1146
SWIDTH 950 0
DWIDTH 19 0
BBX 17 15 1 -1
BITMAP
00C000
0FFC00
39CE00
700700
600300
E00180
C00180
C00180
C00180
C00180
600300
600300
308600
1FFC00
01C000
ENDCHAR
STARTCHAR 047B
ENCODING 1147
SWIDTH 750 0
DWIDTH 15 0
BBX 13 11 1 0
BITMAP
0FC0
3FF0
6030
C018
C018
C018
C018
C018
6030
3FF0
1FC0
ENDCHAR
STARTCHAR 047C
ENCODING 1148
SWIDTH 1200 0
DWIDTH 24 0
BBX 21 19 1 0
BITMAP
003000
01FC00
010400
007000
007000
003000
306060
600030
600030
600030
C00018
C00018
C00018
C00018
C0F818
C1FC18
E38E38
7E03F0
3C01E0
ENDCHAR
STARTCHAR 047D
ENCODING 1149
SWIDTH 1050 0
DWIDTH 21 0
BBX 18 15 1 0
BITMAP
006000
03F800
02E800
00E000
006000
00C000
600180
600180
C000C0
C000C0
C000C0
C1E0C0
E7F9C0
7E1F80
380700
ENDCHAR
STARTCHAR 047E
ENCODING 1150
SWIDTH 950 0
DWIDTH 19 0
BBX 16 18 1 0
BITMAP
0FF8
0490
0000
300C
6006
6006
6006
C003
C003
C183
C183
C183
C183
C183
C187
63C6
7E7E
3C3C
ENDCHAR
STARTCHAR 047F
ENCODING 1151
SWIDTH 850 0
DWIDTH 17 0
BBX 14 15 1 0
BITMAP
1FF0
0920
0000
0000
3030
6018
6018
C00C
C30C
C30C
C30C
C30C
E79C
7FF8
3CF0
ENDCHAR
STARTCHAR 0480
ENCODING 1152
SWIDTH 700 0
DWIDTH 14 0
BBX 12 19 1 -4
BITMAP
0FE0
1FF0
3810
6000
E000
C000
C000
C000
C000
C000
E000
6000
7800
3FE0
0FE0
0060
0060
0060
0060
ENDCHAR
STARTCHAR 0481
ENCODING 1153
SWIDTH 550 0
DWIDTH 11 0
BBX 9 15 1 -4
BITMAP
1F00
3F80
7080
E000
C000
C000
C000
E000
7000
7F00
1F00
0300
0300
0300
0300
ENDCHAR
STARTCHAR 0482
ENCODING 1154
SWIDTH 500 0
DWIDTH 10 0
BBX 8 10 1 0
BITMAP
06
36
3C
0F
DB
F9
78
7C
64
40
ENDCHAR
STARTCHAR 0483
ENCODING 1155
SWIDTH 0 0
DWIDTH 0 0
BBX 8 4 -10 13
BITMAP
03
FF
C0
C0
ENDCHAR
STARTCHAR 0484
ENCODING 1156
SWIDTH 0 0
DWIDTH 0 0
BBX 7 3 -7 12
BITMAP
18
FE
82
ENDCHAR
STARTCHAR 0485
ENCODING 1157
SWIDTH 0 0
DWIDTH 0 0
BBX 3 4 -6 11
BITMAP
E0
E0
80
60
ENDCHAR
STARTCHAR 0486
ENCODING 1158
SWIDTH 0 0
DWIDTH 0 0
BBX 3 4 -6 11
BITMAP
E0
E0
60
C0
ENDCHAR
STARTCHAR 0487
ENCODING 1159
SWIDTH 0 0
DWIDTH 0 0
BBX 15 4 -15 12
BITMAP
1C00
7F80
C0FC
000E
ENDCHAR
STARTCHAR 0488
ENCODING 1160
SWIDTH 400 0
DWIDTH 8 0
BBX 28 22 -20 -3
BITMAP
001F0000
00118000
06000600
1F001F00
10801080
00000000
00000000
00000000
00000000
700000E0
F80003F0
8C000210
00000000
00000000
00000000
00000000
0F000F00
19801980
10801080
000F0000
00198000
00108000
ENDCHAR
STARTCHAR 0489
ENCODING 1161
SWIDTH 400 0
DWIDTH 8 0
BBX 26 26 -19 -5
BITMAP
00040000
000C0000
000C0000
0C0C0000
04000E00
06003C00
06003000
00000000
00000000
00000000
00000000
E0000000
78000780
180007C0
00000000
00000000
00000000
00000000
06001000
0E003800
3C001800
000C0800
000C0800
00080000
00180000
00100000
ENDCHAR
STARTCHAR 048A
ENCODING 1162
SWIDTH 750 0
DWIDTH 15 0
BBX 13 22 2 -5
BITMAP
2100
1E00
0000
C0E0
C0E0
C1E0
C1E0
C360
C360
C660
C660
CC60
CC60
D860
F060
F060
E078
E078
0018
0030
0060
0040
ENDCHAR
STARTCHAR 048B
ENCODING 1163
SWIDTH 700 0
DWIDTH 14 0
BBX 11 19 2 -5
BITMAP
2100
3F00
1E00
0000
C180
C380
C780
C780
CD80
C980
D980
F180
F180
E1E0
C1E0
0060
00C0
0080
0180
ENDCHAR
STARTCHAR 048C
ENCODING 1164
SWIDTH 650 0
DWIDTH 13 0
BBX 12 15 0 0
BITMAP
3000
3000
FC00
FC00
3000
3000
3FC0
3FE0
3070
3030
3030
3030
3070
3FE0
3FC0
ENDCHAR
STARTCHAR 048D
ENCODING 1165
SWIDTH 600 0
DWIDTH 12 0
BBX 11 14 0 0
BITMAP
3000
3000
3000
FC00
FC00
3000
3000
3F80
3FC0
3060
3060
3060
3FC0
3F80
ENDCHAR
STARTCHAR 048E
ENCODING 1166
SWIDTH 600 0
DWIDTH 12 0
BBX 10 15 2 0
BITMAP
FC00
FF00
C380
C180
C580
CF80
C380
C780
FEC0
C000
C000
C000
C000
C000
C000
ENDCHAR
STARTCHAR 048F
ENCODING 1167
SWIDTH 650 0
DWIDTH 13 0
BBX 10 15 2 -4
BITMAP
DE00
F300
C180
C180
C0C0
C0C0
C0C0
C580
C780
E380
DF80
C080
C080
C000
C000
ENDCHAR
STARTCHAR 0490
ENCODING 1168
SWIDTH 600 0
DWIDTH 12 0
BBX 9 18 2 0
BITMAP
0180
0180
0180
FF80
FF80
C000
C000
C000
C000
C000
C000
C000
C000
C000
C000
C000
C000
C000
ENDCHAR
STARTCHAR 0491
ENCODING 1169
SWIDTH 550 0
DWIDTH 11 0
BBX 8 14 2 0
BITMAP
01
01
01
FF
FF
C0
C0
C0
C0
C0
C0
C0
C0
C0
ENDCHAR
STARTCHAR 0492
ENCODING 1170
SWIDTH 650 0
DWIDTH 13 0
BBX 12 15 0 0
BITMAP
1FF0
1FF0
1800
1800
1800
1800
1800
FFC0
FFC0
1800
1800
1800
1800
1800
1800
ENDCHAR
STARTCHAR 0493
ENCODING 1171
SWIDTH 600 0
DWIDTH 12 0
BBX 11 11 0 0
BITMAP
1FE0
1FE0
1800
1800
1800
FF80
FF80
1800
1800
1800
1800
ENDCHAR
STARTCHAR 0494
ENCODING 1172
SWIDTH 650 0
DWIDTH 13 0
BBX 10 19 2 -4
BITMAP
FF80
FF80
C000
C000
C000
C000
FF00
FF80
C1C0
C0C0
C0C0
C0C0
C0C0
C0C0
C0C0
00C0
01C0
0780
0700
ENDCHAR
STARTCHAR 0495
ENCODING 1173
SWIDTH 600 0
DWIDTH 12 0
BBX 9 15 2 -4
BITMAP
FF00
FF00
C000
C000
C000
FF00
FF80
C180
C180
C180
C180
0180
0180
0F80
0F00
ENDCHAR
STARTCHAR 0496
ENCODING 1174
SWIDTH 1100 0
DWIDTH 22 0
BBX 20 18 1 -4
BITMAP
C06070
6060E0
3060C0
186180
0C6300
0E6600
076E00
0FFE00
0DF300
18E180
306180
3060C0
6060E0
C06070
C06030
000030
000030
000030
ENDCHAR
STARTCHAR 0497
ENCODING 1175
SWIDTH 900 0
DWIDTH 18 0
BBX 17 14 1 -3
BITMAP
618600
318C00
199800
1DB800
0DB000
1FF800
1BD800
318C00
618600
618780
C18380
000180
000180
000180
ENDCHAR
STARTCHAR 0498
ENCODING 1176
SWIDTH 650 0
DWIDTH 13 0
BBX 10 19 2 -4
BITMAP
7E00
FF80
C1C0
00C0
00C0
01C0
1F00
1F80
01C0
00C0
00C0
00C0
81C0
FF80
7E00
0800
0C00
0C00
3800
ENDCHAR
STARTCHAR 0499
ENCODING 1177
SWIDTH 500 0
DWIDTH 10 0
BBX 8 15 1 -4
BITMAP
7C
FF
83
03
3E
3E
07
03
87
FE
7C
08
0C
0C
38
ENDCHAR
STARTCHAR 049A
ENCODING 1178
SWIDTH 700 0
DWIDTH 14 0
BBX 12 18 2 -4
BITMAP
C060
C0C0
C180
C380
C700
CE00
DC00
FE00
F600
E300
C180
C180
C0C0
C070
C070
0030
0030
0030
ENDCHAR
STARTCHAR 049B
ENCODING 1179
SWIDTH 600 0
DWIDTH 12 0
BBX 10 14 2 -3
BITMAP
C300
C600
CC00
D800
F800
FC00
EC00
C600
C300
C3C0
C1C0
00C0
00C0
00C0
ENDCHAR
STARTCHAR 049C
ENCODING 1180
SWIDTH 700 0
DWIDTH 14 0
BBX 11 15 2 0
BITMAP
C060
C0C0
C180
CB80
CF00
CE00
DC00
FE00
FE00
EB00
C980
C980
C0C0
C060
C060
ENDCHAR
STARTCHAR 049D
ENCODING 1181
SWIDTH 600 0
DWIDTH 12 0
BBX 9 11 2 0
BITMAP
C300
C600
DC00
D800
F800
FC00
FC00
D600
D300
C300
C180
ENDCHAR
STARTCHAR 049E
ENCODING 1182
SWIDTH 700 0
DWIDTH 14 0
BBX 13 15 0 0
BITMAP
3018
3030
3060
FCE0
31C0
3380
3700
3F80
3D80
38C0
3060
3060
3030
3018
3018
ENDCHAR
STARTCHAR 049F
ENCODING 1183
SWIDTH 600 0
DWIDTH 12 0
BBX 10 15 1 1
BITMAP
6000
FC00
6000
6000
6180
6300
6600
6C00
7C00
7E00
7600
6300
6180
6180
60C0
ENDCHAR
STARTCHAR 04A0
ENCODING 1184
SWIDTH 850 0
DWIDTH 17 0
BBX 16 15 0 0
BITMAP
FC07
FC0E
0C1C
0C38
0C70
0CE0
0DC0
0FE0
0F70
0E30
0C18
0C1C
0C0C
0C06
0C07
ENDCHAR
STARTCHAR 04A1
ENCODING 1185
SWIDTH 850 0
DWIDTH 17 0
BBX 14 11 0 0
BITMAP
FC38
FC70
0CE0
0DC0
0F80
0FC0
0EE0
0C60
0C30
0C38
0C1C
ENDCHAR
STARTCHAR 04A2
ENCODING 1186
SWIDTH 750 0
DWIDTH 15 0
BBX 13 18 2 -3
BITMAP
C060
C060
C060
C060
C060
C060
FFE0
FFE0
C060
C060
C060
C060
C060
C078
C078
0018
0018
0018
ENDCHAR
STARTCHAR 04A3
ENCODING 1187
SWIDTH 650 0
DWIDTH 13 0
BBX 11 14 2 -3
BITMAP
C180
C180
C180
C180
C180
FF80
FF80
C180
C180
C1E0
C1E0
0060
0060
0060
ENDCHAR
STARTCHAR 04A4
ENCODING 1188
SWIDTH 1000 0
DWIDTH 20 0
BBX 18 15 2 0
BITMAP
C07FC0
C07FC0
C06000
C06000
C06000
C06000
FFE000
FFE000
C06000
C06000
C06000
C06000
C06000
C06000
C06000
ENDCHAR
STARTCHAR 04A5
ENCODING 1189
SWIDTH 900 0
DWIDTH 18 0
BBX 15 11 2 0
BITMAP
C1FE
C1FE
C180
C180
C180
FF80
FF80
C180
C180
C180
C180
ENDCHAR
STARTCHAR 04A6
ENCODING 1190
SWIDTH 1100 0
DWIDTH 22 0
BBX 19 19 2 -4
BITMAP
FFE000
FFE000
C06000
C06000
C06000
C06000
C07F80
C07FC0
C060E0
C06060
C06060
C06060
C06060
C06060
C06060
000060
0000E0
0003C0
000380
ENDCHAR
STARTCHAR 04A7
ENCODING 1191
SWIDTH 950 0
DWIDTH 19 0
BBX 16 16 2 -5
BITMAP
FF80
FF80
C180
C180
C180
C1FE
C183
C183
C183
C183
C183
0003
0003
0003
001F
001E
ENDCHAR
STARTCHAR 04A8
ENCODING 1192
SWIDTH 900 0
DWIDTH 18 0
BBX 16 15 1 -1
BITMAP
0600
1E70
38FC
618C
6186
C186
C186
C186
C186
C186
618C
60CC
7078
3C78
0FFF
ENDCHAR
STARTCHAR 04A9
ENCODING 1193
SWIDTH 700 0
DWIDTH 14 0
BBX 13 11 1 0
BITMAP
1C00
39C0
6360
C260
C620
C620
C260
C360
6340
71C8
1FF8
ENDCHAR
STARTCHAR 04AA
ENCODING 1194
SWIDTH 700 0
DWIDTH 14 0
BBX 12 19 1 -4
BITMAP
0FE0
1FF0
3810
6000
E000
C000
C000
C000
C000
C000
E000
6000
3810
3FF0
0FE0
0100
0180
0180
0700
ENDCHAR
STARTCHAR 04AB
ENCODING 1195
SWIDTH 550 0
DWIDTH 11 0
BBX 9 15 1 -4
BITMAP
1F00
7F80
7080
E000
C000
C000
C000
E000
7080
3F80
1F00
0400
0600
0600
1C00
ENDCHAR
STARTCHAR 04AC
ENCODING 1196
SWIDTH 600 0
DWIDTH 12 0
BBX 12 18 0 -3
BITMAP
FFF0
FFF0
0600
0600
0600
0600
0600
0600
0600
0600
0600
0600
0600
0780
0780
0180
0180
0180
ENDCHAR
STARTCHAR 04AD
ENCODING 1197
SWIDTH 600 0
DWIDTH 12 0
BBX 10 14 1 -3
BITMAP
FFC0
FFC0
0C00
0C00
0C00
0C00
0C00
0C00
0C00
0F00
0F00
0300
0300
0300
ENDCHAR
STARTCHAR 04AE
ENCODING 1198
SWIDTH 600 0
DWIDTH 12 0
BBX 12 15 0 0
BITMAP
E070
6060
30C0
39C0
1980
1F80
0F00
0600
0600
0600
0600
0600
0600
0600
0600
ENDCHAR
STARTCHAR 04AF
ENCODING 1199
SWIDTH 600 0
DWIDTH 12 0
BBX 10 15 1 -4
BITMAP
C0C0
6180
6180
6180
3300
3300
3F00
1E00
1E00
0C00
0C00
0C00
0C00
0C00
0C00
ENDCHAR
STARTCHAR 04B0
ENCODING 1200
SWIDTH 600 0
DWIDTH 12 0
BBX 12 15 0 0
BITMAP
C030
6070
6060
30C0
1980
1D80
0F00
0600
0600
0600
1FC0
0600
0600
0600
0600
ENDCHAR
STARTCHAR 04B1
ENCODING 1201
SWIDTH 600 0
DWIDTH 12 0
BBX 10 15 1 -5
BITMAP
C0C0
C0C0
4180
6180
6100
3300
3300
1600
1E00
1C00
0C00
0C00
7F00
0C00
0C00
ENDCHAR
STARTCHAR 04B2
ENCODING 1202
SWIDTH 700 0
DWIDTH 14 0
BBX 12 18 1 -4
BITMAP
C030
6060
30C0
30C0
1980
0F00
0F00
0600
0F00
1B00
1980
30C0
60C0
6070
C030
0030
0030
0030
ENDCHAR
STARTCHAR 04B3
ENCODING 1203
SWIDTH 600 0
DWIDTH 12 0
BBX 10 14 1 -3
BITMAP
C0C0
6180
3300
1E00
1E00
0C00
1E00
3700
7300
61C0
C0C0
00C0
00C0
00C0
ENDCHAR
STARTCHAR 04B4
ENCODING 1204
SWIDTH 950 0
DWIDTH 19 0
BBX 18 18 0 -3
BITMAP
FFF300
FFF300
060300
060300
060300
060300
060300
060300
060300
060300
060300
060300
060300
07FFC0
07FFC0
0000C0
0000C0
0000C0
ENDCHAR
STARTCHAR 04B5
ENCODING 1205
SWIDTH 800 0
DWIDTH 16 0
BBX 15 14 0 -3
BITMAP
FFD8
FFD8
0C18
0C18
0C18
0C18
0C18
0C18
0C18
0FFE
0FFE
0006
0006
0006
ENDCHAR
STARTCHAR 04B6
ENCODING 1206
SWIDTH 700 0
DWIDTH 14 0
BBX 12 18 2 -3
BITMAP
C0C0
C0C0
C0C0
C0C0
C0C0
E0C0
7FC0
3FC0
00C0
00C0
00C0
00C0
00C0
00F0
00F0
0030
0030
0030
ENDCHAR
STARTCHAR 04B7
ENCODING 1207
SWIDTH 600 0
DWIDTH 12 0
BBX 11 14 1 -3
BITMAP
C180
C180
C180
C180
E180
7F80
3F80
0180
0180
01E0
01E0
0060
0060
0060
ENDCHAR
STARTCHAR 04B8
ENCODING 1208
SWIDTH 700 0
DWIDTH 14 0
BBX 10 15 2 0
BITMAP
C0C0
C0C0
C0C0
CCC0
CCC0
CCC0
FFC0
3FC0
0CC0
0CC0
0CC0
00C0
00C0
00C0
00C0
ENDCHAR
STARTCHAR 04B9
ENCODING 1209
SWIDTH 600 0
DWIDTH 12 0
BBX 9 11 1 0
BITMAP
C180
C180
CD80
6D80
7F80
3F80
0D80
0D80
0180
0180
0180
ENDCHAR
STARTCHAR 04BA
ENCODING 1210
SWIDTH 700 0
DWIDTH 14 0
BBX 10 15 2 0
BITMAP
C000
C000
C000
C000
C000
C000
FF00
FF80
C1C0
C0C0
C0C0
C0C0
C0C0
C0C0
C0C0
ENDCHAR
STARTCHAR 04BB
ENCODING 1211
SWIDTH 650 0
DWIDTH 13 0
BBX 9 15 2 0
BITMAP
C000
C000
C000
C000
DE00
FF00
E380
C180
C180
C180
C180
C180
C180
C180
C180
ENDCHAR
STARTCHAR 04BC
ENCODING 1212
SWIDTH 950 0
DWIDTH 19 0
BBX 18 15 0 0
BITMAP
00FC00
03FF00
078700
C60180
CE0080
EC00C0
7FFFC0
3FFFC0
0C0000
0C0000
0E0000
060000
038080
01FF80
00FF00
ENDCHAR
STARTCHAR 04BD
ENCODING 1213
SWIDTH 700 0
DWIDTH 14 0
BBX 13 11 0 0
BITMAP
03E0
CFF0
CC38
D818
7FF8
7FF8
1800
1800
0E08
0FF8
03F0
ENDCHAR
STARTCHAR 04BE
ENCODING 1214
SWIDTH 950 0
DWIDTH 19 0
BBX 18 19 0 -4
BITMAP
007800
01FE00
030700
C60380
C60180
CE0180
7FFFC0
3FFFC0
0C0000
0C0000
060000
060000
070080
03C780
00FE00
003000
003000
003000
003000
ENDCHAR
STARTCHAR 04BF
ENCODING 1215
SWIDTH 750 0
DWIDTH 15 0
BBX 14 14 0 -3
BITMAP
03E0
0730
CC18
CC08
7808
3FFC
1800
0C00
0C00
0618
03F8
00C0
00C0
00C0
ENDCHAR
STARTCHAR 04C0
ENCODING 1216
SWIDTH 300 0
DWIDTH 6 0
BBX 2 15 2 0
BITMAP
C0
C0
C0
C0
C0
C0
C0
C0
C0
C0
C0
C0
C0
C0
C0
ENDCHAR
STARTCHAR 04C1
ENCODING 1217
SWIDTH 1100 0
DWIDTH 22 0
BBX 20 18 1 0
BITMAP
010800
00F000
000000
E06070
7060E0
3861C0
1C6380
0E6700
076E00
076E00
0FFF00
0CF300
1CF380
186180
3060C0
7060E0
606060
E06070
ENDCHAR
STARTCHAR 04C2
ENCODING 1218
SWIDTH 900 0
DWIDTH 18 0
BBX 16 16 1 0
BITMAP
0420
07E0
03C0
0000
0000
718E
399C
1DB8
0DB0
0FF0
0FF0
1BD8
399C
318C
6186
E187
ENDCHAR
STARTCHAR 04C3
ENCODING 1219
SWIDTH 650 0
DWIDTH 13 0
BBX 11 19 2 -4
BITMAP
C0E0
C1C0
C380
C700
CE00
DC00
FE00
FF80
C1C0
C0C0
C0C0
C0C0
C0C0
C0C0
C0C0
00C0
00C0
0780
0700
ENDCHAR
STARTCHAR 04C4
ENCODING 1220
SWIDTH 600 0
DWIDTH 12 0
BBX 9 15 2 -5
BITMAP
C180
C700
CE00
D800
F000
FE00
C300
C300
C300
C300
C300
0300
0300
0300
1E00
ENDCHAR
STARTCHAR 04C5
ENCODING 1221
SWIDTH 800 0
DWIDTH 16 0
BBX 14 19 1 -5
BITMAP
1FF0
1FF0
1830
1830
1830
1830
1830
1830
1830
1830
1830
3030
3030
E03C
C03C
000C
0018
0030
0020
ENDCHAR
STARTCHAR 04C6
ENCODING 1222
SWIDTH 650 0
DWIDTH 13 0
BBX 13 15 0 -5
BITMAP
0FE0
0FE0
0C60
0C60
0860
0860
1860
1860
1860
7078
E078
0018
0030
0020
0060
ENDCHAR
STARTCHAR 04C7
ENCODING 1223
SWIDTH 750 0
DWIDTH 15 0
BBX 11 19 2 -4
BITMAP
C060
C060
C060
C060
C060
C060
FFE0
FFE0
C060
C060
C060
C060
C060
C060
C060
0060
00E0
03C0
0380
ENDCHAR
STARTCHAR 04C8
ENCODING 1224
SWIDTH 650 0
DWIDTH 13 0
BBX 9 16 2 -5
BITMAP
C180
C180
C180
C180
C180
FF80
FF80
C180
C180
C180
C180
0180
0180
0180
0F80
0F00
ENDCHAR
STARTCHAR 04C9
ENCODING 1225
SWIDTH 800 0
DWIDTH 16 0
BBX 13 19 2 -5
BITMAP
C060
C060
C060
C060
C060
C060
FFE0
FFE0
C060
C060
C060
C060
C060
C078
C078
0018
0030
0060
0040
ENDCHAR
STARTCHAR 04CA
ENCODING 1226
SWIDTH 700 0
DWIDTH 14 0
BBX 11 15 2 -5
BITMAP
C080
C080
C080
C080
C080
FF80
C080
C080
C080
C0E0
C0E0
0060
0040
0080
0180
ENDCHAR
STARTCHAR 04CB
ENCODING 1227
SWIDTH 700 0
DWIDTH 14 0
BBX 10 18 2 -3
BITMAP
C0C0
C0C0
C0C0
C0C0
C0C0
E0C0
7FC0
3FC0
00C0
00C0
00C0
00C0
00C0
03C0
03C0
0300
0300
0300
ENDCHAR
STARTCHAR 04CC
ENCODING 1228
SWIDTH 600 0
DWIDTH 12 0
BBX 9 14 1 -3
BITMAP
C180
C180
C180
C180
E180
7F80
3F80
0180
0180
0780
0780
0600
0600
0600
ENDCHAR
STARTCHAR 04CD
ENCODING 1229
SWIDTH 900 0
DWIDTH 18 0
BBX 15 19 2 -5
BITMAP
E038
E038
F038
F078
D078
D8D8
D8D8
CC98
CD98
C598
C718
C718
C018
C01E
C01E
0006
000C
0008
0010
ENDCHAR
STARTCHAR 04CE
ENCODING 1230
SWIDTH 750 0
DWIDTH 15 0
BBX 13 15 2 -5
BITMAP
E0E0
E0E0
E0E0
F1E0
D160
DB60
CA60
CE60
CE60
C078
C078
0018
0030
0020
0060
ENDCHAR
STARTCHAR 04CF
ENCODING 1231
SWIDTH 300 0
DWIDTH 6 0
BBX 2 15 2 0
BITMAP
C0
C0
C0
C0
C0
C0
C0
C0
C0
C0
C0
C0
C0
C0
C0
ENDCHAR
STARTCHAR 04D0
ENCODING 1232
SWIDTH 700 0
DWIDTH 14 0
BBX 13 19 0 0
BITMAP
0880
0F80
0700
0000
0700
0700
0700
0D80
0D80
1DC0
18C0
18C0
3060
3060
3FE0
7FF0
6030
6030
C018
ENDCHAR
STARTCHAR 04D1
ENCODING 1233
SWIDTH 600 0
DWIDTH 12 0
BBX 9 16 1 0
BITMAP
2200
3E00
1C00
0000
0000
3E00
7F00
4380
0180
3F80
7F80
C180
C180
C380
FF80
7D80
ENDCHAR
STARTCHAR 04D2
ENCODING 1234
SWIDTH 700 0
DWIDTH 14 0
BBX 13 19 0 0
BITMAP
0D80
0D80
0000
0000
0700
0700
0700
0D80
0D80
1DC0
18C0
18C0
3060
3060
3FE0
7FF0
6030
6030
C018
ENDCHAR
STARTCHAR 04D3
ENCODING 1235
SWIDTH 600 0
DWIDTH 12 0
BBX 9 15 1 0
BITMAP
3600
3600
0000
0000
3E00
7F00
4380
0180
3F80
7F80
C180
C180
C380
FF80
7D80
ENDCHAR
STARTCHAR 04D4
ENCODING 1236
SWIDTH 1000 0
DWIDTH 20 0
BBX 18 15 0 0
BITMAP
03FFC0
03FFC0
066000
066000
0E6000
0C6000
0C7FC0
187FC0
186000
306000
3FE000
7FE000
606000
607FC0
C07FC0
ENDCHAR
STARTCHAR 04D5
ENCODING 1237
SWIDTH 950 0
DWIDTH 19 0
BBX 17 11 1 0
BITMAP
3E3E00
7F7F00
43C300
018180
3FFF80
7FFF80
C18000
C18000
C3E080
FEFF80
3C3F00
ENDCHAR
STARTCHAR 04D6
ENCODING 1238
SWIDTH 650 0
DWIDTH 13 0
BBX 9 18 2 0
BITMAP
2100
1E00
0000
FF80
FF80
C000
C000
C000
C000
FF80
FF80
C000
C000
C000
C000
C000
FF80
FF80
ENDCHAR
STARTCHAR 04D7
ENCODING 1239
SWIDTH 600 0
DWIDTH 12 0
BBX 10 16 1 0
BITMAP
2100
3F00
1E00
0000
0000
1F00
7F80
61C0
C0C0
FFC0
FFC0
C000
C000
7040
3FC0
1F80
ENDCHAR
STARTCHAR 04D8
ENCODING 1240
SWIDTH 800 0
DWIDTH 16 0
BBX 13 15 1 0
BITMAP
3F80
7FE0
4070
0030
0018
0018
0018
FFF8
FFF8
C018
C018
6030
7070
3FE0
0F80
ENDCHAR
STARTCHAR 04D9
ENCODING 1241
SWIDTH 600 0
DWIDTH 12 0
BBX 10 11 1 0
BITMAP
7E00
FF00
8180
00C0
FFC0
FFC0
C0C0
C0C0
6180
7F80
1E00
ENDCHAR
STARTCHAR 04DA
ENCODING 1242
SWIDTH 800 0
DWIDTH 16 0
BBX 13 19 1 0
BITMAP
0CC0
0CC0
0000
0000
3F80
7FE0
4070
0030
0018
0018
0018
FFF8
FFF8
C018
C018
6030
7070
3FE0
0F80
ENDCHAR
STARTCHAR 04DB
ENCODING 1243
SWIDTH 600 0
DWIDTH 12 0
BBX 10 15 1 0
BITMAP
3300
3300
0000
0000
7E00
FF00
8180
00C0
FFC0
FFC0
C0C0
C0C0
6180
7F80
1E00
ENDCHAR
STARTCHAR 04DC
ENCODING 1244
SWIDTH 1100 0
DWIDTH 22 0
BBX 20 19 1 0
BITMAP
019800
019800
000000
000000
E06070
7060E0
3861C0
1C6380
0E6700
076E00
076E00
0FFF00
0CF300
1CF380
186180
3060C0
7060E0
606060
E06070
ENDCHAR
STARTCHAR 04DD
ENCODING 1245
SWIDTH 900 0
DWIDTH 18 0
BBX 16 15 1 0
BITMAP
0660
0660
0000
0000
718E
399C
1DB8
0DB0
0FF0
0FF0
1BD8
399C
318C
6186
E187
ENDCHAR
STARTCHAR 04DE
ENCODING 1246
SWIDTH 650 0
DWIDTH 13 0
BBX 10 19 2 0
BITMAP
6600
6600
0000
0000
7E00
FF80
C1C0
00C0
00C0
01C0
1F00
1F80
01C0
00C0
00C0
00C0
81C0
FF80
7E00
ENDCHAR
STARTCHAR 04DF
ENCODING 1247
SWIDTH 500 0
DWIDTH 10 0
BBX 8 15 1 0
BITMAP
33
33
00
00
7C
FF
83
03
3E
3E
07
03
87
FE
7C
ENDCHAR
STARTCHAR 04E0
ENCODING 1248
SWIDTH 650 0
DWIDTH 13 0
BBX 11 15 2 0
BITMAP
FFC0
FFC0
0180
0380
0700
0E00
0F00
0FC0
00C0
0060
0060
0060
80E0
FFC0
3F00
ENDCHAR
STARTCHAR 04E1
ENCODING 1249
SWIDTH 600 0
DWIDTH 12 0
BBX 10 15 1 -4
BITMAP
FF80
FF80
0300
0600
0C00
1C00
1E00
1F80
01C0
00C0
00C0
00C0
81C0
FF80
7E00
ENDCHAR
STARTCHAR 04E2
ENCODING 1250
SWIDTH 750 0
DWIDTH 15 0
BBX 11 18 2 0
BITMAP
3F00
3F00
0000
C0E0
C1E0
C1E0
C3E0
C360
C760
C660
CE60
CC60
DC60
D860
F860
F060
F060
E060
ENDCHAR
STARTCHAR 04E3
ENCODING 1251
SWIDTH 650 0
DWIDTH 13 0
BBX 9 15 2 0
BITMAP
7E00
7E00
0000
0000
C380
C380
C780
CF80
CD80
DD80
D980
F180
F180
E180
E180
ENDCHAR
STARTCHAR 04E4
ENCODING 1252
SWIDTH 750 0
DWIDTH 15 0
BBX 11 19 2 0
BITMAP
3300
3300
0000
0000
C0E0
C1E0
C1E0
C3E0
C360
C760
C660
CE60
CC60
DC60
D860
F860
F060
F060
E060
ENDCHAR
STARTCHAR 04E5
ENCODING 1253
SWIDTH 650 0
DWIDTH 13 0
BBX 9 15 2 0
BITMAP
6600
6600
0000
0000
C380
C380
C780
CF80
CD80
DD80
D980
F180
F180
E180
E180
ENDCHAR
STARTCHAR 04E6
ENCODING 1254
SWIDTH 800 0
DWIDTH 16 0
BBX 14 19 1 0
BITMAP
0CC0
0CC0
0000
0000
0FC0
3FF0
3870
6018
E01C
C00C
C00C
C00C
C00C
C00C
E01C
6018
3870
3FF0
0FC0
ENDCHAR
STARTCHAR 04E7
ENCODING 1255
SWIDTH 600 0
DWIDTH 12 0
BBX 10 15 1 0
BITMAP
3300
3300
0000
0000
1E00
7F80
6180
C0C0
C0C0
C0C0
C0C0
C0C0
6180
7F80
1E00
ENDCHAR
STARTCHAR 04E8
ENCODING 1256
SWIDTH 800 0
DWIDTH 16 0
BBX 14 15 1 0
BITMAP
0FC0
3FF0
3870
6018
E00C
C00C
FFFC
FFFC
C00C
C00C
E01C
6018
3870
3FF0
0FC0
ENDCHAR
STARTCHAR 04E9
ENCODING 1257
SWIDTH 600 0
DWIDTH 12 0
BBX 10 11 1 0
BITMAP
1E00
7F80
6180
C0C0
FFC0
FFC0
C0C0
C0C0
6180
7F80
1E00
ENDCHAR
STARTCHAR 04EA
ENCODING 1258
SWIDTH 800 0
DWIDTH 16 0
BBX 14 19 1 0
BITMAP
0CC0
0CC0
0000
0000
0FC0
3FF0
3870
6018
E00C
C00C
FFFC
FFFC
C00C
C00C
E01C
6018
3870
3FF0
0FC0
ENDCHAR
STARTCHAR 04EB
ENCODING 1259
SWIDTH 600 0
DWIDTH 12 0
BBX 10 15 1 0
BITMAP
3300
3300
0000
0000
1E00
7F80
6180
C0C0
FFC0
FFC0
C0C0
C0C0
6180
7F80
1E00
ENDCHAR
STARTCHAR 04EC
ENCODING 1260
SWIDTH 700 0
DWIDTH 14 0
BBX 12 19 1 0
BITMAP
3300
3300
0000
0000
7F00
FF80
80C0
0060
0030
0030
3FF0
3FF0
0030
0030
0070
0060
81C0
FFC0
7F00
ENDCHAR
STARTCHAR 04ED
ENCODING 1261
SWIDTH 550 0
DWIDTH 11 0
BBX 9 15 1 0
BITMAP
6600
6600
0000
0000
7C00
FE00
8300
0180
7F80
7F80
0180
0180
8700
FF00
7C00
ENDCHAR
STARTCHAR 04EE
ENCODING 1262
SWIDTH 600 0
DWIDTH 12 0
BBX 12 18 0 0
BITMAP
1F80
1F80
0000
C030
6060
6060
30E0
30C0
18C0
1980
1D80
0F00
0F00
0700
0600
0E00
3C00
3800
ENDCHAR
STARTCHAR 04EF
ENCODING 1263
SWIDTH 550 0
DWIDTH 11 0
BBX 11 19 0 -4
BITMAP
1F80
1F80
0000
0000
C060
60C0
60C0
7180
3180
3B80
1B00
1B00
0E00
0E00
0C00
0C00
1C00
7800
7000
ENDCHAR
STARTCHAR 04F0
ENCODING 1264
SWIDTH 600 0
DWIDTH 12 0
BBX 12 19 0 0
BITMAP
1980
1980
0000
0000
C030
6060
6060
30E0
30C0
18C0
1980
1D80
0F00
0F00
0700
0600
0E00
3C00
3800
ENDCHAR
STARTCHAR 04F1
ENCODING 1265
SWIDTH 550 0
DWIDTH 11 0
BBX 11 19 0 -4
BITMAP
1980
1980
0000
0000
C060
60C0
60C0
7180
3180
3B80
1B00
1B00
0E00
0E00
0C00
0C00
1C00
7800
7000
ENDCHAR
STARTCHAR 04F2
ENCODING 1266
SWIDTH 600 0
DWIDTH 12 0
BBX 12 19 0 0
BITMAP
06C0
0D80
0900
0000
C030
6060
6060
30E0
30C0
18C0
1980
1D80
0F00
0F00
0700
0600
0E00
3C00
3800
ENDCHAR
STARTCHAR 04F3
ENCODING 1267
SWIDTH 550 0
DWIDTH 11 0
BBX 11 20 0 -4
BITMAP
0660
0CC0
0880
1980
0000
C060
60C0
60C0
7180
3180
3B80
1B00
1B00
0E00
0E00
0C00
0C00
1C00
7800
7000
ENDCHAR
STARTCHAR 04F4
ENCODING 1268
SWIDTH 700 0
DWIDTH 14 0
BBX 10 19 2 0
BITMAP
3300
3300
0000
0000
C0C0
C0C0
C0C0
C0C0
C0C0
C0C0
E0C0
7FC0
3FC0
00C0
00C0
00C0
00C0
00C0
00C0
ENDCHAR
STARTCHAR 04F5
ENCODING 1269
SWIDTH 600 0
DWIDTH 12 0
BBX 9 15 1 0
BITMAP
3300
3300
0000
0000
C180
C180
C180
C180
E180
7F80
3F80
0180
0180
0180
0180
ENDCHAR
STARTCHAR 04F6
ENCODING 1270
SWIDTH 600 0
DWIDTH 12 0
BBX 9 18 2 -3
BITMAP
FF80
FF80
C000
C000
C000
C000
C000
C000
C000
C000
C000
C000
C000
F000
F000
3000
3000
3000
ENDCHAR
STARTCHAR 04F7
ENCODING 1271
SWIDTH 550 0
DWIDTH 11 0
BBX 8 14 2 -3
BITMAP
FF
FF
C0
C0
C0
C0
C0
C0
C0
F0
F0
30
30
30
ENDCHAR
STARTCHAR 04F8
ENCODING 1272
SWIDTH 900 0
DWIDTH 18 0
BBX 14 19 2 0
BITMAP
0CC0
0CC0
0000
0000
C00C
C00C
C00C
C00C
C00C
C00C
FF0C
FF8C
C1CC
C0CC
C0CC
C0CC
C1CC
FF8C
FF0C
ENDCHAR
STARTCHAR 04F9
ENCODING 1273
SWIDTH 800 0
DWIDTH 16 0
BBX 12 15 2 0
BITMAP
1980
1980
0000
0000
C030
C030
C030
C030
C030
FE30
FFB0
C1B0
C1B0
FFB0
FE30
ENDCHAR
STARTCHAR 04FA
ENCODING 1274
SWIDTH 650 0
DWIDTH 13 0
BBX 12 20 0 -5
BITMAP
1FF0
1FF0
1800
1800
1800
1800
1800
FFC0
FFC0
1800
1800
1800
1800
1800
1F80
0180
0180
0180
1F00
1F00
ENDCHAR
STARTCHAR 04FB
ENCODING 1275
SWIDTH 600 0
DWIDTH 12 0
BBX 11 16 0 -5
BITMAP
1FE0
1FE0
1800
1800
FF80
FF80
1800
1800
1800
1800
1F80
0180
0180
0180
1F00
1F00
ENDCHAR
STARTCHAR 04FC
ENCODING 1276
SWIDTH 700 0
DWIDTH 14 0
BBX 12 19 1 -4
BITMAP
C030
6060
30C0
30C0
1980
0F00
0F00
0600
0F00
1B00
1980
30C0
60C0
6060
C030
0030
0030
01E0
01C0
ENDCHAR
STARTCHAR 04FD
ENCODING 1277
SWIDTH 600 0
DWIDTH 12 0
BBX 10 15 1 -5
BITMAP
C0C0
6180
3300
1E00
1E00
0C00
1E00
3700
7300
6180
C0C0
00C0
00C0
0180
0780
ENDCHAR
STARTCHAR 04FE
ENCODING 1278
SWIDTH 700 0
DWIDTH 14 0
BBX 12 15 1 0
BITMAP
C030
6060
30C0
30C0
1980
0F00
0F00
7FE0
0F00
1B00
1980
30C0
60C0
6060
C030
ENDCHAR
STARTCHAR 04FF
ENCODING 1279
SWIDTH 600 0
DWIDTH 12 0
BBX 10 11 1 0
BITMAP
C0C0
6180
3300
1E00
1E00
FF80
1E00
3700
7300
6180
C0C0
ENDCHAR
STARTCHAR 0500
ENCODING 1280
SWIDTH 650 0
DWIDTH 13 0
BBX 10 15 1 0
BITMAP
00C0
00C0
00C0
00C0
00C0
00C0
3FC0
7FC0
E0C0
C0C0
C0C0
C0C0
E0C0
7FC0
3FC0
ENDCHAR
STARTCHAR 0501
ENCODING 1281
SWIDTH 600 0
DWIDTH 12 0
BBX 9 11 1 0
BITMAP
0180
0180
0180
0180
3F80
7F80
C180
C180
C180
7F80
3F80
ENDCHAR
STARTCHAR 0502
ENCODING 1282
SWIDTH 950 0
DWIDTH 19 0
BBX 16 15 1 0
BITMAP
00C0
00C0
00C0
00C0
00C3
00C3
3FC3
7FC3
E0C3
C0C3
C0C3
C0C3
E1E7
7F7E
3E3C
ENDCHAR
STARTCHAR 0503
ENCODING 1283
SWIDTH 900 0
DWIDTH 18 0
BBX 15 11 1 0
BITMAP
0180
0180
0180
0186
3F86
7F86
C186
C186
E3CE
7EFC
3C78
ENDCHAR
STARTCHAR 0504
ENCODING 1284
SWIDTH 950 0
DWIDTH 19 0
BBX 15 15 2 0
BITMAP
7E00
FF00
8380
0180
0186
0386
3E06
3F06
0386
0186
0186
0186
01CE
00FC
0078
ENDCHAR
STARTCHAR 0505
ENCODING 1285
SWIDTH 900 0
DWIDTH 18 0
BBX 14 11 2 0
BITMAP
7C00
FF00
8300
030C
3E0C
3E0C
070C
030C
039C
01F8
00F0
ENDCHAR
STARTCHAR 0506
ENCODING 1286
SWIDTH 650 0
DWIDTH 13 0
BBX 11 19 2 -4
BITMAP
7E00
FF00
8380
0180
0180
0380
3E00
3F00
0380
0180
0180
0180
0180
01E0
01E0
0060
0060
0060
0060
ENDCHAR
STARTCHAR 0507
ENCODING 1287
SWIDTH 600 0
DWIDTH 12 0
BBX 10 15 2 -4
BITMAP
7C00
FF00
8300
0300
3E00
3E00
0700
0300
0300
03C0
03C0
00C0
00C0
00C0
00C0
ENDCHAR
STARTCHAR 0508
ENCODING 1288
SWIDTH 1100 0
DWIDTH 22 0
BBX 19 15 1 0
BITMAP
0FF800
0FF800
0C1800
0C1800
0C1860
0C1860
0C1860
0C1860
0C1860
181860
181860
181860
701CE0
F00FC0
C00780
ENDCHAR
STARTCHAR 0509
ENCODING 1289
SWIDTH 900 0
DWIDTH 18 0
BBX 16 11 0 0
BITMAP
1FC0
1FC0
18C0
18C3
18C3
18C3
18C3
30C3
70E7
E07E
C03C
ENDCHAR
STARTCHAR 050A
ENCODING 1290
SWIDTH 1100 0
DWIDTH 22 0
BBX 18 15 2 0
BITMAP
C06000
C06000
C06000
C06000
C060C0
C060C0
FFE0C0
FFE0C0
C060C0
C060C0
C060C0
C060C0
C071C0
C03F80
C01F00
ENDCHAR
STARTCHAR 050B
ENCODING 1291
SWIDTH 950 0
DWIDTH 19 0
BBX 15 11 2 0
BITMAP
C180
C180
C180
C186
C186
FF86
FF86
C186
C1CE
C1FC
C078
ENDCHAR
STARTCHAR 050C
ENCODING 1292
SWIDTH 800 0
DWIDTH 16 0
BBX 13 15 1 0
BITMAP
0FF0
1FF8
3808
6000
E000
C018
C018
C018
C018
C018
E018
6018
3838
3FF0
0FE0
ENDCHAR
STARTCHAR 050D
ENCODING 1293
SWIDTH 600 0
DWIDTH 12 0
BBX 10 11 1 0
BITMAP
1F80
3FC0
7040
E000
C000
C0C0
C0C0
E0C0
71C0
7F80
1F00
ENDCHAR
STARTCHAR 050E
ENCODING 1294
SWIDTH 750 0
DWIDTH 15 0
BBX 13 15 0 0
BITMAP
FFF0
FFF0
0600
0600
0618
0618
0618
0618
0618
0618
0618
0618
0738
03F0
01E0
ENDCHAR
STARTCHAR 050F
ENCODING 1295
SWIDTH 700 0
DWIDTH 14 0
BBX 12 11 0 0
BITMAP
FFC0
FFC0
0C00
0C30
0C30
0C30
0C30
0C30
0E70
07E0
03C0
ENDCHAR
STARTCHAR 0510
ENCODING 1296
SWIDTH 550 0
DWIDTH 11 0
BBX 9 15 1 0
BITMAP
3F00
7F80
E080
C000
C000
E000
3C00
7C00
E000
C000
C000
C000
E080
7F80
3F00
ENDCHAR
STARTCHAR 0511
ENCODING 1297
SWIDTH 500 0
DWIDTH 10 0
BBX 8 11 1 0
BITMAP
3F
FF
C0
C0
7C
7C
E0
C0
E1
7F
3E
ENDCHAR
STARTCHAR 0512
ENCODING 1298
SWIDTH 800 0
DWIDTH 16 0
BBX 13 19 1 -4
BITMAP
0FF8
0FF8
0C18
0C18
0C18
0C18
0C18
0C18
0C18
1C18
1818
1818
3818
F018
C018
0018
0038
00F0
00E0
ENDCHAR
STARTCHAR 0513
ENCODING 1299
SWIDTH 650 0
DWIDTH 13 0
BBX 10 15 1 -4
BITMAP
1FC0
1FC0
18C0
18C0
18C0
18C0
18C0
38C0
30C0
F0C0
C0C0
00C0
00C0
03C0
0380
ENDCHAR
STARTCHAR 0514
ENCODING 1300
SWIDTH 1150 0
DWIDTH 23 0
BBX 21 15 1 0
BITMAP
1FF018
1FF818
181830
180C60
180660
1806C0
180380
180380
180380
1806C0
180C60
380C60
301830
E03018
C03018
ENDCHAR
STARTCHAR 0515
ENCODING 1301
SWIDTH 1000 0
DWIDTH 20 0
BBX 18 11 1 0
BITMAP
1FC0C0
186180
183300
181E00
101E00
100C00
301E00
303300
307300
E06180
C0C0C0
ENDCHAR
STARTCHAR 0516
ENCODING 1302
SWIDTH 900 0
DWIDTH 18 0
BBX 15 15 2 0
BITMAP
FC06
FF0C
C39C
C198
C1B0
C1F0
C1E0
C7C0
FE60
C030
C030
C018
C01C
C00C
C006
ENDCHAR
STARTCHAR 0517
ENCODING 1303
SWIDTH 850 0
DWIDTH 17 0
BBX 14 15 2 -4
BITMAP
DE0C
F318
C1B8
C1B0
C0E0
C0E0
C0E0
C1B0
C198
E39C
DF0C
C000
C000
C000
C000
ENDCHAR
STARTCHAR 0518
ENCODING 1304
SWIDTH 1050 0
DWIDTH 21 0
BBX 17 15 2 0
BITMAP
0FFF80
7FFF80
E0C000
C0C000
C0C000
C0C000
E0FF80
7FFF80
1FC000
18C000
30C000
30C000
60C000
C0FF80
C0FF80
ENDCHAR
STARTCHAR 0519
ENCODING 1305
SWIDTH 1000 0
DWIDTH 20 0
BBX 18 11 1 0
BITMAP
3FFF00
78F380
60C180
60C080
6080C0
3FFFC0
188000
18C000
30C000
607180
C03F80
ENDCHAR
STARTCHAR 051A
ENCODING 1306
SWIDTH 800 0
DWIDTH 16 0
BBX 14 18 1 -3
BITMAP
0FC0
3FF0
3878
6018
E01C
C00C
C00C
C00C
C00C
C00C
E01C
6018
3870
3FE0
0FC0
00E0
0070
0030
ENDCHAR
STARTCHAR 051B
ENCODING 1307
SWIDTH 650 0
DWIDTH 13 0
BBX 10 15 1 -4
BITMAP
3EC0
7FC0
61C0
C0C0
C0C0
C0C0
C0C0
C0C0
61C0
7FC0
3EC0
00C0
00C0
00C0
00C0
ENDCHAR
STARTCHAR 051C
ENCODING 1308
SWIDTH 1000 0
DWIDTH 20 0
BBX 18 15 1 0
BITMAP
C1E0C0
C1E0C0
61E180
61E180
633180
633180
333300
333300
361B00
361B00
3E1E00
1E1E00
1E1E00
1C0E00
1C0E00
ENDCHAR
STARTCHAR 051D
ENCODING 1309
SWIDTH 800 0
DWIDTH 16 0
BBX 15 11 1 0
BITMAP
C386
C386
628C
66CC
66CC
66CC
3458
3C78
3C78
1830
1830
ENDCHAR
STARTCHAR 051E
ENCODING 1310
SWIDTH 700 0
DWIDTH 14 0
BBX 11 15 2 0
BITMAP
C060
CCC0
C780
C380
C780
CEC0
DC00
FE00
F600
E300
C180
C180
C0C0
C060
C060
ENDCHAR
STARTCHAR 051F
ENCODING 1311
SWIDTH 600 0
DWIDTH 12 0
BBX 9 11 2 0
BITMAP
C300
CE00
CE00
DB00
F800
FC00
EC00
C600
C300
C300
C180
ENDCHAR
STARTCHAR 0520
ENCODING 1312
SWIDTH 1100 0
DWIDTH 22 0
BBX 21 19 1 -4
BITMAP
0FF800
0FF800
0C1800
0C1800
0C1800
0C1800
0C1FE0
0C1FF0
0C1838
1C1818
181818
181818
381818
F01818
C01818
000018
000038
0000F0
0000E0
ENDCHAR
STARTCHAR 0521
ENCODING 1313
SWIDTH 900 0
DWIDTH 18 0
BBX 17 15 1 -4
BITMAP
1FC000
1FC000
18C000
18C000
18C000
18FF00
18FF80
38C180
30C180
F0C180
C0C180
000180
000180
000F80
000F00
ENDCHAR
STARTCHAR 0522
ENCODING 1314
SWIDTH 1050 0
DWIDTH 21 0
BBX 19 19 2 -4
BITMAP
C06000
C06000
C06000
C06000
C06000
C06000
FFFF80
FFFFC0
C060E0
C06060
C06060
C06060
C06060
C06060
C06060
000060
0000E0
0003C0
000380
ENDCHAR
STARTCHAR 0523
ENCODING 1315
SWIDTH 900 0
DWIDTH 18 0
BBX 16 15 2 -4
BITMAP
C180
C180
C180
C180
C180
FFFE
FFFF
C183
C183
C183
C183
0003
0003
001F
001E
ENDCHAR
STARTCHAR 0524
ENCODING 1316
SWIDTH 800 0
DWIDTH 16 0
BBX 13 18 2 -4
BITMAP
FFE0
FFE0
C060
C060
C060
C060
C060
C060
C060
C060
C060
C060
C060
C078
C078
0018
0018
0018
ENDCHAR
STARTCHAR 0525
ENCODING 1317
SWIDTH 700 0
DWIDTH 14 0
BBX 11 14 2 -3
BITMAP
FF80
C180
C180
C180
C180
C180
C180
C180
C180
C1E0
C1E0
0060
0060
0060
ENDCHAR
STARTCHAR 0531
ENCODING 1329
SWIDTH 750 0
DWIDTH 15 0
BBX 11 15 2 -1
BITMAP
C060
C060
C060
C060
C060
C060
C060
C060
C060
C060
C060
C360
C3C0
71E0
3FE0
ENDCHAR
STARTCHAR 0532
ENCODING 1330
SWIDTH 750 0
DWIDTH 15 0
BBX 11 15 2 0
BITMAP
1F00
7F80
E0C0
C060
C060
C060
C000
C000
C000
FFE0
FFE0
C000
C000
C000
C000
ENDCHAR
STARTCHAR 0533
ENCODING 1331
SWIDTH 750 0
DWIDTH 15 0
BBX 14 15 1 0
BITMAP
1F00
3FC0
60C0
C060
C060
C060
C060
E060
7060
3FFC
0FFC
0060
0060
0060
0060
ENDCHAR
STARTCHAR 0534
ENCODING 1332
SWIDTH 750 0
DWIDTH 15 0
BBX 13 15 1 0
BITMAP
1F00
7FC0
60C0
C060
C060
C060
0060
0060
0060
0078
0078
0060
0060
0060
0060
ENDCHAR
STARTCHAR 0535
ENCODING 1333
SWIDTH 750 0
DWIDTH 15 0
BBX 11 15 2 -1
BITMAP
C000
C000
C000
C000
FFE0
FFE0
C000
C000
C000
C060
C060
C060
C0C0
71C0
3F80
ENDCHAR
STARTCHAR 0536
ENCODING 1334
SWIDTH 750 0
DWIDTH 15 0
BBX 12 15 2 0
BITMAP
1F00
7FC0
60E0
C060
C030
C030
0030
0030
0060
0060
00C0
01C0
C300
FFF0
FFF0
ENDCHAR
STARTCHAR 0537
ENCODING 1335
SWIDTH 650 0
DWIDTH 13 0
BBX 10 15 2 0
BITMAP
C000
C000
C000
C000
FFC0
FFC0
C000
C000
C000
C000
C000
C000
C000
FF80
FF80
ENDCHAR
STARTCHAR 0538
ENCODING 1336
SWIDTH 750 0
DWIDTH 15 0
BBX 11 15 2 0
BITMAP
1F00
7F80
E0C0
C060
C060
C060
C000
C000
C000
C000
C000
C000
C000
FFE0
FFE0
ENDCHAR
STARTCHAR 0539
ENCODING 1337
SWIDTH 850 0
DWIDTH 17 0
BBX 15 15 2 -1
BITMAP
1F80
3FE0
6070
C030
C018
C018
C1FE
C7FE
C618
CC18
CC18
CC18
CC30
C670
C3E0
ENDCHAR
STARTCHAR 053A
ENCODING 1338
SWIDTH 750 0
DWIDTH 15 0
BBX 14 15 1 -1
BITMAP
0060
0060
0060
0060
1FFC
3FFC
6060
C060
C060
C060
C060
C060
60C0
71C0
1F80
ENDCHAR
STARTCHAR 053B
ENCODING 1339
SWIDTH 700 0
DWIDTH 14 0
BBX 11 15 2 0
BITMAP
C000
C000
C000
C000
DF00
FBC0
E0C0
C060
C060
C060
C000
C000
C000
C000
C000
ENDCHAR
STARTCHAR 053C
ENCODING 1340
SWIDTH 550 0
DWIDTH 11 0
BBX 9 15 2 0
BITMAP
C000
C000
C000
C000
C000
C000
C000
C000
C000
C000
C000
C000
C000
FF80
FF80
ENDCHAR
STARTCHAR 053D
ENCODING 1341
SWIDTH 900 0
DWIDTH 18 0
BBX 15 15 2 -1
BITMAP
C000
C000
C000
C000
FE06
FE06
C606
C606
C606
C606
C606
C206
C306
C39C
C1F8
ENDCHAR
STARTCHAR 053E
ENCODING 1342
SWIDTH 850 0
DWIDTH 17 0
BBX 12 15 3 -1
BITMAP
C3E0
CFF0
DC10
FF00
67C0
C0E0
C070
C030
C030
C030
C030
C030
E060
71C0
1F80
ENDCHAR
STARTCHAR 053F
ENCODING 1343
SWIDTH 750 0
DWIDTH 15 0
BBX 11 15 2 0
BITMAP
C000
C000
C000
C000
C060
C060
C060
C060
C0E0
61E0
3FE0
0460
0060
0060
0060
ENDCHAR
STARTCHAR 0540
ENCODING 1344
SWIDTH 700 0
DWIDTH 14 0
BBX 12 15 1 -1
BITMAP
0180
00C0
00E0
0060
01E0
0700
1C00
3800
6000
C000
C000
F800
3F80
07F0
0070
ENDCHAR
STARTCHAR 0541
ENCODING 1345
SWIDTH 750 0
DWIDTH 15 0
BBX 12 15 2 -1
BITMAP
1F00
7FC0
60E0
C060
C070
C030
0030
0030
0060
1060
7EE0
C7C0
C1C0
C7E0
7E60
ENDCHAR
STARTCHAR 0542
ENCODING 1346
SWIDTH 750 0
DWIDTH 15 0
BBX 14 15 1 0
BITMAP
1F00
7FC0
60C0
C060
C060
C060
0060
0060
0060
0060
0060
0060
0060
007C
007C
ENDCHAR
STARTCHAR 0543
ENCODING 1347
SWIDTH 750 0
DWIDTH 15 0
BBX 13 15 1 0
BITMAP
3010
18F0
1DC0
0F00
0600
0F00
1B80
3180
30C0
60E0
4060
C030
C038
FFF8
7FF8
ENDCHAR
STARTCHAR 0544
ENCODING 1348
SWIDTH 800 0
DWIDTH 16 0
BBX 13 15 2 -1
BITMAP
C078
C078
C060
C060
C060
C060
C060
C060
C060
C060
C060
C060
C0C0
71C0
3F80
ENDCHAR
STARTCHAR 0545
ENCODING 1349
SWIDTH 750 0
DWIDTH 15 0
BBX 11 15 2 -1
BITMAP
1F00
7F80
60C0
C0C0
00C0
00C0
FF80
FF80
00E0
0060
0060
C060
C060
F1C0
3F80
ENDCHAR
STARTCHAR 0546
ENCODING 1350
SWIDTH 750 0
DWIDTH 15 0
BBX 14 15 0 -1
BITMAP
F000
F000
3000
3000
3000
3000
3000
3000
3000
300C
300C
1818
1818
0E70
07E0
ENDCHAR
STARTCHAR 0547
ENCODING 1351
SWIDTH 750 0
DWIDTH 15 0
BBX 12 15 2 -1
BITMAP
E000
FE00
0F80
1FE0
7060
6000
C000
C000
C000
C030
C030
C060
E060
71C0
3F80
ENDCHAR
STARTCHAR 0548
ENCODING 1352
SWIDTH 750 0
DWIDTH 15 0
BBX 11 15 2 0
BITMAP
1F00
7F80
E0C0
C060
C060
C060
C060
C060
C060
C060
C060
C060
C060
C060
C060
ENDCHAR
STARTCHAR 0549
ENCODING 1353
SWIDTH 700 0
DWIDTH 14 0
BBX 12 15 1 -1
BITMAP
0F80
3FC0
7060
6030
C030
C030
0030
0030
0030
0060
00E0
3BC0
3F00
0F80
0180
ENDCHAR
STARTCHAR 054A
ENCODING 1354
SWIDTH 800 0
DWIDTH 16 0
BBX 13 15 1 0
BITMAP
0F80
3FE0
7370
E338
C318
C318
0318
0318
0318
0318
0018
0018
0018
0018
0018
ENDCHAR
STARTCHAR 054B
ENCODING 1355
SWIDTH 750 0
DWIDTH 15 0
BBX 12 15 2 0
BITMAP
1F00
7FC0
E0E0
C060
C070
C030
C030
FC30
1E60
0360
03C0
03C0
C300
FFE0
FFE0
ENDCHAR
STARTCHAR 054C
ENCODING 1356
SWIDTH 800 0
DWIDTH 16 0
BBX 13 15 2 0
BITMAP
1F00
7F80
E0C0
C060
C060
C060
C060
C060
C060
C078
C078
C060
C060
C060
C060
ENDCHAR
STARTCHAR 054D
ENCODING 1357
SWIDTH 750 0
DWIDTH 15 0
BBX 11 15 2 0
BITMAP
C060
C060
C060
C060
C060
C060
C060
C060
C060
C060
C060
E0E0
60C0
7FC0
1F00
ENDCHAR
STARTCHAR 054E
ENCODING 1358
SWIDTH 750 0
DWIDTH 15 0
BBX 14 15 1 0
BITMAP
0060
0060
0060
0060
C060
C060
C060
C060
E060
60E0
3FE0
0460
0060
007C
007C
ENDCHAR
STARTCHAR 054F
ENCODING 1359
SWIDTH 700 0
DWIDTH 14 0
BBX 11 15 2 -1
BITMAP
1E00
7F80
E1C0
C0C0
C000
C000
7800
3F80
07C0
00C0
0060
C060
C0C0
71C0
3F80
ENDCHAR
STARTCHAR 0550
ENCODING 1360
SWIDTH 700 0
DWIDTH 14 0
BBX 11 15 2 0
BITMAP
1F00
7F80
E0C0
C0E0
C060
C060
C000
C000
C000
C000
C000
C000
C000
C000
C000
ENDCHAR
STARTCHAR 0551
ENCODING 1361
SWIDTH 750 0
DWIDTH 15 0
BBX 11 15 2 -1
BITMAP
1F00
7FC0
60C0
4060
4060
60C0
FF80
FF80
00E0
0060
0060
C060
C060
71C0
3F80
ENDCHAR
STARTCHAR 0552
ENCODING 1362
SWIDTH 550 0
DWIDTH 11 0
BBX 9 15 2 0
BITMAP
C000
C000
C000
C000
FF80
FF80
C000
C000
C000
C000
C000
C000
C000
C000
C000
ENDCHAR
STARTCHAR 0553
ENCODING 1363
SWIDTH 800 0
DWIDTH 16 0
BBX 14 15 1 0
BITMAP
0300
0300
0FE0
3FF0
6318
630C
C30C
C30C
C30C
C30C
6318
7338
1FF0
0300
0300
ENDCHAR
STARTCHAR 0554
ENCODING 1364
SWIDTH 750 0
DWIDTH 15 0
BBX 14 15 0 0
BITMAP
07C0
0FF0
1838
1818
301C
300C
3018
3818
3C78
37E0
3000
3000
FFF8
F000
3000
ENDCHAR
STARTCHAR 0555
ENCODING 1365
SWIDTH 800 0
DWIDTH 16 0
BBX 14 15 1 0
BITMAP
0FC0
3FF0
3870
6018
E01C
C00C
C00C
C00C
C00C
C00C
E01C
6018
3870
3FF0
0FC0
ENDCHAR
STARTCHAR 0556
ENCODING 1366
SWIDTH 800 0
DWIDTH 16 0
BBX 14 15 1 -1
BITMAP
0700
3F00
3300
6300
3300
1FE0
0378
0318
030C
030C
C30C
C30C
6318
3B70
1FE0
ENDCHAR
STARTCHAR 0559
ENCODING 1369
SWIDTH 300 0
DWIDTH 6 0
BBX 3 5 1 10
BITMAP
60
C0
80
C0
60
ENDCHAR
STARTCHAR 055A
ENCODING 1370
SWIDTH 300 0
DWIDTH 6 0
BBX 3 5 2 9
BITMAP
60
60
C0
C0
80
ENDCHAR
STARTCHAR 055B
ENCODING 1371
SWIDTH 250 0
DWIDTH 5 0
BBX 4 4 0 13
BITMAP
30
20
40
C0
ENDCHAR
STARTCHAR 055C
ENCODING 1372
SWIDTH 350 0
DWIDTH 7 0
BBX 7 6 0 12
BITMAP
02
06
3C
70
C0
80
ENDCHAR
STARTCHAR 055D
ENCODING 1373
SWIDTH 250 0
DWIDTH 5 0
BBX 5 4 -1 12
BITMAP
C0
60
30
18
ENDCHAR
STARTCHAR 055E
ENCODING 1374
SWIDTH 400 0
DWIDTH 8 0
BBX 8 5 0 13
BITMAP
3E
63
C3
9B
8E
ENDCHAR
STARTCHAR 055F
ENCODING 1375
SWIDTH 500 0
DWIDTH 10 0
BBX 8 3 1 13
BITMAP
80
FF
FF
ENDCHAR
STARTCHAR 0561
ENCODING 1377
SWIDTH 950 0
DWIDTH 19 0
BBX 16 11 2 -1
BITMAP
C183
C183
C183
C183
C183
C183
C183
C183
C387
E7CF
7CFB
ENDCHAR
STARTCHAR 0562
ENCODING 1378
SWIDTH 650 0
DWIDTH 13 0
BBX 9 15 2 -4
BITMAP
DF00
F300
C180
C180
C180
C180
C180
C000
C000
FF80
FF80
C000
C000
C000
C000
ENDCHAR
STARTCHAR 0563
ENCODING 1379
SWIDTH 650 0
DWIDTH 13 0
BBX 12 15 1 -4
BITMAP
3EC0
73C0
61C0
C0C0
C0C0
C0C0
C0C0
C0C0
61C0
73F0
3EF0
00C0
00C0
00C0
00C0
ENDCHAR
STARTCHAR 0564
ENCODING 1380
SWIDTH 650 0
DWIDTH 13 0
BBX 11 15 2 -4
BITMAP
DF00
F300
C180
C180
C180
C180
C180
C180
C180
C1E0
C1E0
0180
0180
0180
0180
ENDCHAR
STARTCHAR 0565
ENCODING 1381
SWIDTH 650 0
DWIDTH 13 0
BBX 9 15 2 0
BITMAP
C000
C000
C000
C000
FF80
FF80
C000
C000
C180
C180
C180
C180
C380
E780
7D80
ENDCHAR
STARTCHAR 0566
ENCODING 1382
SWIDTH 650 0
DWIDTH 13 0
BBX 12 15 1 -4
BITMAP
3EC0
73C0
61C0
C0C0
C0C0
C0C0
C0C0
C0C0
61C0
73C0
3EC0
00C0
00C0
00C0
00F0
ENDCHAR
STARTCHAR 0567
ENCODING 1383
SWIDTH 500 0
DWIDTH 10 0
BBX 8 15 2 1
BITMAP
C0
C0
C0
C0
FF
FF
C0
C0
C0
C0
C0
C0
C0
FE
FE
ENDCHAR
STARTCHAR 0568
ENCODING 1384
SWIDTH 650 0
DWIDTH 13 0
BBX 9 15 2 -4
BITMAP
DF00
F300
C180
C180
C180
C180
C180
C180
C180
C180
C180
C000
C000
C000
FF80
ENDCHAR
STARTCHAR 0569
ENCODING 1385
SWIDTH 750 0
DWIDTH 15 0
BBX 13 15 2 -4
BITMAP
DF00
F1C0
C0C0
C060
C060
C060
CFF8
C860
D860
CCC0
CF80
C000
C000
C000
C000
ENDCHAR
STARTCHAR 056A
ENCODING 1386
SWIDTH 650 0
DWIDTH 13 0
BBX 12 15 1 0
BITMAP
00C0
00C0
00C0
00C0
1FF0
3FF0
60C0
C0C0
C0C0
C0C0
C0C0
C0C0
6180
7380
3F00
ENDCHAR
STARTCHAR 056B
ENCODING 1387
SWIDTH 650 0
DWIDTH 13 0
BBX 9 19 2 -4
BITMAP
C000
C000
C000
C000
DF00
F300
C180
C180
C180
C180
C180
C180
C180
C180
C180
C000
C000
C000
C000
ENDCHAR
STARTCHAR 056C
ENCODING 1388
SWIDTH 250 0
DWIDTH 5 0
BBX 4 15 2 -5
BITMAP
C0
C0
C0
C0
C0
C0
C0
C0
C0
C0
C0
C0
C0
C0
F0
ENDCHAR
STARTCHAR 056D
ENCODING 1389
SWIDTH 1000 0
DWIDTH 20 0
BBX 16 19 2 -4
BITMAP
C000
C000
C000
C000
DE03
E703
C103
C183
C183
C183
C183
C183
C187
C1CF
C0FB
C000
C000
C000
C000
ENDCHAR
STARTCHAR 056E
ENCODING 1390
SWIDTH 600 0
DWIDTH 12 0
BBX 10 15 1 0
BITMAP
1800
3000
3800
1C00
1FC0
3FC0
6180
C0C0
C0C0
C0C0
C0C0
C0C0
60C0
7380
3F00
ENDCHAR
STARTCHAR 056F
ENCODING 1391
SWIDTH 650 0
DWIDTH 13 0
BBX 9 19 2 -4
BITMAP
C000
C000
C000
C000
C180
C180
C180
C180
C180
C180
C180
C180
C380
E780
7D80
0180
0180
0180
0180
ENDCHAR
STARTCHAR 0570
ENCODING 1392
SWIDTH 650 0
DWIDTH 13 0
BBX 9 15 2 0
BITMAP
C000
C000
C000
C000
DE00
FF00
E380
C180
C180
C180
C180
C180
C180
C180
C180
ENDCHAR
STARTCHAR 0571
ENCODING 1393
SWIDTH 600 0
DWIDTH 12 0
BBX 9 15 1 0
BITMAP
3000
3000
3200
1E00
0C00
1F00
3300
6180
4080
C080
C080
C080
C180
6380
3E80
ENDCHAR
STARTCHAR 0572
ENCODING 1394
SWIDTH 650 0
DWIDTH 13 0
BBX 11 15 2 -4
BITMAP
DF00
F300
C180
C180
C180
C180
C180
C180
C180
C180
C180
0180
0180
0180
01E0
ENDCHAR
STARTCHAR 0573
ENCODING 1395
SWIDTH 650 0
DWIDTH 13 0
BBX 10 15 1 0
BITMAP
03C0
0E40
1C00
1800
FE00
FF00
6180
60C0
40C0
40C0
C0C0
C0C0
61C0
73C0
3EC0
ENDCHAR
STARTCHAR 0574
ENCODING 1396
SWIDTH 650 0
DWIDTH 13 0
BBX 11 15 2 0
BITMAP
01E0
0180
0180
0180
C180
C180
C180
C180
C180
C180
C180
C180
C380
E780
7D80
ENDCHAR
STARTCHAR 0575
ENCODING 1397
SWIDTH 250 0
DWIDTH 5 0
BBX 4 15 0 -5
BITMAP
30
30
30
30
30
30
30
30
30
30
30
30
30
60
E0
ENDCHAR
STARTCHAR 0576
ENCODING 1398
SWIDTH 650 0
DWIDTH 13 0
BBX 11 15 0 0
BITMAP
F000
3000
3000
3000
3060
3060
3060
3060
3060
3060
3060
3060
30E0
39E0
1F60
ENDCHAR
STARTCHAR 0577
ENCODING 1399
SWIDTH 500 0
DWIDTH 10 0
BBX 9 15 0 -4
BITMAP
7E00
4700
0300
0180
0180
0300
0300
0600
0C00
1800
3000
6000
C000
C000
FF00
ENDCHAR
STARTCHAR 0578
ENCODING 1400
SWIDTH 650 0
DWIDTH 13 0
BBX 9 11 2 0
BITMAP
DE00
FF00
E380
C180
C180
C180
C180
C180
C180
C180
C180
ENDCHAR
STARTCHAR 0579
ENCODING 1401
SWIDTH 400 0
DWIDTH 8 0
BBX 7 15 0 -5
BITMAP
30
20
60
60
3E
0E
1C
18
30
60
60
C0
C0
C0
FE
ENDCHAR
STARTCHAR 057A
ENCODING 1402
SWIDTH 950 0
DWIDTH 19 0
BBX 16 15 2 -5
BITMAP
C183
C183
C183
C183
C183
C183
C183
C183
C387
E7CF
7CFB
0003
0003
0003
0003
ENDCHAR
STARTCHAR 057B
ENCODING 1403
SWIDTH 550 0
DWIDTH 11 0
BBX 9 15 1 -4
BITMAP
3E00
6700
C180
C180
C180
6180
3300
3600
3E00
3C00
3000
6000
C000
C000
7F00
ENDCHAR
STARTCHAR 057C
ENCODING 1404
SWIDTH 650 0
DWIDTH 13 0
BBX 10 11 2 1
BITMAP
DF00
F380
C180
C080
C0C0
C080
C180
C180
C300
C7C0
C7C0
ENDCHAR
STARTCHAR 057D
ENCODING 1405
SWIDTH 650 0
DWIDTH 13 0
BBX 9 11 2 0
BITMAP
C180
C180
C180
C180
C180
C180
C180
C180
E380
7F80
3D80
ENDCHAR
STARTCHAR 057E
ENCODING 1406
SWIDTH 650 0
DWIDTH 13 0
BBX 11 19 2 -4
BITMAP
0180
0180
0180
0180
C180
C180
C180
C180
C180
C180
C180
C180
C380
E780
7D80
0180
0180
0180
01E0
ENDCHAR
STARTCHAR 057F
ENCODING 1407
SWIDTH 950 0
DWIDTH 19 0
BBX 16 11 2 0
BITMAP
C1BC
C1EE
C183
C183
C183
C183
C183
C183
C383
E783
7D83
ENDCHAR
STARTCHAR 0580
ENCODING 1408
SWIDTH 650 0
DWIDTH 13 0
BBX 9 15 2 -4
BITMAP
DF00
F300
C180
C180
C180
C180
C180
C180
C180
C180
C180
C000
C000
C000
C000
ENDCHAR
STARTCHAR 0581
ENCODING 1409
SWIDTH 650 0
DWIDTH 13 0
BBX 10 15 1 -4
BITMAP
3EC0
7FC0
61C0
C0C0
C0C0
C0C0
C0C0
C0C0
61C0
7FC0
3EC0
00C0
4180
7F80
3E00
ENDCHAR
STARTCHAR 0582
ENCODING 1410
SWIDTH 450 0
DWIDTH 9 0
BBX 7 11 2 0
BITMAP
C0
C0
C0
C0
C0
C0
C0
C0
C0
FE
FE
ENDCHAR
STARTCHAR 0583
ENCODING 1411
SWIDTH 950 0
DWIDTH 19 0
BBX 16 19 2 -4
BITMAP
0180
0180
0180
0180
C1BC
C1EE
C183
C183
C183
C183
C183
C183
C383
E783
7D83
0180
0180
0180
0180
ENDCHAR
STARTCHAR 0584
ENCODING 1412
SWIDTH 650 0
DWIDTH 13 0
BBX 12 15 0 -4
BITMAP
3780
3CC0
3060
3060
3030
3030
3030
3060
3060
38C0
37C0
3000
3000
FFE0
3000
ENDCHAR
STARTCHAR 0585
ENCODING 1413
SWIDTH 600 0
DWIDTH 12 0
BBX 10 11 1 0
BITMAP
1E00
7F80
6180
C0C0
C0C0
C0C0
C0C0
C0C0
6180
7F80
1E00
ENDCHAR
STARTCHAR 0586
ENCODING 1414
SWIDTH 800 0
DWIDTH 16 0
BBX 14 19 1 -4
BITMAP
1F00
3300
3300
3300
1FE0
07F8
0318
030C
830C
830C
C30C
C30C
6318
3FF0
1FE0
0300
0300
0300
0300
ENDCHAR
STARTCHAR 0587
ENCODING 1415
SWIDTH 800 0
DWIDTH 16 0
BBX 14 15 2 0
BITMAP
C000
C000
C000
C000
C180
C180
C180
C180
C180
C180
C180
C180
C380
E7FC
7DFC
ENDCHAR
STARTCHAR 0589
ENCODING 1417
SWIDTH 350 0
DWIDTH 7 0
BBX 2 8 2 1
BITMAP
C0
C0
00
00
00
00
C0
C0
ENDCHAR
STARTCHAR 058A
ENCODING 1418
SWIDTH 350 0
DWIDTH 7 0
BBX 5 2 1 5
BITMAP
F8
78
ENDCHAR
STARTCHAR 05B0
ENCODING 1456
SWIDTH 0 0
DWIDTH 0 0
BBX 1 3 6 -4
BITMAP
80
00
80
ENDCHAR
STARTCHAR 05B1
ENCODING 1457
SWIDTH 0 0
DWIDTH 0 0
BBX 7 3 2 -4
BITMAP
A2
00
42
ENDCHAR
STARTCHAR 05B2
ENCODING 1458
SWIDTH 0 0
DWIDTH 0 0
BBX 6 3 3 -4
BITMAP
F4
00
04
ENDCHAR
STARTCHAR 05B3
ENCODING 1459
SWIDTH 0 0
DWIDTH 0 0
BBX 5 3 4 -4
BITMAP
E8
40
48
ENDCHAR
STARTCHAR 05B4
ENCODING 1460
SWIDTH 0 0
DWIDTH 0 0
BBX 1 1 6 -3
BITMAP
80
ENDCHAR
STARTCHAR 05B5
ENCODING 1461
SWIDTH 0 0
DWIDTH 0 0
BBX 3 1 5 -3
BITMAP
A0
ENDCHAR
STARTCHAR 05B6
ENCODING 1462
SWIDTH 0 0
DWIDTH 0 0
BBX 3 3 5 -4
BITMAP
A0
00
40
ENDCHAR
STARTCHAR 05B7
ENCODING 1463
SWIDTH 0 0
DWIDTH 0 0
BBX 6 1 3 -3
BITMAP
FC
ENDCHAR
STARTCHAR 05B8
ENCODING 1464
SWIDTH 0 0
DWIDTH 0 0
BBX 5 2 4 -3
BITMAP
F8
20
ENDCHAR
STARTCHAR 05B9
ENCODING 1465
SWIDTH 0 0
DWIDTH 0 0
BBX 1 1 0 13
BITMAP
80
ENDCHAR
STARTCHAR 05BA
ENCODING 1466
SWIDTH 0 0
DWIDTH 0 0
BBX 1 1 0 13
BITMAP
80
ENDCHAR
STARTCHAR 05BB
ENCODING 1467
SWIDTH 0 0
DWIDTH 0 0
BBX 9 3 2 -5
BITMAP
8000
0800
0080
ENDCHAR
STARTCHAR 05BC
ENCODING 1468
SWIDTH 0 0
DWIDTH 0 0
BBX 1 1 6 5
BITMAP
80
ENDCHAR
STARTCHAR 05BD
ENCODING 1469
SWIDTH 0 0
DWIDTH 0 0
BBX 1 4 6 -5
BITMAP
80
80
80
80
ENDCHAR
STARTCHAR 05BE
ENCODING 1470
SWIDTH 350 0
DWIDTH 7 0
BBX 5 2 1 10
BITMAP
F8
F8
ENDCHAR
STARTCHAR 05BF
ENCODING 1471
SWIDTH 0 0
DWIDTH 0 0
BBX 6 1 3 13
BITMAP
FC
ENDCHAR
STARTCHAR 05C0
ENCODING 1472
SWIDTH 300 0
DWIDTH 6 0
BBX 2 15 2 -2
BITMAP
C0
C0
C0
C0
C0
C0
C0
C0
C0
C0
C0
C0
C0
C0
C0
ENDCHAR
STARTCHAR 05C1
ENCODING 1473
SWIDTH 0 0
DWIDTH 0 0
BBX 1 1 13 13
BITMAP
80
ENDCHAR
STARTCHAR 05C2
ENCODING 1474
SWIDTH 0 0
DWIDTH 0 0
BBX 1 1 2 13
BITMAP
80
ENDCHAR
STARTCHAR 05C3
ENCODING 1475
SWIDTH 300 0
DWIDTH 6 0
BBX 2 11 2 0
BITMAP
C0
C0
00
00
00
00
00
00
00
C0
C0
ENDCHAR
STARTCHAR 05C6
ENCODING 1478
SWIDTH 450 0
DWIDTH 9 0
BBX 6 11 1 0
BITMAP
38
78
E0
C0
C0
C0
C0
C0
C0
FC
FC
ENDCHAR
STARTCHAR 05C7
ENCODING 1479
SWIDTH 0 0
DWIDTH 0 0
BBX 5 3 4 -4
BITMAP
F8
20
20
ENDCHAR
STARTCHAR 05D0
ENCODING 1488
SWIDTH 650 0
DWIDTH 13 0
BBX 9 11 2 0
BITMAP
C180
6180
2180
3180
3980
6B00
CE00
C600
C200
C300
C180
ENDCHAR
STARTCHAR 05D1
ENCODING 1489
SWIDTH 600 0
DWIDTH 12 0
BBX 10 11 1 0
BITMAP
FC00
FE00
0700
0300
0300
0300
0300
0300
0300
FFC0
FFC0
ENDCHAR
STARTCHAR 05D2
ENCODING 1490
SWIDTH 400 0
DWIDTH 8 0
BBX 6 11 1 0
BITMAP
E0
F0
38
18
18
18
18
18
38
EC
CC
ENDCHAR
STARTCHAR 05D3
ENCODING 1491
SWIDTH 600 0
DWIDTH 12 0
BBX 10 11 1 0
BITMAP
FFC0
FFC0
0300
0300
0300
0300
0300
0300
0300
0300
0300
ENDCHAR
STARTCHAR 05D4
ENCODING 1492
SWIDTH 700 0
DWIDTH 14 0
BBX 10 11 2 0
BITMAP
FF00
FF80
01C0
00C0
40C0
C0C0
C0C0
C0C0
C0C0
C0C0
C0C0
ENDCHAR
STARTCHAR 05D5
ENCODING 1493
SWIDTH 300 0
DWIDTH 6 0
BBX 2 11 2 0
BITMAP
C0
C0
C0
C0
C0
C0
C0
C0
C0
C0
C0
ENDCHAR
STARTCHAR 05D6
ENCODING 1494
SWIDTH 350 0
DWIDTH 7 0
BBX 5 11 1 0
BITMAP
F8
F8
20
60
60
60
60
60
60
60
60
ENDCHAR
STARTCHAR 05D7
ENCODING 1495
SWIDTH 700 0
DWIDTH 14 0
BBX 10 11 2 0
BITMAP
FF00
FF80
C1C0
C0C0
C0C0
C0C0
C0C0
C0C0
C0C0
C0C0
C0C0
ENDCHAR
STARTCHAR 05D8
ENCODING 1496
SWIDTH 700 0
DWIDTH 14 0
BBX 11 11 2 0
BITMAP
C780
C7C0
C0E0
C060
C060
C060
C060
C060
60C0
7FC0
1F00
ENDCHAR
STARTCHAR 05D9
ENCODING 1497
SWIDTH 200 0
DWIDTH 4 0
BBX 2 7 1 4
BITMAP
C0
C0
C0
C0
C0
C0
80
ENDCHAR
STARTCHAR 05DA
ENCODING 1498
SWIDTH 550 0
DWIDTH 11 0
BBX 8 15 1 -4
BITMAP
FC
FE
07
03
03
03
03
03
03
03
03
03
03
03
03
ENDCHAR
STARTCHAR 05DB
ENCODING 1499
SWIDTH 550 0
DWIDTH 11 0
BBX 9 11 1 0
BITMAP
FC00
FF00
0300
0180
0180
0180
0180
0180
0300
FF00
FC00
ENDCHAR
STARTCHAR 05DC
ENCODING 1500
SWIDTH 600 0
DWIDTH 12 0
BBX 9 15 1 0
BITMAP
C000
C000
C000
C000
FF80
FF80
0180
0300
0300
0600
0600
0600
0C00
0C00
1800
ENDCHAR
STARTCHAR 05DD
ENCODING 1501
SWIDTH 700 0
DWIDTH 14 0
BBX 10 11 2 0
BITMAP
FF00
FF80
C1C0
C0C0
C0C0
C0C0
C0C0
C0C0
C0C0
FFC0
FFC0
ENDCHAR
STARTCHAR 05DE
ENCODING 1502
SWIDTH 750 0
DWIDTH 15 0
BBX 12 11 1 0
BITMAP
C7C0
6FE0
3C70
3830
3830
3030
3030
3030
7030
63F0
63F0
ENDCHAR
STARTCHAR 05DF
ENCODING 1503
SWIDTH 300 0
DWIDTH 6 0
BBX 2 15 2 -4
BITMAP
C0
C0
C0
C0
C0
C0
C0
C0
C0
C0
C0
C0
C0
C0
C0
ENDCHAR
STARTCHAR 05E0
ENCODING 1504
SWIDTH 400 0
DWIDTH 8 0
BBX 5 11 1 0
BITMAP
F0
F8
18
18
18
18
18
18
18
F8
F8
ENDCHAR
STARTCHAR 05E1
ENCODING 1505
SWIDTH 650 0
DWIDTH 13 0
BBX 10 11 2 0
BITMAP
FF00
FF80
C1C0
C0C0
C0C0
C0C0
C0C0
C0C0
6180
7F80
3F00
ENDCHAR
STARTCHAR 05E2
ENCODING 1506
SWIDTH 650 0
DWIDTH 13 0
BBX 10 13 1 -2
BITMAP
C0C0
C0C0
60C0
60C0
60C0
30C0
31C0
3180
3B80
1F00
7C00
F000
8000
ENDCHAR
STARTCHAR 05E3
ENCODING 1507
SWIDTH 650 0
DWIDTH 13 0
BBX 9 15 2 -4
BITMAP
FE00
FF00
C380
C180
C180
F180
7180
0180
0180
0180
0180
0180
0180
0180
0180
ENDCHAR
STARTCHAR 05E4
ENCODING 1508
SWIDTH 600 0
DWIDTH 12 0
BBX 9 11 2 0
BITMAP
FC00
FF00
C300
C180
F180
7180
0180
0180
0300
FF00
FC00
ENDCHAR
STARTCHAR 05E5
ENCODING 1509
SWIDTH 600 0
DWIDTH 12 0
BBX 10 15 1 -4
BITMAP
C0C0
60C0
30C0
18C0
1D80
0F00
0C00
0C00
0C00
0C00
0C00
0C00
0C00
0C00
0C00
ENDCHAR
STARTCHAR 05E6
ENCODING 1510
SWIDTH 600 0
DWIDTH 12 0
BBX 9 11 1 0
BITMAP
C180
6180
3180
1180
1980
0F00
0600
0600
0300
FF00
FF80
ENDCHAR
STARTCHAR 05E7
ENCODING 1511
SWIDTH 750 0
DWIDTH 15 0
BBX 11 15 2 -4
BITMAP
FFE0
FFE0
0040
00C0
00C0
4180
C180
C100
C300
C300
C600
C000
C000
C000
C000
ENDCHAR
STARTCHAR 05E8
ENCODING 1512
SWIDTH 600 0
DWIDTH 12 0
BBX 9 11 1 0
BITMAP
FC00
FF00
0300
0180
0180
0180
0180
0180
0180
0180
0180
ENDCHAR
STARTCHAR 05E9
ENCODING 1513
SWIDTH 800 0
DWIDTH 16 0
BBX 14 11 1 0
BITMAP
C30C
C30C
C30C
6708
6618
7E18
7C38
7030
30E0
3FC0
3F00
ENDCHAR
STARTCHAR 05EA
ENCODING 1514
SWIDTH 700 0
DWIDTH 14 0
BBX 11 11 1 0
BITMAP
FF80
FFC0
30E0
3060
3060
3060
3060
3060
3060
F060
E060
ENDCHAR
STARTCHAR 05F0
ENCODING 1520
SWIDTH 450 0
DWIDTH 9 0
BBX 6 11 2 0
BITMAP
CC
CC
CC
CC
CC
CC
CC
CC
CC
CC
CC
ENDCHAR
STARTCHAR 05F1
ENCODING 1521
SWIDTH 400 0
DWIDTH 8 0
BBX 6 11 1 0
BITMAP
CC
CC
CC
CC
CC
CC
8C
0C
0C
0C
0C
ENDCHAR
STARTCHAR 05F2
ENCODING 1522
SWIDTH 350 0
DWIDTH 7 0
BBX 5 7 1 4
BITMAP
D8
D8
D8
D8
D8
D8
90
ENDCHAR
STARTCHAR 05F3
ENCODING 1523
SWIDTH 400 0
DWIDTH 8 0
BBX 5 4 2 7
BITMAP
18
30
60
C0
ENDCHAR
STARTCHAR 05F4
ENCODING 1524
SWIDTH 650 0
DWIDTH 13 0
BBX 10 4 2 7
BITMAP
18C0
3180
6300
C600
ENDCHAR
STARTCHAR 0606
ENCODING 1542
SWIDTH 650 0
DWIDTH 13 0
BBX 12 18 0 -1
BITMAP
0560
0540
C3C0
4200
2200
2200
1200
1000
1000
0870
0840
08C0
04C0
0480
0780
0380
0300
0100
ENDCHAR
STARTCHAR 0607
ENCODING 1543
SWIDTH 650 0
DWIDTH 13 0
BBX 12 18 0 -1
BITMAP
0180
0300
C200
4300
2600
2400
13C0
1000
1000
0870
0840
08C0
04C0
0480
0780
0380
0300
0100
ENDCHAR
STARTCHAR 0609
ENCODING 1545
SWIDTH 750 0
DWIDTH 15 0
BBX 13 13 1 0
BITMAP
C100
C300
C200
0600
0400
0C00
0800
1800
1000
3000
2000
6118
4118
ENDCHAR
STARTCHAR 060A
ENCODING 1546
SWIDTH 1000 0
DWIDTH 20 0
BBX 17 13 1 0
BITMAP
C10000
C30000
C20000
060000
040000
0C0000
080000
180000
100000
300000
200000
611980
411980
ENDCHAR
STARTCHAR 060C
ENCODING 1548
SWIDTH 300 0
DWIDTH 6 0
BBX 3 5 2 0
BITMAP
20
60
40
C0
C0
ENDCHAR
STARTCHAR 0615
ENCODING 1557
SWIDTH 0 0
DWIDTH 0 0
BBX 6 5 2 13
BITMAP
40
40
7C
68
F0
ENDCHAR
STARTCHAR 061B
ENCODING 1563
SWIDTH 300 0
DWIDTH 6 0
BBX 3 13 2 0
BITMAP
20
60
40
C0
C0
00
00
00
00
00
00
C0
C0
ENDCHAR
STARTCHAR 061F
ENCODING 1567
SWIDTH 550 0
DWIDTH 11 0
BBX 8 15 1 0
BITMAP
1E
7F
61
C0
60
60
30
18
0C
0C
0C
00
00
0C
0C
ENDCHAR
STARTCHAR 0621
ENCODING 1569
SWIDTH 450 0
DWIDTH 9 0
BBX 6 9 2 0
BITMAP
38
F8
C0
80
C0
E4
7C
F0
C0
ENDCHAR
STARTCHAR 0622
ENCODING 1570
SWIDTH 300 0
DWIDTH 6 0
BBX 8 18 -1 1
BITMAP
63
9C
00
18
18
18
18
18
18
18
18
18
18
18
18
18
18
18
ENDCHAR
STARTCHAR 0623
ENCODING 1571
SWIDTH 300 0
DWIDTH 6 0
BBX 4 20 1 1
BITMAP
E0
80
F0
C0
00
60
60
60
60
60
60
60
60
60
60
60
60
60
60
60
ENDCHAR
ENDFONT
